<svg width="40" height="40" viewBox="0 0 40 40" fill="none" xmlns="http://www.w3.org/2000/svg">
<path d="M34.375 7.18744H27.8125V4.68744C27.8125 4.51556 27.6719 4.37494 27.5 4.37494H25.3125C25.1406 4.37494 25 4.51556 25 4.68744V7.18744H15V4.68744C15 4.51556 14.8594 4.37494 14.6875 4.37494H12.5C12.3281 4.37494 12.1875 4.51556 12.1875 4.68744V7.18744H5.625C4.93359 7.18744 4.375 7.74603 4.375 8.43744V34.3749C4.375 35.0663 4.93359 35.6249 5.625 35.6249H34.375C35.0664 35.6249 35.625 35.0663 35.625 34.3749V8.43744C35.625 7.74603 35.0664 7.18744 34.375 7.18744ZM32.8125 32.8124H7.1875V17.9687H32.8125V32.8124ZM7.1875 15.3124V9.99994H12.1875V11.8749C12.1875 12.0468 12.3281 12.1874 12.5 12.1874H14.6875C14.8594 12.1874 15 12.0468 15 11.8749V9.99994H25V11.8749C25 12.0468 25.1406 12.1874 25.3125 12.1874H27.5C27.6719 12.1874 27.8125 12.0468 27.8125 11.8749V9.99994H32.8125V15.3124H7.1875Z" fill="white"/>
</svg>
