<svg width="40" height="40" viewBox="0 0 40 40" fill="none" xmlns="http://www.w3.org/2000/svg">
<path d="M20.0195 7.4375L16.332 14.9102L8.08203 16.1094L14.0508 21.9297L12.6406 30.1445L20.0195 26.2656L27.3984 30.1406L25.9883 21.9258L31.957 16.1094L23.707 14.9102L20.0195 7.4375Z" fill="white" fill-opacity="0.55"/>
<path d="M35.4922 13.7813L25.5742 12.3399L21.1406 3.35158C21.0195 3.10548 20.8203 2.90626 20.5742 2.78517C19.957 2.48048 19.207 2.73439 18.8984 3.35158L14.4649 12.3399L4.54689 13.7813C4.27345 13.8203 4.02345 13.9492 3.83204 14.1445C3.60064 14.3824 3.47313 14.7024 3.47753 15.0342C3.48192 15.366 3.61786 15.6825 3.85548 15.9141L11.0313 22.9102L9.33595 32.7891C9.29619 33.0189 9.32162 33.2552 9.40936 33.4713C9.49709 33.6874 9.64361 33.8746 9.83231 34.0116C10.021 34.1487 10.2443 34.2301 10.477 34.2467C10.7096 34.2633 10.9422 34.2144 11.1484 34.1055L20.0195 29.4414L28.8906 34.1055C29.1328 34.2344 29.4141 34.2774 29.6836 34.2305C30.3633 34.1133 30.8203 33.4688 30.7031 32.7891L29.0078 22.9102L36.1836 15.9141C36.3789 15.7227 36.5078 15.4727 36.5469 15.1992C36.6524 14.5156 36.1758 13.8828 35.4922 13.7813ZM25.9883 21.9258L27.3985 30.1406L20.0195 26.2656L12.6406 30.1445L14.0508 21.9297L8.08204 16.1094L16.332 14.9102L20.0195 7.43751L23.707 14.9102L31.957 16.1094L25.9883 21.9258Z" fill="white"/>
</svg>
