<svg width="235" height="192" viewBox="0 0 235 192" fill="none" xmlns="http://www.w3.org/2000/svg">
<path d="M196.704 188.533C201.272 192.63 208.343 192.276 211.99 187.342C223.186 172.195 230.61 154.531 233.563 135.819C237.096 113.439 234.082 90.5138 224.885 69.8064C215.688 49.099 200.7 31.4923 181.727 19.1072C162.754 6.72215 140.604 0.0869265 117.946 0.000847932C95.2887 -0.0852306 73.0893 6.3815 54.0224 18.6221C34.9555 30.8626 19.8343 48.3549 10.4803 68.9919C1.12636 89.6288 -2.0614 112.53 1.30103 134.937C4.11223 153.671 11.4017 171.391 22.4818 186.622C26.0911 191.583 33.1598 191.991 37.7584 187.929C42.357 183.868 42.7311 176.879 39.2321 171.839C30.9295 159.88 25.4485 146.134 23.2734 131.64C20.5468 113.47 23.1318 94.899 30.717 78.1644C38.3022 61.4298 50.5641 47.2451 66.0256 37.3192C81.4871 27.3932 99.4887 22.1493 117.862 22.2191C136.235 22.2889 154.197 27.6694 169.582 37.7126C184.968 47.7558 197.122 62.0331 204.579 78.8249C212.037 95.6167 214.481 114.207 211.616 132.355C209.331 146.833 203.746 160.537 195.353 172.432C191.816 177.445 192.137 184.437 196.704 188.533Z" fill="url(#paint0_linear_334_947)"/>
<defs>
<linearGradient id="paint0_linear_334_947" x1="117.916" y1="1.56094e-06" x2="121.049" y2="454.531" gradientUnits="userSpaceOnUse">
<stop stop-color="#D1E3F0"/>
<stop offset="0.5" stop-color="#6795BF"/>
<stop offset="1" stop-color="#6596B9"/>
</linearGradient>
</defs>
</svg>
