<svg width="40" height="40" viewBox="0 0 40 40" fill="none" xmlns="http://www.w3.org/2000/svg">
<path opacity="0.931" fill-rule="evenodd" clip-rule="evenodd" d="M18.3204 1.21094C25.5688 0.857889 31.311 3.59226 35.547 9.41407C39.0789 15.0196 39.6778 20.9311 37.3438 27.1484C34.6114 33.2652 29.963 37.0282 23.3985 38.4375C16.116 39.5264 10.0874 37.2999 5.3126 31.7578C1.37923 26.5959 0.259442 20.8667 1.95322 14.5703C4.02354 8.22915 8.22924 4.02344 14.5704 1.95313C15.8103 1.59834 17.0603 1.35095 18.3204 1.21094ZM18.3985 2.53907C24.7135 2.20154 29.8567 4.46716 33.8282 9.33594C37.2566 14.0452 38.2201 19.2275 36.7188 24.8828C35.1816 29.7012 32.1738 33.2819 27.6954 35.625C23.6149 37.5564 19.3961 37.921 15.0392 36.7188C10.2208 35.1815 6.64009 32.1737 4.29697 27.6953C2.33547 23.5288 1.99693 19.232 3.28135 14.8047C5.47628 8.49516 9.81221 4.5238 16.2892 2.89063C17.0016 2.76122 17.7047 2.64403 18.3985 2.53907ZM26.9142 13.0078C25.4255 15.7506 23.9151 18.4849 22.3829 21.2109C22.3437 21.2907 22.2917 21.3038 22.2267 21.25C22.0444 21.0677 21.8621 20.8854 21.6798 20.7031C22.0955 19.4773 21.7049 18.6179 20.5079 18.125C20.1433 18.0729 19.7788 18.0729 19.4142 18.125C19.3426 18.1542 19.2774 18.1933 19.2188 18.2422C19.0092 18.0456 18.8139 17.8373 18.6329 17.6172C21.3724 16.0392 24.1328 14.5027 26.9142 13.0078ZM13.0079 26.9141C14.4966 24.1713 16.007 21.437 17.5392 18.7109C17.5784 18.6312 17.6304 18.6181 17.6954 18.6719C17.8386 18.8151 17.9819 18.9584 18.1251 19.1016C17.871 20.081 18.1183 20.9013 18.8673 21.5625C19.4662 21.8704 20.0781 21.9095 20.7032 21.6797C20.9128 21.8763 21.1081 22.0846 21.2892 22.3047C18.5497 23.8827 15.7892 25.4191 13.0079 26.9141Z" fill="white"/>
<path opacity="0.962" fill-rule="evenodd" clip-rule="evenodd" d="M19.6485 3.71093C19.8584 3.69811 20.0667 3.71113 20.2735 3.74999C20.4167 3.78906 20.5078 3.8802 20.5469 4.02343C20.599 5.0651 20.599 6.10677 20.5469 7.14843C20.5078 7.29166 20.4167 7.38281 20.2735 7.42187C20.0651 7.47395 19.8568 7.47395 19.6485 7.42187C19.5053 7.38281 19.4141 7.29166 19.375 7.14843C19.3229 6.10677 19.3229 5.0651 19.375 4.02343C19.4289 3.87888 19.52 3.77471 19.6485 3.71093Z" fill="white"/>
<path opacity="0.939" fill-rule="evenodd" clip-rule="evenodd" d="M28.3983 10.5859C29.1662 10.4554 29.4657 10.7679 29.2967 11.5234C27.2133 15.2734 25.1301 19.0234 23.0467 22.7734C22.9004 22.946 22.7311 23.0892 22.5389 23.2031C19.0107 25.1364 15.4951 27.0895 11.992 29.0625C10.6769 29.6224 10.2993 29.2448 10.8592 27.9297C12.8644 24.3359 14.8696 20.7422 16.8748 17.1484C17.0211 16.9759 17.1904 16.8327 17.3826 16.7187C21.0846 14.7119 24.7565 12.6677 28.3983 10.5859ZM26.9139 13.0078C24.1326 14.5027 21.3721 16.0392 18.6326 17.6172C18.8136 17.8373 19.009 18.0456 19.2186 18.2422C19.2772 18.1933 19.3423 18.1542 19.4139 18.125C19.7785 18.0729 20.143 18.0729 20.5076 18.125C21.7046 18.6179 22.0952 19.4773 21.6795 20.7031C21.8618 20.8854 22.0441 21.0677 22.2264 21.25C22.2914 21.3037 22.3434 21.2907 22.3826 21.2109C23.9148 18.4849 25.4252 15.7505 26.9139 13.0078ZM13.0076 26.9141C15.789 25.4191 18.5494 23.8827 21.2889 22.3047C21.1079 22.0846 20.9126 21.8762 20.7029 21.6797C20.0779 21.9094 19.4659 21.8704 18.867 21.5625C18.118 20.9013 17.8707 20.081 18.1248 19.1016C17.9816 18.9584 17.8383 18.8151 17.6951 18.6719C17.6301 18.6181 17.5781 18.6312 17.5389 18.7109C16.0067 21.4369 14.4963 24.1713 13.0076 26.9141Z" fill="white"/>
<path opacity="0.962" fill-rule="evenodd" clip-rule="evenodd" d="M4.02329 19.3359C5.06529 19.3229 6.10695 19.3359 7.14829 19.375C7.29152 19.4141 7.38267 19.5052 7.42173 19.6484C7.47382 19.8568 7.47382 20.0651 7.42173 20.2734C7.38267 20.4166 7.29152 20.5078 7.14829 20.5469C6.10663 20.599 5.06496 20.599 4.02329 20.5469C3.78767 20.4274 3.6835 20.2321 3.71079 19.9609C3.69379 19.6823 3.79796 19.4741 4.02329 19.3359Z" fill="white"/>
<path opacity="0.962" fill-rule="evenodd" clip-rule="evenodd" d="M32.7733 19.3359C33.8152 19.3229 34.857 19.3359 35.8983 19.375C36.0415 19.4141 36.1327 19.5052 36.1717 19.6484C36.2238 19.8568 36.2238 20.0651 36.1717 20.2734C36.1327 20.4166 36.0415 20.5078 35.8983 20.5469C34.8566 20.599 33.8149 20.599 32.7733 20.5469C32.5377 20.4274 32.4335 20.2321 32.4608 19.9609C32.4438 19.6823 32.548 19.4741 32.7733 19.3359Z" fill="white"/>
<path opacity="0.962" fill-rule="evenodd" clip-rule="evenodd" d="M19.6485 32.4609C19.8584 32.4481 20.0667 32.4612 20.2735 32.5C20.4167 32.5391 20.5078 32.6302 20.5469 32.7734C20.599 33.8151 20.599 34.8568 20.5469 35.8984C20.5078 36.0416 20.4167 36.1328 20.2735 36.1719C20.0651 36.224 19.8568 36.224 19.6485 36.1719C19.5053 36.1328 19.4141 36.0416 19.375 35.8984C19.3229 34.8568 19.3229 33.8151 19.375 32.7734C19.4289 32.6289 19.52 32.5247 19.6485 32.4609Z" fill="white"/>
</svg>
