<svg width="40" height="40" viewBox="0 0 40 40" fill="none" xmlns="http://www.w3.org/2000/svg">
<path opacity="0.94" fill-rule="evenodd" clip-rule="evenodd" d="M2.85166 1.21095C5.7886 0.671351 6.99954 1.86927 6.48447 4.8047C6.38208 5.16597 6.1998 5.47847 5.93759 5.7422C5.88551 6.15886 5.88551 6.57553 5.93759 6.9922C8.9133 5.48481 11.8951 3.98742 14.8829 2.50001C16.7838 2.34372 18.4505 2.8906 19.8829 4.14064C21.4036 4.94646 22.9922 5.10271 24.6485 4.60939C25.3618 4.31806 26.0128 3.92743 26.6017 3.43751C28.7266 2.28528 30.9141 2.15507 33.1642 3.04689C33.9771 3.57279 34.8104 4.06758 35.6642 4.53126C36.4491 4.80199 37.2564 4.95824 38.086 5.00001C38.1772 5.09116 38.2683 5.1823 38.3595 5.27345C38.4116 8.81509 38.4116 12.3568 38.3595 15.8984C38.2683 15.9896 38.1772 16.0807 38.086 16.1719C36.2552 16.3081 34.6406 15.7873 33.2423 14.6094C31.3677 13.5779 29.4667 13.5259 27.5392 14.4531C25.2788 16.2801 22.7788 16.6967 20.0392 15.7031C19.0741 15.1537 18.1105 14.6068 17.1485 14.0625C16.4063 13.8595 15.6512 13.7294 14.8829 13.6719C11.8951 12.1845 8.9133 10.6871 5.93759 9.1797C5.89853 19.0234 5.88551 28.8672 5.89853 38.7109C4.62249 38.7109 3.34644 38.7109 2.07041 38.7109C2.08343 27.6953 2.07041 16.6797 2.03134 5.66407C1.54698 5.10758 1.35167 4.45653 1.44541 3.71095C1.31251 2.5166 1.78126 1.68327 2.85166 1.21095ZM3.39853 2.46095C5.08755 2.21124 5.67349 2.91437 5.15634 4.57032C5.06519 4.66147 4.97405 4.75261 4.88291 4.84376C3.12885 5.40689 2.43875 4.7949 2.81259 3.00782C2.9004 2.69828 3.09571 2.51599 3.39853 2.46095ZM15.8985 3.78907C16.3243 3.83517 16.741 3.92632 17.1485 4.06251C18.031 4.47755 18.8642 4.97234 19.6485 5.54689C21.3449 6.279 23.0898 6.40921 24.8829 5.93751C25.7211 5.66185 26.4763 5.24519 27.1485 4.68751C29.1624 3.51873 31.1937 3.49268 33.2423 4.60939C34.3541 5.52969 35.6301 6.06354 37.0704 6.21095C37.0704 9.10157 37.0704 11.9922 37.0704 14.8828C36.5903 14.8149 36.1216 14.6977 35.6642 14.5313C34.8308 14.0365 33.9975 13.5417 33.1642 13.0469C30.4887 11.9724 28.0147 12.311 25.7423 14.0625C24.1463 14.9675 22.4795 15.1238 20.7423 14.5313C19.8123 14.0442 18.9008 13.5234 18.0079 12.9688C17.3346 12.6752 16.6315 12.5059 15.8985 12.4609C15.8985 9.57032 15.8985 6.6797 15.8985 3.78907ZM14.4923 4.1797C14.5832 6.77064 14.5963 9.37478 14.5313 11.9922C11.9602 10.7001 9.39501 9.39798 6.83603 8.08595C9.39291 6.78153 11.9449 5.47945 14.4923 4.1797ZM3.39853 6.21095C3.78916 6.21095 4.17978 6.21095 4.57041 6.21095C4.57041 6.62761 4.57041 7.04428 4.57041 7.46095C4.17978 7.46095 3.78916 7.46095 3.39853 7.46095C3.39853 7.04428 3.39853 6.62761 3.39853 6.21095ZM3.39853 8.71095C3.78916 8.71095 4.17978 8.71095 4.57041 8.71095C4.57041 18.2943 4.57041 27.8776 4.57041 37.4609C4.17978 37.4609 3.78916 37.4609 3.39853 37.4609C3.39853 27.8776 3.39853 18.2943 3.39853 8.71095Z" fill="white"/>
</svg>
