<svg width="40" height="40" viewBox="0 0 40 40" fill="none" xmlns="http://www.w3.org/2000/svg">
<path opacity="0.932" fill-rule="evenodd" clip-rule="evenodd" d="M19.1797 1.21095C19.5187 1.15986 19.8182 1.23799 20.0781 1.44532C23.1147 5.74463 25.797 10.2759 28.125 15.0391C29.4091 17.7195 30.3987 20.506 31.0938 23.3985C31.9761 27.7078 31.0125 31.536 28.2031 34.8828C24.3303 38.7448 19.8381 39.6953 14.7266 37.7344C10.1677 35.3912 7.79785 31.6412 7.61719 26.4844C7.6307 24.9059 7.85203 23.3564 8.28125 21.836C8.91945 19.6345 9.7268 17.4992 10.7031 15.4297C13.1177 10.4138 15.9432 5.67427 19.1797 1.21095ZM19.4922 3.00782C22.8602 7.83157 25.7377 12.9617 28.125 18.3985C29.2241 20.9327 29.8881 23.576 30.1172 26.3281C29.9654 30.9585 27.856 34.344 23.7891 36.4844C19.1472 38.2831 15.0977 37.3846 11.6406 33.7891C9.43391 31.1356 8.57453 28.0888 9.0625 24.6485C9.58781 21.7964 10.4733 19.062 11.7188 16.4453C13.9743 11.7493 16.5655 7.27012 19.4922 3.00782Z" fill="#6596B9"/>
</svg>
