<svg width="40" height="40" viewBox="0 0 40 40" fill="none" xmlns="http://www.w3.org/2000/svg">
<path opacity="0.938" fill-rule="evenodd" clip-rule="evenodd" d="M16.2891 1.21097C17.9407 1.00402 19.1516 1.62902 19.9219 3.08597C19.9861 3.26476 20.0382 3.44705 20.0782 3.63285C20.168 12.3291 20.2332 21.0271 20.2735 29.7266C22.0364 31.4966 22.4661 33.5539 21.5625 35.8985C20.3725 38.0105 18.5626 38.935 16.1329 38.6719C13.8452 38.1811 12.478 36.7879 12.0313 34.4922C11.7985 32.5632 12.3975 30.9486 13.8282 29.6485C13.8542 20.9766 13.8803 12.3047 13.9063 3.63285C14.2461 2.36868 15.0404 1.56138 16.2891 1.21097ZM16.5235 2.5391C17.8198 2.41733 18.5881 2.99024 18.8282 4.25785C18.8542 12.9557 18.8803 21.6537 18.9063 30.3516C20.5519 31.6164 21.0467 33.231 20.3907 35.1953C19.2968 37.1663 17.6693 37.8043 15.5079 37.1094C13.8766 36.23 13.1605 34.8628 13.3594 33.0078C13.5745 31.8739 14.1604 30.9884 15.1172 30.3516C15.1823 21.5236 15.2214 12.6954 15.2344 3.86722C15.4703 3.22782 15.9 2.78511 16.5235 2.5391ZM16.5235 32.5391C17.7563 32.3789 18.2902 32.8996 18.125 34.1016C17.5069 35.0186 16.8038 35.0967 16.0157 34.336C15.6418 33.5706 15.8111 32.9716 16.5235 32.5391Z" fill="white"/>
<path opacity="0.974" fill-rule="evenodd" clip-rule="evenodd" d="M21.6792 6.83593C23.1378 6.82292 24.5961 6.83594 26.0542 6.875C26.4462 7.16575 26.5113 7.51732 26.2495 7.92968C26.1909 7.97859 26.1258 8.01765 26.0542 8.04687C24.5959 8.09898 23.1376 8.09898 21.6792 8.04687C21.2658 7.64335 21.2658 7.2397 21.6792 6.83593Z" fill="white"/>
<path opacity="0.965" fill-rule="evenodd" clip-rule="evenodd" d="M21.6792 9.33595C22.7212 9.3229 23.7629 9.33595 24.8042 9.37501C25.1963 9.66579 25.2613 10.0174 24.9995 10.4297C24.9409 10.4786 24.8758 10.5177 24.8042 10.5469C23.7626 10.599 22.7209 10.599 21.6792 10.5469C21.2658 10.1434 21.2658 9.7397 21.6792 9.33595Z" fill="white"/>
<path opacity="0.974" fill-rule="evenodd" clip-rule="evenodd" d="M21.6792 11.8359C23.1378 11.8229 24.5961 11.8359 26.0542 11.875C26.4462 12.1658 26.5113 12.5174 26.2495 12.9297C26.1909 12.9786 26.1258 13.0177 26.0542 13.0469C24.5959 13.099 23.1376 13.099 21.6792 13.0469C21.2658 12.6434 21.2658 12.2397 21.6792 11.8359Z" fill="white"/>
<path opacity="0.965" fill-rule="evenodd" clip-rule="evenodd" d="M21.6792 14.3359C22.7212 14.3229 23.7629 14.3359 24.8042 14.375C25.1963 14.6658 25.2613 15.0174 24.9995 15.4297C24.9409 15.4786 24.8758 15.5177 24.8042 15.5469C23.7626 15.599 22.7209 15.599 21.6792 15.5469C21.2658 15.1434 21.2658 14.7397 21.6792 14.3359Z" fill="white"/>
<path opacity="0.938" fill-rule="evenodd" clip-rule="evenodd" d="M16.6797 16.2107C17.1941 16.0832 17.5195 16.2656 17.6562 16.7576C17.6953 21.6013 17.7084 26.445 17.6953 31.2889C18.8656 31.6265 19.4906 32.4078 19.5703 33.6326C19.2832 35.6514 18.1373 36.4718 16.1328 36.0935C14.8512 35.4968 14.3173 34.4943 14.5312 33.0857C14.7722 32.1025 15.3842 31.5036 16.3672 31.2889C16.3541 26.3669 16.3672 21.445 16.4062 16.5232C16.5137 16.4291 16.6048 16.325 16.6797 16.2107ZM16.5234 32.5389C15.8111 32.9714 15.6418 33.5703 16.0156 34.3357C16.8037 35.0964 17.5069 35.0183 18.125 34.1014C18.2901 32.8994 17.7562 32.3786 16.5234 32.5389Z" fill="white"/>
<path opacity="0.974" fill-rule="evenodd" clip-rule="evenodd" d="M21.6792 16.8359C23.1378 16.8229 24.5961 16.8359 26.0542 16.875C26.4462 17.1658 26.5113 17.5174 26.2495 17.9297C26.1909 17.9786 26.1258 18.0177 26.0542 18.0469C24.5959 18.099 23.1376 18.099 21.6792 18.0469C21.2658 17.6434 21.2658 17.2397 21.6792 16.8359Z" fill="white"/>
<path opacity="0.965" fill-rule="evenodd" clip-rule="evenodd" d="M21.6792 19.3359C22.7212 19.3229 23.7629 19.3359 24.8042 19.375C25.1963 19.6658 25.2613 20.0174 24.9995 20.4297C24.9409 20.4786 24.8758 20.5177 24.8042 20.5469C23.7626 20.599 22.7209 20.599 21.6792 20.5469C21.2658 20.1434 21.2658 19.7397 21.6792 19.3359Z" fill="white"/>
<path opacity="0.974" fill-rule="evenodd" clip-rule="evenodd" d="M21.6792 21.8359C23.1378 21.8229 24.5961 21.8359 26.0542 21.875C26.4462 22.1658 26.5113 22.5174 26.2495 22.9297C26.1909 22.9786 26.1258 23.0177 26.0542 23.0469C24.5959 23.099 23.1376 23.099 21.6792 23.0469C21.2658 22.6434 21.2658 22.2397 21.6792 21.8359Z" fill="white"/>
<path opacity="0.965" fill-rule="evenodd" clip-rule="evenodd" d="M21.6792 24.3359C22.7212 24.3229 23.7629 24.3359 24.8042 24.375C25.1963 24.6658 25.2613 25.0174 24.9995 25.4297C24.9409 25.4786 24.8758 25.5177 24.8042 25.5469C23.7626 25.599 22.7209 25.599 21.6792 25.5469C21.2658 25.1434 21.2658 24.7397 21.6792 24.3359Z" fill="white"/>
<path opacity="0.974" fill-rule="evenodd" clip-rule="evenodd" d="M21.6792 26.8359C23.1378 26.8229 24.5961 26.8359 26.0542 26.875C26.4462 27.1658 26.5113 27.5174 26.2495 27.9297C26.1909 27.9786 26.1258 28.0177 26.0542 28.0469C24.5959 28.099 23.1376 28.099 21.6792 28.0469C21.2658 27.6434 21.2658 27.2397 21.6792 26.8359Z" fill="white"/>
</svg>
