<svg width="40" height="40" viewBox="0 0 40 40" fill="none" xmlns="http://www.w3.org/2000/svg">
<path opacity="0.934" fill-rule="evenodd" clip-rule="evenodd" d="M13.7892 7.61718C17.2932 7.32897 20.0145 8.63108 21.9533 11.5234C22.0835 11.7838 22.2136 12.0443 22.3439 12.3047C25.462 11.4862 27.9359 12.3977 29.7658 15.0391C29.9916 15.4569 30.1869 15.8866 30.3517 16.3281C33.9107 16.186 36.5018 17.6834 38.1251 20.8203C39.3928 24.2784 38.6766 27.2601 35.9767 29.7656C34.7147 30.7421 33.2825 31.289 31.6798 31.4062C23.659 31.4583 15.6382 31.4583 7.61732 31.4062C4.29113 31.0229 2.19478 29.213 1.32826 25.9766C0.801157 22.6176 1.98606 20.0785 4.88295 18.3594C5.54961 18.0199 6.25274 17.7986 6.99232 17.6953C6.32208 14.04 7.46792 11.1103 10.4298 8.90624C11.4773 8.26663 12.5971 7.83694 13.7892 7.61718ZM14.4142 8.9453C17.7944 8.916 20.1381 10.4524 21.4454 13.5547C21.6895 13.7778 21.976 13.8429 22.3048 13.75C24.6582 12.8702 26.6504 13.378 28.2814 15.2734C28.7678 15.9599 29.1063 16.7151 29.297 17.5391C29.3676 17.6329 29.4586 17.698 29.5704 17.7344C32.1783 17.3101 34.3528 18.0783 36.0939 20.0391C37.9101 22.6972 37.8579 25.3273 35.9376 27.9297C34.8009 29.1947 33.3816 29.9108 31.6798 30.0781C23.6329 30.1302 15.5861 30.1302 7.5392 30.0781C5.0564 29.7308 3.4288 28.3637 2.65638 25.9766C2.12134 23.5972 2.78541 21.6311 4.64857 20.0781C5.64396 19.3469 6.76376 18.9563 8.00795 18.9062C8.32763 18.8208 8.50998 18.6124 8.55482 18.2812C7.53049 14.7912 8.49404 12.0048 11.4454 9.92186C12.3807 9.39741 13.3702 9.07186 14.4142 8.9453Z" fill="white"/>
</svg>
