<svg width="25" height="38" viewBox="0 0 25 38" fill="none" xmlns="http://www.w3.org/2000/svg">
<path opacity="0.932" fill-rule="evenodd" clip-rule="evenodd" d="M12.1797 0.210949C12.5187 0.159863 12.8182 0.237988 13.0781 0.445324C16.1147 4.74463 18.797 9.27587 21.125 14.0391C22.4091 16.7195 23.3987 19.506 24.0938 22.3985C24.9761 26.7078 24.0125 30.536 21.2031 33.8828C17.3303 37.7448 12.8381 38.6953 7.72656 36.7344C3.16766 34.3912 0.797852 30.6412 0.617188 25.4844C0.630695 23.9059 0.852031 22.3564 1.28125 20.836C1.91945 18.6345 2.7268 16.4992 3.70312 14.4297C6.11766 9.41384 8.9432 4.67427 12.1797 0.210949ZM12.4922 2.00782C15.8602 6.83157 18.7377 11.9617 21.125 17.3985C22.2241 19.9327 22.8881 22.576 23.1172 25.3281C22.9654 29.9585 20.856 33.344 16.7891 35.4844C12.1472 37.2831 8.09766 36.3846 4.64062 32.7891C2.43391 30.1356 1.57453 27.0888 2.0625 23.6485C2.58781 20.7964 3.47328 18.062 4.71875 15.4453C6.9743 10.7493 9.56547 6.27012 12.4922 2.00782Z" fill="white"/>
</svg>
