<svg width="40" height="40" viewBox="0 0 40 40" fill="none" xmlns="http://www.w3.org/2000/svg">
<path opacity="0.936" fill-rule="evenodd" clip-rule="evenodd" d="M1.75771 12.2266C2.61801 12.2735 3.47739 12.3386 4.33584 12.4219C5.77125 12.7221 7.20354 13.0346 8.63271 13.3594C10.1431 13.5156 11.6536 13.5156 13.164 13.3594C14.2944 13.1476 15.4142 12.8871 16.5233 12.5781C19.6722 12.0188 22.7712 12.2272 25.8202 13.2031C28.8155 13.7344 31.7582 13.526 34.6483 12.5781C35.7466 12.3767 36.8533 12.2595 37.9687 12.2266C38.6075 12.2794 38.8419 12.6179 38.6718 13.2422C38.5806 13.3334 38.4895 13.4245 38.3983 13.5156C36.346 13.5755 34.3408 13.9141 32.3827 14.5312C29.284 15.0663 26.2371 14.858 23.2421 13.9062C21.0544 13.4422 18.8669 13.4422 16.6796 13.9062C12.8254 15.1041 8.97123 15.1041 5.11709 13.9062C3.92696 13.706 2.72905 13.5758 1.52334 13.5156C1.17118 13.199 1.1191 12.8344 1.36709 12.4219C1.50886 12.3627 1.63906 12.2977 1.75771 12.2266Z" fill="white"/>
<path opacity="0.936" fill-rule="evenodd" clip-rule="evenodd" d="M1.75771 15.9766C2.61801 16.0235 3.47739 16.0886 4.33584 16.1719C5.77125 16.4721 7.20354 16.7846 8.63271 17.1094C10.1431 17.2656 11.6536 17.2656 13.164 17.1094C14.2944 16.8976 15.4142 16.6371 16.5233 16.3281C19.6722 15.7688 22.7712 15.9772 25.8202 16.9531C28.8155 17.4844 31.7582 17.276 34.6483 16.3281C35.7466 16.1267 36.8533 16.0095 37.9687 15.9766C38.6075 16.0294 38.8419 16.3679 38.6718 16.9922C38.5806 17.0834 38.4895 17.1745 38.3983 17.2656C36.346 17.3255 34.3408 17.6641 32.3827 18.2812C29.284 18.8163 26.2371 18.608 23.2421 17.6562C21.0544 17.1922 18.8669 17.1922 16.6796 17.6562C12.8254 18.8541 8.97123 18.8541 5.11709 17.6562C3.92696 17.456 2.72905 17.3258 1.52334 17.2656C1.17118 16.949 1.1191 16.5844 1.36709 16.1719C1.50886 16.1127 1.63906 16.0477 1.75771 15.9766Z" fill="white"/>
<path opacity="0.936" fill-rule="evenodd" clip-rule="evenodd" d="M1.75771 19.7266C2.61801 19.7735 3.47739 19.8386 4.33584 19.9219C5.77125 20.2221 7.20354 20.5346 8.63271 20.8594C10.1431 21.0156 11.6536 21.0156 13.164 20.8594C14.2944 20.6476 15.4142 20.3871 16.5233 20.0781C19.6722 19.5188 22.7712 19.7272 25.8202 20.7031C28.8155 21.2344 31.7582 21.026 34.6483 20.0781C35.7466 19.8767 36.8533 19.7595 37.9687 19.7266C38.6075 19.7794 38.8419 20.1179 38.6718 20.7422C38.5806 20.8334 38.4895 20.9245 38.3983 21.0156C36.346 21.0755 34.3408 21.4141 32.3827 22.0312C29.284 22.5663 26.2371 22.358 23.2421 21.4062C21.0544 20.9422 18.8669 20.9422 16.6796 21.4062C12.8254 22.6041 8.97123 22.6041 5.11709 21.4062C3.92696 21.206 2.72905 21.0758 1.52334 21.0156C1.17118 20.699 1.1191 20.3344 1.36709 19.9219C1.50886 19.8627 1.63906 19.7977 1.75771 19.7266Z" fill="white"/>
<path opacity="0.936" fill-rule="evenodd" clip-rule="evenodd" d="M1.75771 23.4766C2.61801 23.5235 3.47739 23.5886 4.33584 23.6719C5.77125 23.9721 7.20354 24.2846 8.63271 24.6094C10.1431 24.7656 11.6536 24.7656 13.164 24.6094C14.2944 24.3976 15.4142 24.1371 16.5233 23.8281C19.6722 23.2688 22.7712 23.4772 25.8202 24.4531C28.8155 24.9844 31.7582 24.776 34.6483 23.8281C35.7466 23.6267 36.8533 23.5095 37.9687 23.4766C38.6075 23.5294 38.8419 23.8679 38.6718 24.4922C38.5806 24.5834 38.4895 24.6745 38.3983 24.7656C36.346 24.8255 34.3408 25.1641 32.3827 25.7812C29.284 26.3163 26.2371 26.108 23.2421 25.1562C21.0544 24.6922 18.8669 24.6922 16.6796 25.1562C12.8254 26.3541 8.97123 26.3541 5.11709 25.1562C3.92696 24.956 2.72905 24.8258 1.52334 24.7656C1.17118 24.449 1.1191 24.0844 1.36709 23.6719C1.50886 23.6127 1.63906 23.5477 1.75771 23.4766Z" fill="white"/>
</svg>
