<svg width="40" height="40" viewBox="0 0 40 40" fill="none" xmlns="http://www.w3.org/2000/svg">
<path opacity="0.978" fill-rule="evenodd" clip-rule="evenodd" d="M19.6485 1.21095C19.8584 1.19813 20.0667 1.21115 20.2735 1.25001C20.4167 1.28907 20.5078 1.38022 20.5469 1.52345C20.599 3.39845 20.599 5.27345 20.5469 7.14845C20.4274 7.38407 20.2321 7.48824 19.961 7.46095C19.6898 7.48824 19.4945 7.38407 19.375 7.14845C19.3229 5.27345 19.3229 3.39845 19.375 1.52345C19.4289 1.3789 19.52 1.27473 19.6485 1.21095Z" fill="white"/>
<path opacity="0.9" fill-rule="evenodd" clip-rule="evenodd" d="M6.52355 6.2109C6.7953 6.18623 7.05572 6.22529 7.3048 6.32809C8.56785 7.59111 9.83082 8.8541 11.0939 10.1171C11.2986 10.5257 11.2336 10.8772 10.8986 11.1718C10.6279 11.2357 10.3675 11.2096 10.1173 11.0937C8.85426 9.83066 7.59126 8.5677 6.32824 7.30465C6.12652 6.88432 6.19163 6.51973 6.52355 6.2109Z" fill="white"/>
<path opacity="0.9" fill-rule="evenodd" clip-rule="evenodd" d="M32.7736 6.21098C33.5989 6.16369 33.8723 6.52826 33.5939 7.30473C32.3309 8.56778 31.0679 9.83075 29.8049 11.0938C28.8543 11.3932 28.5289 11.0678 28.8283 10.1172C30.1352 8.79723 31.4504 7.49518 32.7736 6.21098Z" fill="white"/>
<path opacity="0.931" fill-rule="evenodd" clip-rule="evenodd" d="M18.6329 8.71096C23.4738 8.40346 27.1847 10.2785 29.7657 14.336C31.3352 17.2506 31.6477 20.2974 30.7032 23.4766C29.0669 27.8729 25.9288 30.438 21.2891 31.1719C16.4457 31.5171 12.7348 29.6552 10.1563 25.586C8.58678 22.6706 8.27428 19.6238 9.21881 16.4453C10.8681 12.0481 14.0062 9.46994 18.6329 8.71096ZM18.7891 10.0391C23.1224 9.76401 26.4166 11.4567 28.6719 15.1172C30.2865 18.3464 30.2865 21.5756 28.6719 24.8047C25.9693 29.0126 22.1542 30.5881 17.2266 29.5313C13.1598 28.1723 10.777 25.3728 10.0782 21.1328C9.77233 16.7307 11.5041 13.4104 15.2735 11.1719C16.3964 10.6109 17.5683 10.2333 18.7891 10.0391Z" fill="white"/>
<path opacity="0.978" fill-rule="evenodd" clip-rule="evenodd" d="M1.52329 19.3359C3.39847 19.3229 5.27347 19.3359 7.14829 19.375C7.29152 19.4141 7.38267 19.5052 7.42173 19.6484C7.47382 19.8568 7.47382 20.0651 7.42173 20.2734C7.38267 20.4167 7.29152 20.5078 7.14829 20.5469C5.27329 20.599 3.39829 20.599 1.52329 20.5469C1.28767 20.4274 1.1835 20.2321 1.21079 19.9609C1.19379 19.6824 1.29796 19.4741 1.52329 19.3359Z" fill="white"/>
<path opacity="0.978" fill-rule="evenodd" clip-rule="evenodd" d="M32.7733 19.3359C34.6484 19.3229 36.5234 19.3359 38.3983 19.375C38.5415 19.4141 38.6327 19.5052 38.6717 19.6484C38.7238 19.8568 38.7238 20.0651 38.6717 20.2734C38.6327 20.4167 38.5415 20.5078 38.3983 20.5469C36.5233 20.599 34.6483 20.599 32.7733 20.5469C32.5377 20.4274 32.4335 20.2321 32.4608 19.9609C32.4438 19.6824 32.548 19.4741 32.7733 19.3359Z" fill="white"/>
<path opacity="0.899" fill-rule="evenodd" clip-rule="evenodd" d="M10.2734 28.711C11.0987 28.6637 11.3721 29.0282 11.0938 29.8047C9.8307 31.0678 8.56773 32.3307 7.30469 33.5938C6.70187 33.9057 6.31124 33.7364 6.13281 33.086C6.19029 32.9265 6.2554 32.7703 6.32812 32.6172C7.63502 31.2972 8.95016 29.9952 10.2734 28.711Z" fill="white"/>
<path opacity="0.9" fill-rule="evenodd" clip-rule="evenodd" d="M29.0236 28.7109C29.2953 28.6862 29.5557 28.7253 29.8048 28.8281C31.0679 30.0911 32.3308 31.3541 33.5939 32.6172C33.7986 33.0257 33.7336 33.3772 33.3986 33.6718C33.1279 33.7357 32.8675 33.7096 32.6173 33.5937C31.3543 32.3307 30.0913 31.0677 28.8282 29.8047C28.6265 29.3843 28.6916 29.0197 29.0236 28.7109Z" fill="white"/>
<path opacity="0.978" fill-rule="evenodd" clip-rule="evenodd" d="M19.6485 32.4609C19.8584 32.4481 20.0667 32.4612 20.2735 32.5C20.4167 32.5391 20.5078 32.6302 20.5469 32.7734C20.599 34.6484 20.599 36.5234 20.5469 38.3984C20.4274 38.6341 20.2321 38.7382 19.961 38.7109C19.6898 38.7382 19.4945 38.6341 19.375 38.3984C19.3229 36.5234 19.3229 34.6484 19.375 32.7734C19.4289 32.6289 19.52 32.5247 19.6485 32.4609Z" fill="white"/>
</svg>
