<svg width="40" height="40" viewBox="0 0 40 40" fill="none" xmlns="http://www.w3.org/2000/svg">
<path opacity="0.979" fill-rule="evenodd" clip-rule="evenodd" d="M19.8828 4.64844C20.1735 4.67057 20.3949 4.80078 20.5469 5.03906C20.599 6.91406 20.599 8.78906 20.5469 10.6641C20.1563 11.0807 19.7656 11.0807 19.375 10.6641C19.3229 8.78906 19.3229 6.91406 19.375 5.03906C19.4971 4.84196 19.6664 4.71175 19.8828 4.64844Z" fill="white"/>
<path opacity="0.901" fill-rule="evenodd" clip-rule="evenodd" d="M6.758 9.64844C6.94735 9.68984 7.12964 9.755 7.30487 9.84375C8.56792 11.1068 9.83089 12.3698 11.0939 13.6328C11.3901 14.2521 11.2078 14.6167 10.5471 14.7266C10.3483 14.7356 10.179 14.6705 10.0392 14.5312C8.74792 13.266 7.48489 11.977 6.25018 10.6641C6.09378 10.1434 6.26305 9.80477 6.758 9.64844Z" fill="white"/>
<path opacity="0.901" fill-rule="evenodd" clip-rule="evenodd" d="M33.0076 9.64844C33.7346 9.82805 33.9038 10.2447 33.5154 10.8984C32.2502 12.1898 30.9611 13.4528 29.6482 14.6875C28.8222 14.7725 28.5488 14.4209 28.8279 13.6328C30.091 12.3698 31.3539 11.1068 32.617 9.84375C32.7588 9.78461 32.8889 9.71953 33.0076 9.64844Z" fill="white"/>
<path opacity="0.933" fill-rule="evenodd" clip-rule="evenodd" d="M19.6483 12.1484C24.0749 12.2188 27.4472 14.1198 29.7655 17.8516C30.926 19.8898 31.3948 22.0773 31.1717 24.4141C30.7811 24.8307 30.3905 24.8307 29.9999 24.4141C30.0537 19.7391 28.0095 16.3667 23.867 14.2969C18.9562 12.5923 14.9067 13.7772 11.7186 17.8516C10.4633 19.8515 9.8643 22.039 9.92173 24.4141C9.5311 24.8307 9.14048 24.8307 8.74985 24.4141C8.52891 19.6077 10.469 15.9749 14.5702 13.5156C16.1776 12.7038 17.8703 12.248 19.6483 12.1484Z" fill="white"/>
<path opacity="0.939" fill-rule="evenodd" clip-rule="evenodd" d="M19.8826 17.7734C20.072 17.8148 20.2543 17.88 20.4295 17.9688C21.2758 18.8151 22.1222 19.6615 22.9686 20.5078C23.2523 21.2919 22.9789 21.6434 22.1482 21.5625C21.6168 21.1093 21.109 20.6275 20.6248 20.1172C20.5988 21.3412 20.5727 22.5651 20.5467 23.7891C20.1561 24.2057 19.7654 24.2057 19.3748 23.7891C19.3488 22.5651 19.3227 21.3412 19.2967 20.1172C18.8125 20.6275 18.3046 21.1093 17.7732 21.5625C16.9472 21.6475 16.6738 21.2959 16.9529 20.5078C17.7993 19.6615 18.6457 18.8151 19.492 17.9688C19.6338 17.9096 19.7639 17.8445 19.8826 17.7734Z" fill="white"/>
<path opacity="0.931" fill-rule="evenodd" clip-rule="evenodd" d="M1.75771 23.3984C3.47666 23.3854 5.19541 23.3984 6.91396 23.4375C7.41895 23.5747 7.58821 23.9002 7.42178 24.4141C7.33063 24.5052 7.23949 24.5963 7.14834 24.6875C5.27334 24.7396 3.39834 24.7396 1.52334 24.6875C1.17118 24.3709 1.1191 24.0063 1.36709 23.5938C1.50886 23.5346 1.63906 23.4695 1.75771 23.3984Z" fill="white"/>
<path opacity="0.931" fill-rule="evenodd" clip-rule="evenodd" d="M33.0077 23.3984C34.7267 23.3854 36.4454 23.3984 38.164 23.4375C38.669 23.5747 38.8382 23.9002 38.6718 24.4141C38.5806 24.5052 38.4895 24.5963 38.3983 24.6875C36.5233 24.7396 34.6483 24.7396 32.7733 24.6875C32.4212 24.3709 32.3691 24.0063 32.6171 23.5938C32.7589 23.5346 32.889 23.4695 33.0077 23.3984Z" fill="white"/>
<path opacity="0.939" fill-rule="evenodd" clip-rule="evenodd" d="M9.25771 25.8984C16.3932 25.8854 23.5286 25.8984 30.664 25.9375C31.169 26.0747 31.3382 26.4002 31.1718 26.9141C31.0806 27.0052 30.9895 27.0963 30.8983 27.1875C23.6067 27.2396 16.315 27.2396 9.02334 27.1875C8.67115 26.8709 8.61912 26.5063 8.86709 26.0938C9.00889 26.0346 9.13904 25.9695 9.25771 25.8984Z" fill="white"/>
<path opacity="0.938" fill-rule="evenodd" clip-rule="evenodd" d="M10.5077 28.3984C16.8098 28.3854 23.1119 28.3984 29.414 28.4375C29.919 28.5747 30.0882 28.9002 29.9218 29.4141C29.8306 29.5052 29.7395 29.5963 29.6483 29.6875C23.19 29.7396 16.7317 29.7396 10.2733 29.6875C9.92115 29.3709 9.86912 29.0063 10.1171 28.5938C10.2589 28.5346 10.389 28.4695 10.5077 28.3984Z" fill="white"/>
<path opacity="0.938" fill-rule="evenodd" clip-rule="evenodd" d="M12.3827 30.8984C17.6432 30.8854 22.9036 30.8984 28.164 30.9375C28.669 31.0747 28.8382 31.4002 28.6718 31.9141C28.5806 32.0052 28.4895 32.0963 28.3983 32.1875C22.9817 32.2396 17.565 32.2396 12.1483 32.1875C11.7962 31.8709 11.7441 31.5063 11.9921 31.0938C12.1339 31.0346 12.264 30.9695 12.3827 30.8984Z" fill="white"/>
<path opacity="0.936" fill-rule="evenodd" clip-rule="evenodd" d="M14.8827 33.3984C18.2683 33.3854 21.6537 33.3984 25.039 33.4375C25.544 33.5747 25.7132 33.9002 25.5468 34.4141C25.4556 34.5052 25.3645 34.5963 25.2733 34.6875C21.7317 34.7396 18.19 34.7396 14.6483 34.6875C14.2962 34.3709 14.2441 34.0063 14.4921 33.5938C14.6339 33.5346 14.764 33.4695 14.8827 33.3984Z" fill="white"/>
</svg>
