<svg width="40" height="40" viewBox="0 0 40 40" fill="none" xmlns="http://www.w3.org/2000/svg">
<path opacity="0.938" fill-rule="evenodd" clip-rule="evenodd" d="M16.2891 1.21097C17.9407 1.00402 19.1516 1.62902 19.9219 3.08597C19.9861 3.26476 20.0382 3.44705 20.0782 3.63285C20.168 12.3291 20.2332 21.0271 20.2735 29.7266C22.0364 31.4966 22.4661 33.5539 21.5625 35.8985C20.3725 38.0105 18.5626 38.935 16.1329 38.6719C13.8452 38.1811 12.478 36.7879 12.0313 34.4922C11.7985 32.5632 12.3975 30.9486 13.8282 29.6485C13.8542 20.9766 13.8803 12.3047 13.9063 3.63285C14.2461 2.36868 15.0404 1.56138 16.2891 1.21097ZM16.5235 2.5391C17.8198 2.41733 18.5881 2.99024 18.8282 4.25785C18.8542 12.9557 18.8803 21.6537 18.9063 30.3516C20.5519 31.6164 21.0467 33.231 20.3907 35.1953C19.2968 37.1663 17.6693 37.8043 15.5079 37.1094C13.8766 36.23 13.1605 34.8628 13.3594 33.0078C13.5745 31.8739 14.1604 30.9884 15.1172 30.3516C15.1823 21.5236 15.2214 12.6954 15.2344 3.86722C15.4703 3.22782 15.9 2.78511 16.5235 2.5391ZM16.5235 32.5391C17.7563 32.3789 18.2902 32.8996 18.125 34.1016C17.5069 35.0186 16.8038 35.0967 16.0157 34.336C15.6418 33.5706 15.8111 32.9716 16.5235 32.5391Z" fill="white"/>
<path opacity="0.974" fill-rule="evenodd" clip-rule="evenodd" d="M21.6797 6.83593C23.1383 6.82292 24.5966 6.83594 26.0547 6.875C26.4467 7.16575 26.5118 7.51732 26.25 7.92968C26.1914 7.97859 26.1263 8.01765 26.0547 8.04687C24.5963 8.09898 23.1381 8.09898 21.6797 8.04687C21.2663 7.64335 21.2663 7.2397 21.6797 6.83593Z" fill="white"/>
<path opacity="0.965" fill-rule="evenodd" clip-rule="evenodd" d="M21.6797 9.33595C22.7217 9.3229 23.7634 9.33595 24.8047 9.37501C25.1967 9.66579 25.2618 10.0174 25 10.4297C24.9414 10.4786 24.8763 10.5177 24.8047 10.5469C23.7631 10.599 22.7213 10.599 21.6797 10.5469C21.2663 10.1434 21.2663 9.7397 21.6797 9.33595Z" fill="white"/>
<path opacity="0.974" fill-rule="evenodd" clip-rule="evenodd" d="M21.6797 11.8359C23.1383 11.8229 24.5966 11.8359 26.0547 11.875C26.4467 12.1658 26.5118 12.5174 26.25 12.9297C26.1914 12.9786 26.1263 13.0177 26.0547 13.0469C24.5963 13.099 23.1381 13.099 21.6797 13.0469C21.2663 12.6434 21.2663 12.2397 21.6797 11.8359Z" fill="white"/>
<path opacity="0.965" fill-rule="evenodd" clip-rule="evenodd" d="M21.6797 14.3359C22.7217 14.3229 23.7634 14.3359 24.8047 14.375C25.1967 14.6658 25.2618 15.0174 25 15.4297C24.9414 15.4786 24.8763 15.5177 24.8047 15.5469C23.7631 15.599 22.7213 15.599 21.6797 15.5469C21.2663 15.1434 21.2663 14.7397 21.6797 14.3359Z" fill="white"/>
<path opacity="0.938" fill-rule="evenodd" clip-rule="evenodd" d="M16.6797 16.211C17.1941 16.0835 17.5195 16.2658 17.6562 16.7579C17.6953 21.6015 17.7084 26.4453 17.6953 31.2891C18.8656 31.6268 19.4906 32.408 19.5703 33.6329C19.2832 35.6517 18.1373 36.472 16.1328 36.0938C14.8512 35.4971 14.3173 34.4945 14.5312 33.086C14.7722 32.1028 15.3842 31.5038 16.3672 31.2891C16.3541 26.3672 16.3672 21.4453 16.4062 16.5235C16.5137 16.4293 16.6048 16.3252 16.6797 16.211ZM16.5234 32.5391C15.8111 32.9716 15.6418 33.5706 16.0156 34.336C16.8037 35.0967 17.5069 35.0186 18.125 34.1016C18.2901 32.8997 17.7562 32.3789 16.5234 32.5391Z" fill="white"/>
<path opacity="0.974" fill-rule="evenodd" clip-rule="evenodd" d="M21.6797 16.8359C23.1383 16.8229 24.5966 16.8359 26.0547 16.875C26.4467 17.1658 26.5118 17.5174 26.25 17.9297C26.1914 17.9786 26.1263 18.0177 26.0547 18.0469C24.5963 18.099 23.1381 18.099 21.6797 18.0469C21.2663 17.6434 21.2663 17.2397 21.6797 16.8359Z" fill="white"/>
<path opacity="0.965" fill-rule="evenodd" clip-rule="evenodd" d="M21.6797 19.3359C22.7217 19.3229 23.7634 19.3359 24.8047 19.375C25.1967 19.6658 25.2618 20.0174 25 20.4297C24.9414 20.4786 24.8763 20.5177 24.8047 20.5469C23.7631 20.599 22.7213 20.599 21.6797 20.5469C21.2663 20.1434 21.2663 19.7397 21.6797 19.3359Z" fill="white"/>
<path opacity="0.974" fill-rule="evenodd" clip-rule="evenodd" d="M21.6797 21.8359C23.1383 21.8229 24.5966 21.8359 26.0547 21.875C26.4467 22.1658 26.5118 22.5174 26.25 22.9297C26.1914 22.9786 26.1263 23.0177 26.0547 23.0469C24.5963 23.099 23.1381 23.099 21.6797 23.0469C21.2663 22.6434 21.2663 22.2397 21.6797 21.8359Z" fill="white"/>
<path opacity="0.965" fill-rule="evenodd" clip-rule="evenodd" d="M21.6797 24.3359C22.7217 24.3229 23.7634 24.3359 24.8047 24.375C25.1967 24.6658 25.2618 25.0174 25 25.4297C24.9414 25.4786 24.8763 25.5177 24.8047 25.5469C23.7631 25.599 22.7213 25.599 21.6797 25.5469C21.2663 25.1434 21.2663 24.7397 21.6797 24.3359Z" fill="white"/>
<path opacity="0.974" fill-rule="evenodd" clip-rule="evenodd" d="M21.6797 26.8359C23.1383 26.8229 24.5966 26.8359 26.0547 26.875C26.4467 27.1658 26.5118 27.5174 26.25 27.9297C26.1914 27.9786 26.1263 28.0177 26.0547 28.0469C24.5963 28.099 23.1381 28.099 21.6797 28.0469C21.2663 27.6434 21.2663 27.2397 21.6797 26.8359Z" fill="white"/>
</svg>
