<svg width="31" height="23" viewBox="0 0 31 23" fill="none" xmlns="http://www.w3.org/2000/svg">
<path d="M30.9597 11.2579C30.9063 11.1368 29.8106 8.39803 27.3654 5.62895C24.9202 2.85987 21.2055 0 15.5 0C9.79446 0 5.89277 3.05658 3.63461 5.62895C1.37644 8.20132 0.0936965 11.1368 0.0402488 11.2579C-0.0134163 11.4136 -0.0134163 11.5864 0.0402488 11.7421C0.0936965 11.8632 1.18937 14.602 3.63461 17.3711C6.07984 20.1401 9.79446 23 15.5 23C21.2055 23 25.1072 19.9434 27.3654 17.3711C29.6236 14.7987 30.9063 11.8632 30.9597 11.7421C31.0134 11.5864 31.0134 11.4136 30.9597 11.2579ZM26.5904 16.5539C23.5038 20.0191 19.7758 21.7895 15.5 21.7895C11.2242 21.7895 7.4962 20.0191 4.4096 16.5539C3.0964 15.0654 1.98834 13.3617 1.12256 11.5C1.98502 9.63593 3.09343 7.93169 4.4096 6.44605C7.4962 2.96579 11.2242 1.21053 15.5 1.21053C19.7758 1.21053 23.5038 2.96579 26.5904 6.44605C27.9066 7.93169 29.015 9.63593 29.8774 11.5C29.015 13.3641 27.9066 15.0683 26.5904 16.5539ZM15.5 4.84211C14.3372 4.84211 13.2005 5.23258 12.2337 5.96416C11.2668 6.69574 10.5133 7.73556 10.0683 8.95213C9.6233 10.1687 9.50687 11.5074 9.73372 12.7989C9.96057 14.0904 10.5205 15.2767 11.3427 16.2078C12.165 17.139 13.2126 17.7731 14.353 18.03C15.4935 18.2869 16.6756 18.155 17.7499 17.6511C18.8242 17.1472 19.7424 16.2938 20.3884 15.1989C21.0344 14.104 21.3792 12.8168 21.3792 11.5C21.3792 9.73422 20.7598 8.04075 19.6573 6.79216C18.5547 5.54356 17.0593 4.84211 15.5 4.84211ZM15.5 16.9474C14.5486 16.9474 13.6186 16.6279 12.8275 16.0293C12.0365 15.4308 11.4199 14.58 11.0559 13.5846C10.6918 12.5892 10.5965 11.494 10.7821 10.4373C10.9677 9.38058 11.4259 8.40996 12.0986 7.64813C12.7713 6.8863 13.6285 6.36749 14.5616 6.1573C15.4947 5.94711 16.4619 6.05499 17.3408 6.46729C18.2198 6.87959 18.9711 7.57779 19.4996 8.47361C20.0282 9.36942 20.3103 10.4226 20.3103 11.5C20.3103 12.9447 19.8035 14.3303 18.9014 15.3519C17.9993 16.3735 16.7758 16.9474 15.5 16.9474Z" fill="white"/>
</svg>
