<svg width="38" height="38" viewBox="0 0 38 38" fill="none" xmlns="http://www.w3.org/2000/svg">
<path opacity="0.94" fill-rule="evenodd" clip-rule="evenodd" d="M1.85141 0.210887C4.78836 -0.32871 5.99929 0.869207 5.48422 3.80464C5.38184 4.16591 5.19955 4.47841 4.93735 4.74214C4.88526 5.1588 4.88526 5.57547 4.93735 5.99214C7.91305 4.48475 10.8948 2.98736 13.8827 1.49995C15.7835 1.34366 17.4502 1.89054 18.8827 3.14057C20.4034 3.9464 21.992 4.10265 23.6483 3.60932C24.3616 3.318 25.0126 2.92737 25.6014 2.43745C27.7263 1.28521 29.9138 1.15501 32.1639 2.04682C32.9769 2.57273 33.8102 3.06752 34.6639 3.5312C35.4488 3.80193 36.2562 3.95818 37.0858 3.99995C37.177 4.0911 37.2681 4.18224 37.3592 4.27339C37.4113 7.81503 37.4113 11.3567 37.3592 14.8984C37.2681 14.9896 37.177 15.0807 37.0858 15.1718C35.2549 15.308 33.6403 14.7872 32.242 13.6093C30.3675 12.5778 28.4664 12.5258 26.5389 13.4531C24.2786 15.28 21.7786 15.6967 19.0389 14.7031C18.0738 14.1536 17.1102 13.6067 16.1483 13.0624C15.4061 12.8595 14.6509 12.7293 13.8827 12.6718C10.8948 11.1844 7.91305 9.68706 4.93735 8.17964C4.89829 18.0234 4.88526 27.8671 4.89829 37.7109C3.62225 37.7109 2.3462 37.7109 1.07016 37.7109C1.08318 26.6953 1.07016 15.6796 1.0311 4.66401C0.546739 4.10752 0.351427 3.45647 0.445161 2.71089C0.31227 1.51654 0.78102 0.683207 1.85141 0.210887ZM2.39829 1.46089C4.08731 1.21118 4.67325 1.91431 4.1561 3.57026C4.06495 3.66141 3.97381 3.75255 3.88266 3.8437C2.12861 4.40682 1.4385 3.79484 1.81235 2.00776C1.90015 1.69822 2.09547 1.51593 2.39829 1.46089ZM14.8983 2.78901C15.3241 2.83511 15.7407 2.92626 16.1483 3.06245C17.0307 3.47749 17.864 3.97228 18.6483 4.54682C20.3447 5.27894 22.0895 5.40915 23.8827 4.93745C24.7209 4.66179 25.476 4.24513 26.1483 3.68745C28.1622 2.51867 30.1934 2.49262 32.242 3.60932C33.3538 4.52963 34.6298 5.06348 36.0702 5.21089C36.0702 8.10151 36.0702 10.9921 36.0702 13.8828C35.5901 13.8148 35.1213 13.6976 34.6639 13.5312C33.8306 13.0364 32.9973 12.5416 32.1639 12.0468C29.4884 10.9724 27.0145 11.311 24.742 13.0624C23.146 13.9674 21.4793 14.1237 19.742 13.5312C18.812 13.0442 17.9006 12.5233 17.0077 11.9687C16.3344 11.6752 15.6313 11.5059 14.8983 11.4609C14.8983 8.57026 14.8983 5.67964 14.8983 2.78901ZM13.492 3.17964C13.583 5.77058 13.596 8.37471 13.5311 10.9921C10.9599 9.70003 8.39477 8.39792 5.83579 7.08589C8.39266 5.78147 10.9447 4.47939 13.492 3.17964ZM2.39829 5.21089C2.78891 5.21089 3.17954 5.21089 3.57016 5.21089C3.57016 5.62755 3.57016 6.04422 3.57016 6.46089C3.17954 6.46089 2.78891 6.46089 2.39829 6.46089C2.39829 6.04422 2.39829 5.62755 2.39829 5.21089ZM2.39829 7.71089C2.78891 7.71089 3.17954 7.71089 3.57016 7.71089C3.57016 17.2942 3.57016 26.8775 3.57016 36.4609C3.17954 36.4609 2.78891 36.4609 2.39829 36.4609C2.39829 26.8775 2.39829 17.2942 2.39829 7.71089Z" fill="white"/>
</svg>
