<svg width="40" height="40" viewBox="0 0 40 40" fill="none" xmlns="http://www.w3.org/2000/svg">
<path opacity="0.978" fill-rule="evenodd" clip-rule="evenodd" d="M19.6485 1.21082C19.8584 1.198 20.0667 1.21103 20.2735 1.24989C20.4167 1.28895 20.5078 1.3801 20.5469 1.52332C20.599 3.39832 20.599 5.27332 20.5469 7.14832C20.4274 7.38395 20.2321 7.48812 19.961 7.46082C19.6898 7.48812 19.4945 7.38395 19.375 7.14832C19.3229 5.27332 19.3229 3.39832 19.375 1.52332C19.4289 1.37878 19.52 1.27461 19.6485 1.21082Z" fill="white"/>
<path opacity="0.9" fill-rule="evenodd" clip-rule="evenodd" d="M6.52343 6.21078C6.79517 6.1861 7.0556 6.22517 7.30468 6.32796C8.56773 7.59099 9.8307 8.85398 11.0937 10.117C11.2985 10.5255 11.2334 10.8771 10.8984 11.1717C10.6278 11.2355 10.3673 11.2094 10.1172 11.0936C8.85413 9.83054 7.59114 8.56757 6.32812 7.30453C6.1264 6.8842 6.19151 6.51961 6.52343 6.21078Z" fill="white"/>
<path opacity="0.9" fill-rule="evenodd" clip-rule="evenodd" d="M32.7734 6.2111C33.5986 6.16381 33.8721 6.52839 33.5937 7.30485C32.3307 8.5679 31.0677 9.83087 29.8046 11.0939C28.8541 11.3934 28.5286 11.0679 28.8281 10.1174C30.135 8.79735 31.4501 7.4953 32.7734 6.2111Z" fill="white"/>
<path opacity="0.931" fill-rule="evenodd" clip-rule="evenodd" d="M18.6328 8.71072C23.4737 8.40322 27.1846 10.2782 29.7656 14.3357C31.3351 17.2503 31.6476 20.2972 30.7031 23.4763C29.0667 27.8727 25.9287 30.4377 21.289 31.1717C16.4456 31.5169 12.7346 29.6549 10.1562 25.5857C8.58666 22.6704 8.27416 19.6235 9.21869 16.4451C10.868 12.0478 14.006 9.4697 18.6328 8.71072ZM18.789 10.0388C23.1223 9.76376 26.4165 11.4565 28.6718 15.117C30.2864 18.3461 30.2864 21.5753 28.6718 24.8045C25.9692 29.0124 22.1541 30.5879 17.2265 29.531C13.1597 28.172 10.7769 25.3726 10.0781 21.1326C9.77221 16.7305 11.504 13.4102 15.2734 11.1717C16.3963 10.6106 17.5681 10.2331 18.789 10.0388Z" fill="white"/>
<path opacity="0.978" fill-rule="evenodd" clip-rule="evenodd" d="M1.52378 19.3359C3.39896 19.3229 5.27396 19.3359 7.14878 19.375C7.29201 19.4141 7.38316 19.5052 7.42222 19.6484C7.47431 19.8568 7.47431 20.0651 7.42222 20.2734C7.38316 20.4167 7.29201 20.5078 7.14878 20.5469C5.27378 20.599 3.39878 20.599 1.52378 20.5469C1.28816 20.4274 1.18399 20.2321 1.21128 19.9609C1.19428 19.6824 1.29845 19.4741 1.52378 19.3359Z" fill="white"/>
<path opacity="0.978" fill-rule="evenodd" clip-rule="evenodd" d="M32.7738 19.3359C34.6489 19.3229 36.5239 19.3359 38.3988 19.375C38.542 19.4141 38.6331 19.5052 38.6722 19.6484C38.7243 19.8568 38.7243 20.0651 38.6722 20.2734C38.6331 20.4167 38.542 20.5078 38.3988 20.5469C36.5238 20.599 34.6488 20.599 32.7738 20.5469C32.5381 20.4274 32.434 20.2321 32.4613 19.9609C32.4442 19.6824 32.5485 19.4741 32.7738 19.3359Z" fill="white"/>
<path opacity="0.899" fill-rule="evenodd" clip-rule="evenodd" d="M10.2734 28.7111C11.0987 28.6638 11.3721 29.0284 11.0938 29.8048C9.8307 31.0679 8.56773 32.3309 7.30469 33.5939C6.70187 33.9058 6.31124 33.7365 6.13281 33.0861C6.19029 32.9266 6.2554 32.7704 6.32812 32.6174C7.63502 31.2974 8.95016 29.9953 10.2734 28.7111Z" fill="white"/>
<path opacity="0.9" fill-rule="evenodd" clip-rule="evenodd" d="M29.0234 28.7108C29.2952 28.6861 29.5556 28.7252 29.8047 28.828C31.0677 30.091 32.3307 31.354 33.5938 32.617C33.7985 33.0255 33.7334 33.3771 33.3984 33.6717C33.1278 33.7355 32.8673 33.7095 32.6172 33.5936C31.3541 32.3305 30.0912 31.0676 28.8281 29.8045C28.6264 29.3842 28.6915 29.0196 29.0234 28.7108Z" fill="white"/>
<path opacity="0.978" fill-rule="evenodd" clip-rule="evenodd" d="M19.6485 32.4608C19.8584 32.448 20.0667 32.4611 20.2735 32.4999C20.4167 32.5389 20.5078 32.6301 20.5469 32.7733C20.599 34.6483 20.599 36.5233 20.5469 38.3983C20.4274 38.6339 20.2321 38.7381 19.961 38.7108C19.6898 38.7381 19.4945 38.6339 19.375 38.3983C19.3229 36.5233 19.3229 34.6483 19.375 32.7733C19.4289 32.6288 19.52 32.5246 19.6485 32.4608Z" fill="white"/>
</svg>
