<svg width="38" height="38" viewBox="0 0 38 38" fill="none" xmlns="http://www.w3.org/2000/svg">
<g clip-path="url(#clip0_63_2234)">
<path opacity="0.993" fill-rule="evenodd" clip-rule="evenodd" d="M37.9629 22.5996C37.9629 23.2676 37.9629 23.9356 37.9629 24.6036C37.2251 28.1738 35.048 30.2396 31.4316 30.8008C22.7214 30.874 14.0131 30.8493 5.30664 30.7266C2.35061 30.0096 0.569361 28.1666 -0.0371094 25.1973C-0.0371094 24.5541 -0.0371094 23.9109 -0.0371094 23.2676C0.715493 19.8954 2.81836 18.0276 6.27148 17.6641C5.19848 14.0802 6.08911 11.0868 8.94336 8.68363C11.2293 7.09359 13.7033 6.7225 16.3652 7.57035C18.6243 8.46877 20.22 10.0398 21.1523 12.2832C23.9434 11.2369 26.3184 11.8307 28.2773 14.0645C28.7951 14.7538 29.1538 15.5207 29.3535 16.3653C32.1433 16.0373 34.4812 16.9032 36.3672 18.9629C37.224 20.0383 37.756 21.2505 37.9629 22.5996Z" fill="#A3D4F6"/>
</g>
<defs>
<clipPath id="clip0_63_2234">
<rect width="38" height="38" fill="white"/>
</clipPath>
</defs>
</svg>
