<svg width="38" height="38" viewBox="0 0 38 38" fill="none" xmlns="http://www.w3.org/2000/svg">
<g clip-path="url(#clip0_63_2258)">
<path opacity="0.953" fill-rule="evenodd" clip-rule="evenodd" d="M23.5645 1.22459C23.927 1.17713 24.2114 1.30083 24.418 1.59568C24.4675 2.21417 24.4675 2.83267 24.418 3.45115C24.1427 3.88178 23.784 3.96837 23.3418 3.71092C23.2527 3.64394 23.1908 3.55734 23.1563 3.45115C23.1068 2.8574 23.1068 2.26365 23.1563 1.6699C23.2572 1.48268 23.3932 1.33424 23.5645 1.22459Z" fill="#FDD020"/>
<path opacity="0.917" fill-rule="evenodd" clip-rule="evenodd" d="M33.9551 4.41602C34.6779 4.47618 34.913 4.84728 34.6601 5.5293C34.1777 6.01172 33.6953 6.49414 33.2129 6.97656C32.3737 7.20107 32.0398 6.89183 32.2109 6.04883C32.764 5.45816 33.3453 4.91389 33.9551 4.41602Z" fill="#FCD01F"/>
<path opacity="0.99" fill-rule="evenodd" clip-rule="evenodd" d="M32.6934 17.7012C31.1407 16.9455 29.5079 16.6981 27.7949 16.959C27.3072 14.999 26.1197 13.6506 24.2324 12.9141C22.8219 12.4209 21.4365 12.4827 20.0762 13.0996C19.7857 12.5433 19.4765 11.999 19.1484 11.4668C18.6882 10.9365 18.2305 10.417 17.7754 9.90822C20.1177 6.4011 23.3586 5.12701 27.498 6.08596C30.3605 7.04351 32.2531 8.96082 33.1758 11.8379C33.7017 13.8518 33.5409 15.8062 32.6934 17.7012Z" fill="#FCD020"/>
<path opacity="0.995" fill-rule="evenodd" clip-rule="evenodd" d="M17.7754 9.90825C18.2305 10.417 18.6882 10.9365 19.1484 11.4668C19.4765 11.9991 19.7857 12.5433 20.0762 13.0997C21.4365 12.4827 22.8219 12.4209 24.2324 12.9141C26.1197 13.6507 27.3072 14.999 27.7949 16.959C29.5079 16.6981 31.1407 16.9455 32.6934 17.7012C35.2252 19.3018 36.3261 21.6026 35.9961 24.6036C35.3482 27.775 33.4308 29.6428 30.2441 30.2071C28.7352 30.2442 27.2261 30.2566 25.7168 30.2442C25.1488 28.9349 24.5179 27.6484 23.8242 26.3848C23.1073 27.6457 22.4516 28.9321 21.8574 30.2442C18.8887 30.2442 15.9199 30.2442 12.9512 30.2442C12.4859 29.4168 12.0282 28.5756 11.5781 27.7207C11.0995 28.5546 10.6418 29.3958 10.2051 30.2442C8.52261 30.2566 6.84031 30.2442 5.1582 30.2071C2.3333 29.621 0.60153 27.9264 -0.0371094 25.1231C-0.0371094 24.5046 -0.0371094 23.8861 -0.0371094 23.2676C0.683076 20.0617 2.68699 18.3176 5.97461 18.0352C5.05787 14.9467 5.77531 12.2995 8.12695 10.0938C11.3013 7.74856 14.5174 7.68673 17.7754 9.90825Z" fill="#A3D3F6"/>
<path opacity="0.921" fill-rule="evenodd" clip-rule="evenodd" d="M37.9629 13.8418C37.9629 14.0398 37.9629 14.2376 37.9629 14.4356C37.8779 14.5821 37.7541 14.6935 37.5918 14.7695C36.9734 14.8191 36.3548 14.8191 35.7363 14.7695C35.2415 14.349 35.2415 13.9284 35.7363 13.5078C36.3548 13.4583 36.9734 13.4583 37.5918 13.5078C37.7541 13.5839 37.8779 13.6952 37.9629 13.8418Z" fill="#FCD01F"/>
<path fill-rule="evenodd" clip-rule="evenodd" d="M17.3301 20.002C18.3513 21.6244 19.1553 23.3562 19.7422 25.1973C20.157 26.3594 19.9467 27.3861 19.1113 28.2773C18.2549 28.9342 17.3148 29.0826 16.291 28.7227C15.1248 28.06 14.6424 27.0581 14.8437 25.7168C15.429 23.7052 16.2578 21.8002 17.3301 20.002Z" fill="#60A2D7"/>
<path opacity="0.98" fill-rule="evenodd" clip-rule="evenodd" d="M25.7168 30.2441C26.1978 31.2292 26.4081 32.2682 26.3477 33.3613C25.8493 34.9531 24.7731 35.6087 23.1191 35.3281C21.6921 34.8382 21.0612 33.8363 21.2266 32.3223C21.3852 31.6113 21.5956 30.9186 21.8574 30.2441C22.4516 28.9321 23.1073 27.6457 23.8242 26.3848C24.5179 27.6483 25.1488 28.9348 25.7168 30.2441Z" fill="#60A2D7"/>
<path opacity="0.977" fill-rule="evenodd" clip-rule="evenodd" d="M12.9512 30.2441C13.4441 31.265 13.8275 32.3288 14.1015 33.4355C14.3379 34.9555 13.7565 36.0069 12.3574 36.5898C10.7691 36.9153 9.66824 36.3339 9.05467 34.8457C8.91106 34.3257 8.91106 33.8061 9.05467 33.2871C9.32891 32.229 9.7124 31.2147 10.2051 30.2441C10.6418 29.3957 11.0995 28.5546 11.5781 27.7207C12.0282 28.5756 12.4859 29.4168 12.9512 30.2441Z" fill="#60A2D7"/>
</g>
<defs>
<clipPath id="clip0_63_2258">
<rect width="38" height="38" fill="white"/>
</clipPath>
</defs>
</svg>
