<svg width="38" height="38" viewBox="0 0 38 38" fill="none" xmlns="http://www.w3.org/2000/svg">
<g clip-path="url(#clip0_63_2211)">
<path opacity="0.935" fill-rule="evenodd" clip-rule="evenodd" d="M18.666 -0.0371094C18.864 -0.0371094 19.0618 -0.0371094 19.2598 -0.0371094C19.4228 0.063389 19.5341 0.211826 19.5938 0.408203C19.6433 2.23893 19.6433 4.06966 19.5938 5.90039C19.1732 6.49414 18.7526 6.49414 18.332 5.90039C18.2825 4.06966 18.2825 2.23893 18.332 0.408203C18.3917 0.211826 18.503 0.063389 18.666 -0.0371094Z" fill="#FCD01F"/>
<path opacity="0.949" fill-rule="evenodd" clip-rule="evenodd" d="M5.38085 5.00979C5.61458 4.98837 5.83724 5.02548 6.04882 5.12111C7.37239 6.44468 8.69598 7.76827 10.0195 9.09182C10.2437 9.65788 10.0581 10.0042 9.46288 10.1309C9.32937 10.1252 9.20564 10.0881 9.09179 10.0196C7.76825 8.69601 6.44465 7.37241 5.12109 6.04885C4.91806 5.62333 5.00465 5.27697 5.38085 5.00979Z" fill="#FCD01F"/>
<path opacity="0.949" fill-rule="evenodd" clip-rule="evenodd" d="M32.0254 5.00978C32.7728 4.99633 33.0325 5.34268 32.8047 6.04884C31.4811 7.3724 30.1575 8.696 28.834 10.0195C28.3916 10.2324 28.0576 10.1211 27.832 9.68556C27.776 9.47752 27.8007 9.27958 27.9062 9.09181C29.2715 7.71416 30.6445 6.35346 32.0254 5.00978Z" fill="#FCD01F"/>
<path opacity="0.992" fill-rule="evenodd" clip-rule="evenodd" d="M18.8887 8.12695C23.8702 8.37113 27.2966 10.7956 29.168 15.4004C30.5358 20.0604 29.4349 24.0311 25.8652 27.3125C22.0974 30.0994 18.0896 30.4952 13.8418 28.5C10.2309 26.3575 8.32593 23.1784 8.12695 18.9629C8.33254 14.6779 10.287 11.4741 13.9902 9.35156C15.5452 8.59171 17.178 8.18351 18.8887 8.12695Z" fill="#FCD01F"/>
<path opacity="0.935" fill-rule="evenodd" clip-rule="evenodd" d="M-0.0371094 19.2598C-0.0371094 19.0618 -0.0371094 18.864 -0.0371094 18.666C0.063389 18.503 0.211826 18.3917 0.408203 18.332C2.23893 18.2825 4.06966 18.2825 5.90039 18.332C6.49414 18.7526 6.49414 19.1732 5.90039 19.5938C4.06966 19.6433 2.23893 19.6433 0.408203 19.5938C0.211826 19.5341 0.063389 19.4228 -0.0371094 19.2598Z" fill="#FCD01F"/>
<path opacity="0.935" fill-rule="evenodd" clip-rule="evenodd" d="M37.9629 18.666C37.9629 18.864 37.9629 19.0618 37.9629 19.2598C37.8624 19.4228 37.714 19.5341 37.5176 19.5938C35.6868 19.6433 33.8561 19.6433 32.0254 19.5938C31.4316 19.1732 31.4316 18.7526 32.0254 18.332C33.8561 18.2825 35.6868 18.2825 37.5176 18.332C37.714 18.3917 37.8624 18.503 37.9629 18.666Z" fill="#FCD01F"/>
<path opacity="0.949" fill-rule="evenodd" clip-rule="evenodd" d="M9.24023 27.7949C9.97314 27.7971 10.2329 28.1435 10.0195 28.834C8.6712 30.1823 7.32292 31.5306 5.97461 32.8789C5.15286 32.9974 4.86836 32.6634 5.12109 31.877C6.48635 30.4993 7.85939 29.1386 9.24023 27.7949Z" fill="#FCD01F"/>
<path opacity="0.949" fill-rule="evenodd" clip-rule="evenodd" d="M28.3145 27.795C28.4992 27.78 28.6724 27.8171 28.834 27.9063C30.1575 29.2299 31.4812 30.5535 32.8047 31.877C33.0574 32.6635 32.7729 32.9975 31.9512 32.879C30.6029 31.5306 29.2546 30.1824 27.9063 28.834C27.7165 28.351 27.8525 28.0046 28.3145 27.795Z" fill="#FCD01F"/>
<path opacity="0.935" fill-rule="evenodd" clip-rule="evenodd" d="M19.2598 37.9629C19.0618 37.9629 18.864 37.9629 18.666 37.9629C18.503 37.8624 18.3917 37.714 18.332 37.5176C18.2825 35.6868 18.2825 33.8561 18.332 32.0254C18.7526 31.4316 19.1732 31.4316 19.5938 32.0254C19.6433 33.8561 19.6433 35.6868 19.5938 37.5176C19.5341 37.714 19.4228 37.8624 19.2598 37.9629Z" fill="#FCD01F"/>
</g>
<defs>
<clipPath id="clip0_63_2211">
<rect width="38" height="38" fill="white"/>
</clipPath>
</defs>
</svg>
