<svg width="1920" height="1080" viewBox="0 0 1920 1080" fill="none" xmlns="http://www.w3.org/2000/svg">
<path fill-rule="evenodd" clip-rule="evenodd" d="M439.248 -53.1832C492.91 -48.4484 531.292 -4.78954 576.027 25.2272C623.006 56.75 693.545 71.5421 707.022 126.492C720.579 181.769 660.836 225.952 638.048 278.106C618.355 323.176 618.3 377.039 582.713 410.988C544.566 447.38 491.422 475.318 439.248 467.757C388.642 460.424 362.921 405.465 323.112 373.368C286.123 343.544 230.697 331.21 214.493 286.54C198.194 241.609 230.645 195.825 241.851 149.361C254.321 97.6536 246.611 37.5269 283.733 -0.563316C322.888 -40.7395 383.368 -58.1138 439.248 -53.1832Z" fill="url(#paint0_radial_86_2727)"/>
<path fill-rule="evenodd" clip-rule="evenodd" d="M308.165 707.968C349.922 701.756 391.136 726.393 422.602 754.534C452.125 780.937 462.148 820.377 475.535 857.651C489.413 896.295 516.443 936.579 501.752 974.922C487.126 1013.1 438.307 1021.67 404.11 1044.07C372.113 1065.04 346.128 1097.04 308.165 1101.77C267.732 1106.8 224.395 1096.47 193.138 1070.33C162.78 1044.95 149.591 1004.39 144.744 965.121C140.503 930.755 155.217 898.672 167.98 866.483C179.866 836.503 194.691 809.421 216.056 785.262C243.275 754.485 267.524 714.015 308.165 707.968Z" fill="#2498FD"/>
<path fill-rule="evenodd" clip-rule="evenodd" d="M173.235 928.082C207.333 930.82 236.83 946.227 268.002 960.283C308.651 978.611 362.991 982.586 382.68 1022.52C402.45 1062.62 377.558 1109.68 362.39 1151.73C347.7 1192.45 333.385 1236.8 296.923 1260.25C261.201 1283.23 215.302 1279.44 173.235 1273.38C136.015 1268.03 103.998 1249.29 73.0072 1228.04C41.1373 1206.19 8.58183 1184.02 -7.95728 1149.15C-25.9694 1111.17 -36.705 1066.51 -22.3265 1027.02C-8.12018 988.001 29.5801 962.89 66.6922 944.115C99.5282 927.502 136.536 925.134 173.235 928.082Z" fill="#7AF0D8"/>
<path fill-rule="evenodd" clip-rule="evenodd" d="M98.8636 719.243C133.128 723.244 167.238 724.038 197.563 740.473C231.447 758.837 265.517 781.722 280.012 817.417C294.983 854.282 286.13 895.292 276.065 933.784C265.412 974.526 258.193 1024.57 220.78 1043.95C183.371 1063.31 140.707 1030.45 98.8636 1025.54C63.8918 1021.43 24.4143 1038.52 -3.87914 1017.57C-32.1353 996.649 -28.0741 954.321 -41.3011 921.757C-56.006 885.554 -89.9721 855.164 -85.6176 816.335C-80.9914 775.084 -54.8961 734.628 -18.1461 715.287C17.2503 696.657 59.1293 714.603 98.8636 719.243Z" fill="#425BFF"/>
<path fill-rule="evenodd" clip-rule="evenodd" d="M1561.97 235.268C1627.1 212.406 1697.05 173.651 1760.86 199.959C1824.23 226.084 1835.87 308.656 1875.55 364.546C1915.83 421.272 2000.05 460.147 1994.88 529.527C1989.67 599.396 1895.97 622.09 1852.26 676.852C1810.26 729.483 1803.32 808.26 1745.24 842.328C1681.01 879.999 1594.15 902.121 1528.68 866.641C1463.6 831.369 1472.07 735.043 1432.2 672.672C1394.81 614.164 1311.65 584.052 1303.94 515.043C1296.09 444.834 1345.87 380.756 1393.77 328.824C1438.36 280.48 1499.92 257.052 1561.97 235.268Z" fill="url(#paint1_radial_86_2727)"/>
<g filter="url(#filter0_b_86_2727)">
<path d="M0 0H1920V1080H0V0Z" fill="black" fill-opacity="0.15"/>
</g>
<defs>
<filter id="filter0_b_86_2727" x="-100" y="-100" width="2120" height="1280" filterUnits="userSpaceOnUse" color-interpolation-filters="sRGB">
<feFlood flood-opacity="0" result="BackgroundImageFix"/>
<feGaussianBlur in="BackgroundImage" stdDeviation="50"/>
<feComposite in2="SourceAlpha" operator="in" result="effect1_backgroundBlur_86_2727"/>
<feBlend mode="normal" in="SourceGraphic" in2="effect1_backgroundBlur_86_2727" result="shape"/>
</filter>
<radialGradient id="paint0_radial_86_2727" cx="0" cy="0" r="1" gradientUnits="userSpaceOnUse" gradientTransform="translate(459.5 207.5) rotate(90) scale(261.5 249.5)">
<stop offset="0.21875" stop-color="#83F2D4"/>
<stop offset="1" stop-color="#425BFF"/>
</radialGradient>
<radialGradient id="paint1_radial_86_2727" cx="0" cy="0" r="1" gradientUnits="userSpaceOnUse" gradientTransform="translate(1656.7 539.729) rotate(73.2009) scale(324.613 332.054)">
<stop offset="0.21875" stop-color="#83F2D4"/>
<stop offset="1" stop-color="#425BFF"/>
</radialGradient>
</defs>
</svg>
