<svg width="37" height="38" viewBox="0 0 37 38" fill="none" xmlns="http://www.w3.org/2000/svg">
<path opacity="0.992" fill-rule="evenodd" clip-rule="evenodd" d="M17.5434 0C18.8051 0 20.0668 0 21.3286 0C22.5498 0.118317 23.7621 0.340973 24.9653 0.667969C19.251 3.15686 16.1832 7.52341 15.7622 13.7676C15.9897 19.0749 18.3647 23.0827 22.8872 25.791C26.6553 27.7073 30.5395 27.9794 34.5395 26.6074C35.2924 26.2554 36.0346 25.909 36.7661 25.5684C34.4952 31.575 30.2895 35.5086 24.1489 37.3691C23.0402 37.6609 21.9269 37.8712 20.809 38C19.671 38 18.533 38 17.395 38C10.9463 37.257 6.0108 34.1398 2.58833 28.6484C-0.264147 23.5022 -0.758939 18.1337 1.10396 12.543C3.43325 6.57693 7.65131 2.63097 13.7583 0.705078C15.0126 0.372525 16.2743 0.137499 17.5434 0Z" fill="#FBE665"/>
</svg>
