<svg width="38" height="38" viewBox="0 0 38 38" fill="none" xmlns="http://www.w3.org/2000/svg">
<g clip-path="url(#clip0_334_2842)">
<path opacity="0.987" fill-rule="evenodd" clip-rule="evenodd" d="M26.162 -0.0371094C27.1022 -0.0371094 28.0422 -0.0371094 28.9824 -0.0371094C29.598 0.0660081 30.2165 0.202076 30.8378 0.371094C26.9785 2.16312 25.1354 5.19372 25.3085 9.46289C25.8783 13.1248 27.9193 15.5369 31.4316 16.6992C33.7469 17.3231 35.924 17.0139 37.9628 15.7715C37.9628 15.8457 37.9628 15.9199 37.9628 15.9941C36.3964 20.009 33.5018 22.4829 29.2792 23.416C28.5201 20.9377 26.8625 19.4657 24.3066 19C23.2073 18.8637 22.1559 19.0245 21.1523 19.4824C20.1195 17.1511 18.4 15.543 15.9941 14.6582C15.9941 14.6087 15.9694 14.584 15.9199 14.584C15.0012 9.88148 16.2876 5.91078 19.7792 2.67188C21.6483 1.15427 23.7759 0.251276 26.162 -0.0371094Z" fill="#FBE566"/>
<path opacity="0.945" fill-rule="evenodd" clip-rule="evenodd" d="M33.2871 3.89649C33.3521 3.88678 33.4016 3.91152 33.4355 3.97071C33.7429 4.64508 34.0645 5.31305 34.4004 5.97462C35.1622 6.13472 35.9291 6.2708 36.7012 6.38282C36.1963 6.96195 35.6644 7.51859 35.1055 8.05274C35.1559 8.83783 35.2672 9.61713 35.4395 10.3906C35.4147 10.4277 35.3899 10.4649 35.3652 10.502C34.7092 10.112 34.0412 9.74092 33.3613 9.38868C32.6814 9.74092 32.0134 10.112 31.3574 10.502C31.3327 10.4772 31.3079 10.4525 31.2832 10.4277C31.4513 9.64199 31.5626 8.8503 31.6172 8.05274C31.0582 7.51859 30.5263 6.96195 30.0215 6.38282C30.7935 6.2708 31.5604 6.13472 32.3223 5.97462C32.6853 5.29812 33.0069 4.60541 33.2871 3.89649Z" fill="#FEDE3C"/>
<path opacity="0.996" fill-rule="evenodd" clip-rule="evenodd" d="M15.9199 14.584C15.9694 14.584 15.9941 14.6087 15.9941 14.6582C18.4001 15.543 20.1195 17.1511 21.1523 19.4824C22.1559 19.0245 23.2074 18.8636 24.3066 19C26.8626 19.4657 28.5201 20.9377 29.2793 23.416C29.2781 23.5633 29.3523 23.6375 29.502 23.6387C32.7496 23.2279 35.2607 24.3906 37.0352 27.1269C37.5171 27.9937 37.8263 28.9092 37.9629 29.873C37.9629 30.4668 37.9629 31.0605 37.9629 31.6543C37.2781 35.1346 35.1999 37.2375 31.7285 37.9629C22.9954 37.9629 14.2624 37.9629 5.5293 37.9629C2.42828 37.3111 0.57281 35.4309 -0.0371094 32.3223C-0.0371094 31.7285 -0.0371094 31.1348 -0.0371094 30.541C0.678275 27.1171 2.78114 25.1999 6.27148 24.7891C5.27758 21.6027 5.94555 18.8195 8.27539 16.4394C10.4907 14.4919 13.0389 13.8733 15.9199 14.584Z" fill="#A3D4F6"/>
</g>
<defs>
<clipPath id="clip0_334_2842">
<rect width="38" height="38" fill="white"/>
</clipPath>
</defs>
</svg>
