<svg width="38" height="38" viewBox="0 0 38 38" fill="none" xmlns="http://www.w3.org/2000/svg">
<g clip-path="url(#clip0_334_2849)">
<path opacity="0.98" fill-rule="evenodd" clip-rule="evenodd" d="M37.9629 13.3965C37.9629 13.4707 37.9629 13.5449 37.9629 13.6191C37.2996 15.3429 36.2111 16.7284 34.6972 17.7754C33.5475 16.7677 32.2116 16.1369 30.6894 15.8828C29.8937 15.8599 29.102 15.8475 28.3144 15.8457C27.3419 12.9336 25.3133 11.4741 22.2285 11.4668C21.9666 7.80365 23.352 4.97098 26.3847 2.96874C28.4719 1.86696 30.6489 1.63193 32.916 2.26366C30.4355 3.44623 29.1243 5.41302 28.9824 8.16405C29.1947 11.2457 30.7781 13.2248 33.7324 14.1016C35.2378 14.4064 36.6479 14.1714 37.9629 13.3965Z" fill="#FBE566"/>
<path opacity="0.994" fill-rule="evenodd" clip-rule="evenodd" d="M22.2285 11.4668C25.3133 11.4741 27.342 12.9337 28.3145 15.8457C29.102 15.8476 29.8937 15.86 30.6895 15.8828C32.2116 16.1369 33.5475 16.7677 34.6973 17.7754C36.652 19.9418 37.1593 22.4157 36.2188 25.1973C35.086 27.7639 33.1192 29.1864 30.3184 29.4649C28.9579 29.502 27.5972 29.5144 26.2363 29.502C25.5983 28.1766 24.918 26.8654 24.1953 25.5684C23.4971 26.8657 22.8416 28.1769 22.2285 29.502C19.2103 29.502 16.1921 29.502 13.1738 29.502C12.7247 28.6288 12.2547 27.7629 11.7637 26.9043C11.2726 27.7629 10.8026 28.6288 10.3535 29.502C8.7947 29.5144 7.23614 29.502 5.67773 29.4649C2.54953 29.0452 0.644578 27.3011 -0.0371094 24.2324C-0.0371094 23.614 -0.0371094 22.9954 -0.0371094 22.377C0.48156 19.8417 1.96594 18.147 4.41602 17.293C4.95977 17.1763 5.50405 17.0774 6.04883 16.9961C5.10469 13.6188 5.99532 10.8232 8.7207 8.60939C10.9222 7.11444 13.2972 6.7681 15.8457 7.57033C18.0011 8.38985 19.5226 9.86183 20.4102 11.9863C20.9991 11.7249 21.6052 11.5518 22.2285 11.4668Z" fill="#A2D3F6"/>
<path fill-rule="evenodd" clip-rule="evenodd" d="M17.627 19.0371C18.7295 20.7962 19.5831 22.6764 20.1875 24.6777C20.4908 26.1216 20.0084 27.1978 18.7402 27.9062C16.5486 28.468 15.3116 27.6269 15.0293 25.3828C15.1929 24.3945 15.4774 23.4421 15.8828 22.5254C16.426 21.34 17.0074 20.1772 17.627 19.0371Z" fill="#60A2D7"/>
<path opacity="0.981" fill-rule="evenodd" clip-rule="evenodd" d="M26.2363 29.502C26.4445 30.1366 26.63 30.7799 26.793 31.4316C26.9538 33.7448 25.8776 34.821 23.5644 34.6602C22.0955 34.1604 21.4399 33.1336 21.5976 31.5801C21.7394 30.8643 21.9497 30.1716 22.2285 29.502C22.8416 28.1769 23.4971 26.8657 24.1953 25.5684C24.918 26.8654 25.5983 28.1766 26.2363 29.502Z" fill="#60A2D7"/>
<path opacity="0.977" fill-rule="evenodd" clip-rule="evenodd" d="M13.1738 29.502C13.7942 30.7076 14.2148 31.9818 14.4355 33.3242C14.3011 34.9801 13.4104 35.8831 11.7637 36.0332C10.1343 35.8882 9.24365 34.9976 9.0918 33.3613C9.3048 32.0048 9.7254 30.7184 10.3535 29.502C10.8026 28.6288 11.2726 27.7629 11.7637 26.9043C12.2547 27.7629 12.7247 28.6288 13.1738 29.502Z" fill="#60A2D7"/>
</g>
<defs>
<clipPath id="clip0_334_2849">
<rect width="38" height="38" fill="white"/>
</clipPath>
</defs>
</svg>
