<svg width="38" height="38" viewBox="0 0 38 38" fill="none" xmlns="http://www.w3.org/2000/svg">
<g clip-path="url(#clip0_334_2755)">
<path opacity="0.955" fill-rule="evenodd" clip-rule="evenodd" d="M18.5918 -0.0371094C18.8392 -0.0371094 19.0866 -0.0371094 19.334 -0.0371094C19.5449 0.136878 19.681 0.359534 19.7422 0.630859C19.7669 1.52148 19.7917 2.41211 19.8164 3.30273C20.4274 2.64202 21.083 2.0359 21.7832 1.48438C22.3668 1.40472 22.7132 1.65212 22.8223 2.22656C22.7814 2.45582 22.6948 2.66611 22.5625 2.85742C21.6472 3.77278 20.7317 4.68815 19.8164 5.60352C19.7793 8.30003 19.7669 10.9966 19.7793 13.6934C20.6499 13.8011 21.4292 14.1226 22.1172 14.6582C22.5378 14.2376 22.9583 13.8171 23.3789 13.3965C23.2003 11.7381 22.9901 10.0805 22.748 8.42383C22.7595 7.73723 23.1059 7.45275 23.7871 7.57031C23.9974 7.68164 24.1582 7.84247 24.2695 8.05273C24.4675 9.33917 24.6653 10.6257 24.8633 11.9121C25.1849 11.5905 25.5065 11.2689 25.8281 10.9473C26.3345 8.99598 26.8293 7.04156 27.3125 5.08398C27.3637 4.88389 27.475 4.72309 27.6465 4.60156C29.808 4.02716 31.9728 3.47052 34.1406 2.93164C34.623 3.01823 34.9075 3.30273 34.9941 3.78516C34.4552 5.95301 33.8986 8.11775 33.3242 10.2793C33.2027 10.4507 33.0419 10.5621 32.8418 10.6133C30.8842 11.0965 28.9298 11.5913 26.9785 12.0977C26.6569 12.4192 26.3353 12.7409 26.0137 13.0625C27.3001 13.2604 28.5866 13.4583 29.873 13.6562C30.4202 13.9695 30.5315 14.4024 30.207 14.9551C30.023 15.1345 29.8004 15.2087 29.5391 15.1777C27.8695 14.9392 26.1996 14.7289 24.5293 14.5469C24.1087 14.9675 23.6882 15.388 23.2676 15.8086C23.8031 16.4966 24.1247 17.2759 24.2324 18.1465C26.9292 18.1589 29.6257 18.1465 32.3223 18.1094C33.2376 17.194 34.153 16.2786 35.0684 15.3633C35.4901 15.0139 35.8983 15.0263 36.293 15.4004C36.5314 15.7492 36.5314 16.0956 36.293 16.4395C35.7363 16.9961 35.1797 17.5527 34.623 18.1094C35.5137 18.1341 36.4043 18.1589 37.2949 18.1836C37.5663 18.2448 37.7889 18.3809 37.9629 18.5918C37.9629 18.8392 37.9629 19.0866 37.9629 19.334C37.7889 19.5449 37.5663 19.681 37.2949 19.7422C36.4043 19.7669 35.5137 19.7917 34.623 19.8164C35.2044 20.3978 35.7858 20.9792 36.3672 21.5605C36.6204 22.2368 36.3978 22.6574 35.6992 22.8223C35.4658 22.7859 35.2555 22.6993 35.0684 22.5625C34.153 21.6472 33.2376 20.7317 32.3223 19.8164C29.6257 19.7793 26.9292 19.7669 24.2324 19.7793C24.1247 20.6499 23.8031 21.4292 23.2676 22.1172C23.6882 22.5378 24.1087 22.9583 24.5293 23.3789C26.1876 23.2003 27.8452 22.9901 29.502 22.748C30.1541 22.7901 30.4386 23.1364 30.3555 23.7871C30.2441 23.9974 30.0833 24.1582 29.873 24.2695C28.5866 24.4675 27.3001 24.6653 26.0137 24.8633C26.3353 25.1849 26.6569 25.5065 26.9785 25.8281C28.9298 26.3345 30.8842 26.8293 32.8418 27.3125C33.0419 27.3637 33.2027 27.475 33.3242 27.6465C33.8986 29.808 34.4552 31.9728 34.9941 34.1406C34.9075 34.623 34.623 34.9075 34.1406 34.9941C31.9728 34.4552 29.808 33.8986 27.6465 33.3242C27.475 33.2027 27.3637 33.0419 27.3125 32.8418C26.8293 30.8842 26.3345 28.9298 25.8281 26.9785C25.5065 26.6569 25.1849 26.3353 24.8633 26.0137C24.6653 27.3001 24.4675 28.5866 24.2695 29.873C24.0184 30.3757 23.635 30.5117 23.1191 30.2812C22.8468 30.0953 22.7232 29.8356 22.748 29.502C22.9901 27.8452 23.2003 26.1876 23.3789 24.5293C22.9583 24.1087 22.5378 23.6882 22.1172 23.2676C21.4292 23.8031 20.6499 24.1247 19.7793 24.2324C19.7669 26.9292 19.7793 29.6257 19.8164 32.3223C20.7317 33.2376 21.6472 34.153 22.5625 35.0684C22.9203 35.5315 22.8832 35.9644 22.4512 36.3672C22.1151 36.5297 21.7935 36.5049 21.4863 36.293C20.9297 35.7363 20.373 35.1797 19.8164 34.623C19.7917 35.5137 19.7669 36.4043 19.7422 37.2949C19.681 37.5663 19.5449 37.7889 19.334 37.9629C19.0866 37.9629 18.8392 37.9629 18.5918 37.9629C18.3809 37.7889 18.2448 37.5663 18.1836 37.2949C18.1589 36.4043 18.1341 35.5137 18.1094 34.623C17.4984 35.2837 16.8428 35.8899 16.1426 36.4414C15.559 36.521 15.2126 36.2737 15.1035 35.6992C15.1444 35.47 15.2309 35.2597 15.3633 35.0684C16.2786 34.153 17.194 33.2376 18.1094 32.3223C18.1465 29.6257 18.1589 26.9292 18.1465 24.2324C17.2759 24.1247 16.4966 23.8031 15.8086 23.2676C15.388 23.6882 14.9675 24.1087 14.5469 24.5293C14.7254 26.1876 14.9357 27.8452 15.1777 29.502C15.0869 30.3021 14.6663 30.5495 13.916 30.2441C13.815 30.1307 13.7284 30.007 13.6562 29.873C13.4583 28.5866 13.2604 27.3001 13.0625 26.0137C12.7409 26.3353 12.4192 26.6569 12.0977 26.9785C11.5913 28.9298 11.0965 30.8842 10.6133 32.8418C10.5621 33.0419 10.4507 33.2027 10.2793 33.3242C8.11775 33.8986 5.95301 34.4552 3.78516 34.9941C3.30273 34.9075 3.01823 34.623 2.93164 34.1406C3.47052 31.9728 4.02716 29.808 4.60156 27.6465C4.72309 27.475 4.88389 27.3637 5.08398 27.3125C7.04156 26.8293 8.99598 26.3345 10.9473 25.8281C11.2689 25.5065 11.5905 25.1849 11.9121 24.8633C10.6257 24.6653 9.33917 24.4675 8.05273 24.2695C7.54834 24.0156 7.4123 23.6321 7.64453 23.1191C7.83045 22.8468 8.09021 22.7232 8.42383 22.748C10.0805 22.9901 11.7381 23.2003 13.3965 23.3789C13.8171 22.9583 14.2376 22.5378 14.6582 22.1172C14.1226 21.4292 13.8011 20.6499 13.6934 19.7793C10.9966 19.7669 8.30003 19.7793 5.60352 19.8164C4.68815 20.7317 3.77278 21.6472 2.85742 22.5625C2.39281 22.9277 1.95986 22.8905 1.55859 22.4512C1.41016 22.1543 1.41016 21.8574 1.55859 21.5605C2.13997 20.9792 2.72136 20.3978 3.30273 19.8164C2.41211 19.7917 1.52148 19.7669 0.630859 19.7422C0.359534 19.681 0.136878 19.5449 -0.0371094 19.334C-0.0371094 19.0866 -0.0371094 18.8392 -0.0371094 18.5918C0.136878 18.3809 0.359534 18.2448 0.630859 18.1836C1.52148 18.1589 2.41211 18.1341 3.30273 18.1094C2.64202 17.4984 2.0359 16.8428 1.48438 16.1426C1.40472 15.559 1.65212 15.2126 2.22656 15.1035C2.45582 15.1444 2.66611 15.2309 2.85742 15.3633C3.77278 16.2786 4.68815 17.194 5.60352 18.1094C8.30003 18.1465 10.9966 18.1589 13.6934 18.1465C13.8011 17.2759 14.1226 16.4966 14.6582 15.8086C14.2376 15.388 13.8171 14.9675 13.3965 14.5469C11.7262 14.7289 10.0563 14.9392 8.38672 15.1777C7.72751 15.1486 7.45535 14.8023 7.57031 14.1387C7.65693 13.9036 7.81768 13.7429 8.05273 13.6562C9.33917 13.4583 10.6257 13.2604 11.9121 13.0625C11.5905 12.7409 11.2689 12.4192 10.9473 12.0977C8.99598 11.5913 7.04156 11.0965 5.08398 10.6133C4.88389 10.5621 4.72309 10.4507 4.60156 10.2793C4.02716 8.11775 3.47052 5.95301 2.93164 3.78516C3.01823 3.30273 3.30273 3.01823 3.78516 2.93164C5.95301 3.47052 8.11775 4.02716 10.2793 4.60156C10.4507 4.72309 10.5621 4.88389 10.6133 5.08398C11.0965 7.04156 11.5913 8.99598 12.0977 10.9473C12.4192 11.2689 12.7409 11.5905 13.0625 11.9121C13.2604 10.6257 13.4583 9.33917 13.6562 8.05273C13.9729 7.5053 14.4059 7.39401 14.9551 7.71875C15.125 7.92285 15.1993 8.15783 15.1777 8.42383C14.9357 10.0805 14.7254 11.7381 14.5469 13.3965C14.9675 13.8171 15.388 14.2376 15.8086 14.6582C16.4966 14.1226 17.2759 13.8011 18.1465 13.6934C18.1589 10.9966 18.1465 8.30003 18.1094 5.60352C17.194 4.68815 16.2786 3.77278 15.3633 2.85742C15.0139 2.43571 15.0263 2.02751 15.4004 1.63281C15.7492 1.3944 16.0956 1.3944 16.4395 1.63281C16.9961 2.18945 17.5527 2.74609 18.1094 3.30273C18.1341 2.41211 18.1589 1.52148 18.1836 0.630859C18.2448 0.359534 18.3809 0.136878 18.5918 -0.0371094Z" fill="#A3D4F7"/>
<path fill-rule="evenodd" clip-rule="evenodd" d="M4.86133 4.86133C6.31837 5.2194 7.77798 5.56576 9.24023 5.90039C9.59834 7.35743 9.94464 8.81704 10.2793 10.2793C8.82238 9.92127 7.36273 9.57489 5.90039 9.24023C5.56576 7.77798 5.2194 6.31837 4.86133 4.86133Z" fill="#B6F8FD"/>
<path fill-rule="evenodd" clip-rule="evenodd" d="M32.6934 4.86133C32.8171 4.86133 32.9407 4.86133 33.0645 4.86133C32.765 6.30666 32.4186 7.74154 32.0254 9.16602C30.5746 9.57199 29.115 9.94309 27.6465 10.2793C27.9827 8.8108 28.3538 7.35114 28.7598 5.90039C30.0824 5.56366 31.3936 5.2173 32.6934 4.86133Z" fill="#B6F8FD"/>
<path fill-rule="evenodd" clip-rule="evenodd" d="M18.2207 15.1778C20.5251 15.0235 22.0218 16.0377 22.711 18.2207C22.9397 20.475 21.9873 21.947 19.8535 22.6367C18.1747 22.9927 16.8264 22.4855 15.8086 21.1153C14.6798 19.0567 15.0137 17.2879 16.8106 15.8086C17.2524 15.5178 17.7224 15.3075 18.2207 15.1778Z" fill="#B6F8FD"/>
<path fill-rule="evenodd" clip-rule="evenodd" d="M9.98242 27.6465C10.0814 27.6465 10.1804 27.6465 10.2793 27.6465C9.94309 29.115 9.57199 30.5746 9.16602 32.0254C7.74139 32.4187 6.30646 32.7651 4.86133 33.0645C5.16075 31.6193 5.50711 30.1844 5.90039 28.7598C7.27068 28.3988 8.63134 28.0277 9.98242 27.6465Z" fill="#B6F8FD"/>
<path fill-rule="evenodd" clip-rule="evenodd" d="M27.6465 27.6465C29.115 27.9827 30.5746 28.3538 32.0254 28.7598C32.4187 30.1844 32.7651 31.6193 33.0645 33.0645C31.6193 32.7651 30.1844 32.4187 28.7598 32.0254C28.3538 30.5746 27.9827 29.115 27.6465 27.6465Z" fill="#B6F8FD"/>
</g>
<defs>
<clipPath id="clip0_334_2755">
<rect width="38" height="38" fill="white"/>
</clipPath>
</defs>
</svg>
