<svg width="38" height="38" viewBox="0 0 38 38" fill="none" xmlns="http://www.w3.org/2000/svg">
<g clip-path="url(#clip0_334_2819)">
<path opacity="0.989" fill-rule="evenodd" clip-rule="evenodd" d="M37.9629 19.334C37.9629 20.002 37.9629 20.6699 37.9629 21.3379C37.8216 22.1083 37.5741 22.8505 37.2207 23.5645C35.4186 20.5732 32.7714 19.3115 29.2793 19.7793C28.8397 17.7685 27.677 16.3459 25.791 15.5117C24.2505 14.9567 22.7166 14.969 21.1895 15.5488C21.1399 15.5241 21.0905 15.4993 21.041 15.4746C19.6243 12.3036 17.1751 10.6213 13.6934 10.4277C10.401 10.5678 8.01362 12.1017 6.53125 15.0293C5.69583 16.9749 5.60924 18.9541 6.27148 20.9668C3.89853 21.1663 2.0678 22.2549 0.779297 24.2324C0.37232 23.5059 0.100184 22.7389 -0.0371094 21.9316C-0.0371094 21.2884 -0.0371094 20.6452 -0.0371094 20.002C0.691714 16.6634 2.75747 14.7833 6.16016 14.3613C5.22963 10.9452 6.05841 8.03834 8.64648 5.64063C11.8176 3.3434 15.0585 3.24445 18.3691 5.34375C19.6364 6.31372 20.5641 7.53833 21.1523 9.01758C23.4484 8.08643 25.5636 8.39563 27.498 9.94531C28.4119 10.8202 29.0304 11.8717 29.3535 13.0996C32.4648 12.7299 34.9511 13.7937 36.8125 16.291C37.4086 17.2339 37.792 18.2482 37.9629 19.334Z" fill="#60A2D7"/>
<path opacity="0.997" fill-rule="evenodd" clip-rule="evenodd" d="M37.2207 23.5645C37.5599 24.3097 37.8073 25.0767 37.9629 25.8652C37.9629 26.5332 37.9629 27.2012 37.9629 27.8691C37.2436 31.3714 35.116 33.4373 31.5801 34.0664C22.7956 34.1397 14.0131 34.1149 5.23242 33.9922C2.31761 33.2423 0.561101 31.3992 -0.0371094 28.4629C-0.0371094 27.8196 -0.0371094 27.1765 -0.0371094 26.5332C0.12976 25.7361 0.401896 24.9692 0.779297 24.2324C2.0678 22.2549 3.89853 21.1663 6.27148 20.9668C5.60924 18.9541 5.69583 16.9749 6.53125 15.0293C8.01362 12.1017 10.401 10.5678 13.6934 10.4277C17.1751 10.6213 19.6243 12.3036 21.041 15.4746C21.0905 15.4993 21.1399 15.5241 21.1895 15.5488C22.7166 14.969 24.2505 14.9567 25.791 15.5117C27.677 16.3459 28.8397 17.7685 29.2793 19.7793C32.7714 19.3115 35.4186 20.5732 37.2207 23.5645Z" fill="#A2D3F6"/>
<path opacity="0.991" fill-rule="evenodd" clip-rule="evenodd" d="M15.6055 26.2046C17.3125 26.2541 19.0195 26.3035 20.7266 26.353C19.6114 28.0861 18.4981 29.8178 17.3867 31.5483C15.9829 33.7442 14.548 35.9213 13.082 38.0796C13.4614 35.9099 13.882 33.7328 14.3438 31.5483C14.5545 30.668 14.7276 29.7774 14.8633 28.8765C12.9087 28.8888 10.9543 28.8765 9 28.8393C9.90302 26.2416 10.7689 23.6316 11.5977 21.0093C13.3549 20.9846 15.1114 21.0093 16.8672 21.0835C16.4115 22.7826 15.9909 24.4897 15.6055 26.2046Z" fill="#FEA754"/>
</g>
<defs>
<clipPath id="clip0_334_2819">
<rect width="38" height="38" fill="white"/>
</clipPath>
</defs>
</svg>
