<svg width="40" height="40" viewBox="0 0 40 40" fill="none" xmlns="http://www.w3.org/2000/svg">
<path d="M14.8435 38.862C14.6506 38.9531 14.4439 39 14.2351 39H7.06684C6.85807 39 6.65136 38.9531 6.45849 38.862C6.26561 38.7709 6.09037 38.6373 5.94275 38.4689C5.79513 38.3005 5.67804 38.1007 5.59815 37.8807C5.51826 37.6607 5.47714 37.4249 5.47714 37.1868V22.4029H3.43881C3.0826 22.4156 2.72857 22.335 2.40396 22.1672C2.07934 21.9994 1.79277 21.749 1.56629 21.4351C1.36322 21.1634 1.20936 20.8484 1.1136 20.5085C1.01784 20.1685 0.98208 19.8103 1.00838 19.4545C1.03467 19.0987 1.12251 18.7524 1.26681 18.4355C1.41112 18.1187 1.60903 17.8376 1.84912 17.6084L18.1655 1.80115C18.6954 1.28412 19.3699 1 20.0672 1C20.7646 1 21.4391 1.28412 21.969 1.80115L38.1879 17.6084H38.1488C38.5247 17.9677 38.794 18.4506 38.9201 18.9912C39.0461 19.5317 39.0226 20.1034 38.8529 20.6282C38.6832 21.1529 38.3755 21.6051 37.9719 21.9227C37.5683 22.2404 37.0885 22.4081 36.5982 22.4029H34.5988V37.1868C34.5988 37.4249 34.5577 37.6607 34.4778 37.8807C34.3979 38.1007 34.2808 38.3005 34.1332 38.4689C33.9856 38.6373 33.8104 38.7709 33.6175 38.862C33.4246 38.9531 33.2179 39 33.0091 39H25.8409C25.6321 39 25.4254 38.9531 25.2325 38.862M14.8435 38.862C15.0363 38.7709 15.2116 38.6373 15.3592 38.4689C15.5068 38.3005 15.6239 38.1007 15.7038 37.8807C15.7837 37.6607 15.8248 37.4249 15.8248 37.1868V28.0873C15.8248 27.7923 15.9276 27.5093 16.1105 27.3007C16.2934 27.0921 16.5414 26.9749 16.8001 26.9749H23.2759C23.5346 26.9749 23.7826 27.0921 23.9655 27.3007C24.1484 27.5093 24.2512 27.7923 24.2512 28.0873V37.1868C24.2512 37.4249 24.2923 37.6607 24.3722 37.8807C24.4521 38.1007 24.5692 38.3005 24.7168 38.4689C24.8644 38.6373 25.0397 38.7709 25.2325 38.862M14.8435 38.862H25.2325" stroke="#6596B9" stroke-linecap="round" stroke-linejoin="round"/>
</svg>
