<svg width="40" height="40" viewBox="0 0 40 40" fill="none" xmlns="http://www.w3.org/2000/svg">
<path d="M18.8281 5.9375H21.1719C21.3802 5.9375 21.4844 6.04167 21.4844 6.25V33.75C21.4844 33.9583 21.3802 34.0625 21.1719 34.0625H18.8281C18.6198 34.0625 18.5156 33.9583 18.5156 33.75V6.25C18.5156 6.04167 18.6198 5.9375 18.8281 5.9375Z" fill="#9FBED4"/>
<path d="M6.875 18.5156H33.125C33.3333 18.5156 33.4375 18.6198 33.4375 18.8281V21.1719C33.4375 21.3802 33.3333 21.4844 33.125 21.4844H6.875C6.66667 21.4844 6.5625 21.3802 6.5625 21.1719V18.8281C6.5625 18.6198 6.66667 18.5156 6.875 18.5156Z" fill="#9FBED4"/>
</svg>
