<svg width="38" height="38" viewBox="0 0 38 38" fill="none" xmlns="http://www.w3.org/2000/svg">
<g clip-path="url(#clip0_260_120)">
<path opacity="0.935" fill-rule="evenodd" clip-rule="evenodd" d="M18.666 -0.0371094C18.864 -0.0371094 19.0618 -0.0371094 19.2598 -0.0371094C19.4228 0.063389 19.5341 0.211826 19.5938 0.408203C19.6433 2.23893 19.6433 4.06966 19.5938 5.90039C19.1732 6.49414 18.7526 6.49414 18.332 5.90039C18.2825 4.06966 18.2825 2.23893 18.332 0.408203C18.3917 0.211826 18.503 0.063389 18.666 -0.0371094Z" fill="#FCD01F"/>
<path opacity="0.949" fill-rule="evenodd" clip-rule="evenodd" d="M5.38091 5.00977C5.61464 4.98835 5.8373 5.02546 6.04888 5.1211C7.37245 6.44466 8.69604 7.76826 10.0196 9.0918C10.2437 9.65787 10.0582 10.0042 9.46295 10.1309C9.32943 10.1251 9.2057 10.088 9.09185 10.0195C7.76831 8.69599 6.44471 7.3724 5.12115 6.04883C4.91812 5.62331 5.00471 5.27696 5.38091 5.00977Z" fill="#FCD01F"/>
<path opacity="0.949" fill-rule="evenodd" clip-rule="evenodd" d="M32.0255 5.00976C32.7729 4.99631 33.0326 5.34267 32.8048 6.04882C31.4813 7.37239 30.1576 8.69598 28.8341 10.0195C28.3917 10.2324 28.0578 10.1211 27.8321 9.68554C27.7761 9.47751 27.8008 9.27957 27.9064 9.09179C29.2716 7.71414 30.6447 6.35345 32.0255 5.00976Z" fill="#FCD01F"/>
<path opacity="0.992" fill-rule="evenodd" clip-rule="evenodd" d="M18.8887 8.12695C23.8702 8.37113 27.2966 10.7956 29.168 15.4004C30.5358 20.0604 29.4349 24.0311 25.8652 27.3125C22.0974 30.0994 18.0896 30.4952 13.8418 28.5C10.2309 26.3575 8.32593 23.1784 8.12695 18.9629C8.33254 14.6779 10.287 11.4741 13.9902 9.35156C15.5452 8.59171 17.178 8.18351 18.8887 8.12695Z" fill="#FCD01F"/>
<path opacity="0.935" fill-rule="evenodd" clip-rule="evenodd" d="M-0.0371094 19.2598C-0.0371094 19.0618 -0.0371094 18.864 -0.0371094 18.666C0.063389 18.503 0.211826 18.3917 0.408203 18.332C2.23893 18.2825 4.06966 18.2825 5.90039 18.332C6.49414 18.7526 6.49414 19.1732 5.90039 19.5938C4.06966 19.6433 2.23893 19.6433 0.408203 19.5938C0.211826 19.5341 0.063389 19.4228 -0.0371094 19.2598Z" fill="#FCD01F"/>
<path opacity="0.935" fill-rule="evenodd" clip-rule="evenodd" d="M37.9629 18.666C37.9629 18.864 37.9629 19.0618 37.9629 19.2598C37.8624 19.4228 37.714 19.5341 37.5176 19.5938C35.6868 19.6433 33.8561 19.6433 32.0254 19.5938C31.4316 19.1732 31.4316 18.7526 32.0254 18.332C33.8561 18.2825 35.6868 18.2825 37.5176 18.332C37.714 18.3917 37.8624 18.503 37.9629 18.666Z" fill="#FCD01F"/>
<path opacity="0.949" fill-rule="evenodd" clip-rule="evenodd" d="M9.2403 27.7949C9.97321 27.7971 10.233 28.1435 10.0196 28.834C8.67126 30.1823 7.32298 31.5306 5.97467 32.8789C5.15292 32.9974 4.86842 32.6634 5.12115 31.877C6.48641 30.4993 7.85946 29.1386 9.2403 27.7949Z" fill="#FCD01F"/>
<path opacity="0.949" fill-rule="evenodd" clip-rule="evenodd" d="M28.3143 27.7949C28.4991 27.7799 28.6723 27.817 28.8339 27.9063C30.1574 29.2298 31.481 30.5534 32.8046 31.877C33.0573 32.6634 32.7728 32.9974 31.9511 32.8789C30.6027 31.5306 29.2545 30.1823 27.9061 28.834C27.7164 28.3509 27.8524 28.0045 28.3143 27.7949Z" fill="#FCD01F"/>
<path opacity="0.935" fill-rule="evenodd" clip-rule="evenodd" d="M19.2598 37.9629C19.0618 37.9629 18.864 37.9629 18.666 37.9629C18.503 37.8624 18.3917 37.714 18.332 37.5176C18.2825 35.6868 18.2825 33.8561 18.332 32.0254C18.7526 31.4316 19.1732 31.4316 19.5938 32.0254C19.6433 33.8561 19.6433 35.6868 19.5938 37.5176C19.5341 37.714 19.4228 37.8624 19.2598 37.9629Z" fill="#FCD01F"/>
</g>
<defs>
<clipPath id="clip0_260_120">
<rect width="38" height="38" fill="white"/>
</clipPath>
</defs>
</svg>
