<svg width="38" height="38" viewBox="0 0 38 38" fill="none" xmlns="http://www.w3.org/2000/svg">
<g clip-path="url(#clip0_260_150)">
<path opacity="0.921" fill-rule="evenodd" clip-rule="evenodd" d="M22.1543 -0.0371094C22.3769 -0.0371094 22.5996 -0.0371094 22.8222 -0.0371094C22.9778 0.106378 23.0891 0.279555 23.1562 0.482422C23.2057 1.42253 23.2057 2.36263 23.1562 3.30273C22.9756 3.80134 22.6416 3.96215 22.1543 3.78516C21.9488 3.65438 21.8375 3.46884 21.8203 3.22852C21.7517 2.23476 21.7764 1.24517 21.8945 0.259766C21.9966 0.170327 22.0832 0.0713687 22.1543 -0.0371094Z" fill="#FDCF20"/>
<path opacity="0.927" fill-rule="evenodd" clip-rule="evenodd" d="M10.6504 3.15429C10.8841 3.13287 11.1067 3.16998 11.3183 3.26561C12.2214 4.16861 13.1243 5.0716 14.0273 5.9746C14.3135 6.58714 14.128 6.95823 13.4707 7.08788C13.3372 7.08217 13.2134 7.04506 13.0996 6.97655C12.1719 6.04882 11.2441 5.12108 10.3164 4.19335C10.1096 3.74165 10.2209 3.3953 10.6504 3.15429Z" fill="#FCD01F"/>
<path opacity="0.901" fill-rule="evenodd" clip-rule="evenodd" d="M33.8066 3.15429C34.3545 3.06839 34.6762 3.29105 34.7714 3.82225C34.7457 4.04697 34.659 4.24489 34.5116 4.416C33.7076 5.22004 32.9035 6.02408 32.0995 6.82811C31.6164 7.21965 31.2082 7.1578 30.8749 6.64257C30.8163 6.40997 30.841 6.18731 30.9491 5.9746C31.8938 5.01749 32.8463 4.07738 33.8066 3.15429Z" fill="#FCD01F"/>
<path opacity="0.992" fill-rule="evenodd" clip-rule="evenodd" d="M28.6113 22.9707C27.2732 20.2847 25.0961 19.0848 22.0801 19.3711C21.6327 19.4625 21.1998 19.5986 20.7812 19.7793C19.2322 16.3658 16.5728 14.6835 12.8027 14.7324C13.1603 11.3237 14.7931 8.73844 17.7012 6.97656C20.1608 5.66234 22.7336 5.3902 25.4199 6.16015C29.2873 7.55413 31.5262 10.2878 32.1367 14.3613C32.4113 17.8425 31.2361 20.7122 28.6113 22.9707Z" fill="#FCD020"/>
<path opacity="0.996" fill-rule="evenodd" clip-rule="evenodd" d="M12.8027 14.7324C16.5728 14.6835 19.2322 16.3658 20.7812 19.7793C21.1998 19.5986 21.6327 19.4625 22.0801 19.3711C25.0961 19.0848 27.2732 20.2847 28.6113 22.9707C28.6701 23.2461 28.7443 23.5183 28.834 23.7871C31.9986 23.4218 34.4849 24.5351 36.293 27.127C37.7764 29.8342 37.6774 32.4812 35.9961 35.0684C34.7875 36.6687 33.1918 37.6335 31.209 37.9629C22.6243 37.9629 14.0397 37.9629 5.45508 37.9629C2.41211 37.3444 0.58138 35.5137 -0.0371094 32.4707C-0.0371094 31.8274 -0.0371094 31.1843 -0.0371094 30.541C0.714643 27.2666 2.76803 25.4112 6.12305 24.9746C5.18183 21.8 5.87453 19.0416 8.20117 16.6992C9.51677 15.5469 11.0507 14.8913 12.8027 14.7324Z" fill="#A3D3F6"/>
<path opacity="0.955" fill-rule="evenodd" clip-rule="evenodd" d="M37.9629 15.1035C37.9629 15.3014 37.9629 15.4993 37.9629 15.6973C37.8779 15.8438 37.7541 15.9552 37.5918 16.0312C36.528 16.0807 35.4642 16.0807 34.4004 16.0312C33.8947 15.5447 33.9442 15.1241 34.5489 14.7695C35.5137 14.72 36.4785 14.72 37.4434 14.7695C37.6462 14.8366 37.8195 14.9479 37.9629 15.1035Z" fill="#FDD020"/>
</g>
<defs>
<clipPath id="clip0_260_150">
<rect width="38" height="38" fill="white"/>
</clipPath>
</defs>
</svg>
