<svg width="38" height="38" viewBox="0 0 38 38" fill="none" xmlns="http://www.w3.org/2000/svg">
<g clip-path="url(#clip0_260_167)">
<path opacity="0.953" fill-rule="evenodd" clip-rule="evenodd" d="M23.5645 1.22459C23.927 1.17713 24.2114 1.30083 24.418 1.59568C24.4675 2.21417 24.4675 2.83267 24.418 3.45115C24.1427 3.88178 23.784 3.96837 23.3418 3.71092C23.2527 3.64394 23.1908 3.55734 23.1563 3.45115C23.1068 2.8574 23.1068 2.26365 23.1563 1.6699C23.2572 1.48268 23.3932 1.33424 23.5645 1.22459Z" fill="#FDD020"/>
<path opacity="0.917" fill-rule="evenodd" clip-rule="evenodd" d="M33.9551 4.41602C34.678 4.47618 34.9131 4.84728 34.6602 5.5293C34.1778 6.01172 33.6953 6.49414 33.2129 6.97656C32.3738 7.20107 32.0398 6.89183 32.211 6.04883C32.764 5.45816 33.3454 4.91389 33.9551 4.41602Z" fill="#FCD01F"/>
<path opacity="0.99" fill-rule="evenodd" clip-rule="evenodd" d="M32.6934 17.7012C31.1407 16.9455 29.5079 16.6981 27.7949 16.959C27.3072 14.999 26.1197 13.6506 24.2324 12.9141C22.8219 12.4209 21.4365 12.4827 20.0762 13.0996C19.7857 12.5433 19.4765 11.999 19.1484 11.4668C18.6882 10.9365 18.2305 10.417 17.7754 9.90822C20.1177 6.4011 23.3586 5.12701 27.498 6.08596C30.3605 7.04351 32.2531 8.96082 33.1758 11.8379C33.7017 13.8518 33.5409 15.8062 32.6934 17.7012Z" fill="#FCD020"/>
<path opacity="0.995" fill-rule="evenodd" clip-rule="evenodd" d="M17.7754 9.90819C18.2305 10.417 18.6882 10.9365 19.1484 11.4668C19.4765 11.999 19.7857 12.5432 20.0762 13.0996C21.4365 12.4827 22.8219 12.4209 24.2324 12.914C26.1197 13.6506 27.3072 14.9989 27.7949 16.959C29.5079 16.6981 31.1407 16.9455 32.6934 17.7012C35.2252 19.3018 36.3261 21.6025 35.9961 24.6035C35.3482 27.7749 33.4308 29.6427 30.2441 30.207C28.7352 30.2441 27.2261 30.2565 25.7168 30.2441C25.1488 28.9348 24.5179 27.6483 23.8242 26.3847C23.1073 27.6457 22.4516 28.9321 21.8574 30.2441C18.8887 30.2441 15.9199 30.2441 12.9512 30.2441C12.4859 29.4167 12.0282 28.5755 11.5781 27.7207C11.0995 28.5545 10.6418 29.3957 10.2051 30.2441C8.52261 30.2565 6.84031 30.2441 5.1582 30.207C2.3333 29.621 0.60153 27.9263 -0.0371094 25.123C-0.0371094 24.5046 -0.0371094 23.886 -0.0371094 23.2676C0.683076 20.0617 2.68699 18.3175 5.97461 18.0351C5.05787 14.9466 5.77531 12.2994 8.12695 10.0937C11.3013 7.74849 14.5174 7.68667 17.7754 9.90819Z" fill="#A3D3F6"/>
<path opacity="0.921" fill-rule="evenodd" clip-rule="evenodd" d="M37.9629 13.8418C37.9629 14.0398 37.9629 14.2376 37.9629 14.4356C37.8779 14.5821 37.7541 14.6935 37.5918 14.7695C36.9734 14.8191 36.3548 14.8191 35.7363 14.7695C35.2415 14.349 35.2415 13.9284 35.7363 13.5078C36.3548 13.4583 36.9734 13.4583 37.5918 13.5078C37.7541 13.5839 37.8779 13.6952 37.9629 13.8418Z" fill="#FCD01F"/>
<path fill-rule="evenodd" clip-rule="evenodd" d="M17.3301 20.002C18.3514 21.6244 19.1554 23.3562 19.7422 25.1973C20.1571 26.3594 19.9468 27.3861 19.1114 28.2773C18.255 28.9342 17.3148 29.0826 16.2911 28.7227C15.1249 28.06 14.6424 27.0581 14.8438 25.7168C15.4291 23.7052 16.2579 21.8002 17.3301 20.002Z" fill="#60A2D7"/>
<path opacity="0.98" fill-rule="evenodd" clip-rule="evenodd" d="M25.7167 30.2441C26.1977 31.2292 26.4079 32.2682 26.3475 33.3613C25.8492 34.9531 24.773 35.6087 23.119 35.3281C21.6919 34.8382 21.0611 33.8363 21.2264 32.3223C21.3851 31.6113 21.5955 30.9186 21.8573 30.2441C22.4515 28.9321 23.1071 27.6457 23.8241 26.3848C24.5178 27.6483 25.1487 28.9348 25.7167 30.2441Z" fill="#60A2D7"/>
<path opacity="0.977" fill-rule="evenodd" clip-rule="evenodd" d="M12.951 30.2441C13.4439 31.265 13.8273 32.3288 14.1014 33.4355C14.3377 34.9555 13.7563 36.0069 12.3572 36.5898C10.7689 36.9153 9.66805 36.3339 9.05449 34.8457C8.91087 34.3257 8.91087 33.8061 9.05449 33.2871C9.32873 32.229 9.71221 31.2147 10.2049 30.2441C10.6416 29.3957 11.0993 28.5546 11.5779 27.7207C12.028 28.5756 12.4857 29.4168 12.951 30.2441Z" fill="#60A2D7"/>
</g>
<defs>
<clipPath id="clip0_260_167">
<rect width="38" height="38" fill="white"/>
</clipPath>
</defs>
</svg>
