<svg width="64" height="64" viewBox="0 0 64 64" fill="none" xmlns="http://www.w3.org/2000/svg">
<g clip-path="url(#clip0_63_1915)">
<path opacity="0.921" fill-rule="evenodd" clip-rule="evenodd" d="M37.3127 -0.0625C37.6877 -0.0625 38.0627 -0.0625 38.4377 -0.0625C38.6997 0.179164 38.8872 0.47083 39.0002 0.8125C39.0836 2.39584 39.0836 3.97916 39.0002 5.5625C38.6959 6.40225 38.1334 6.67309 37.3127 6.375C36.9667 6.15475 36.7792 5.84225 36.7502 5.4375C36.6347 3.7638 36.6763 2.09713 36.8752 0.4375C37.0472 0.286866 37.1929 0.1202 37.3127 -0.0625Z" fill="#FDCF20"/>
<path opacity="0.927" fill-rule="evenodd" clip-rule="evenodd" d="M17.9374 5.31251C18.331 5.27644 18.706 5.33894 19.0624 5.50001C20.5832 7.02085 22.104 8.54168 23.6249 10.0625C24.1069 11.0942 23.7944 11.7192 22.6874 11.9375C22.4625 11.9279 22.2541 11.8654 22.0624 11.75C20.4999 10.1875 18.9374 8.62501 17.3749 7.06251C17.0266 6.30176 17.2141 5.71843 17.9374 5.31251Z" fill="#FCD01F"/>
<path opacity="0.901" fill-rule="evenodd" clip-rule="evenodd" d="M56.9373 5.31249C57.8602 5.16783 58.402 5.54283 58.5623 6.43749C58.519 6.81595 58.3731 7.14929 58.1248 7.43749C56.7707 8.79165 55.4165 10.1458 54.0623 11.5C53.2486 12.1594 52.5611 12.0553 51.9998 11.1875C51.9011 10.7957 51.9427 10.4207 52.1248 10.0625C53.7158 8.45052 55.3201 6.86718 56.9373 5.31249Z" fill="#FCD01F"/>
<path opacity="0.992" fill-rule="evenodd" clip-rule="evenodd" d="M48.1875 38.6875C45.9338 34.1638 42.2671 32.1429 37.1875 32.625C36.434 32.779 35.7049 33.0081 35 33.3125C32.3911 27.5634 27.912 24.7301 21.5625 24.8125C22.1647 19.0715 24.9148 14.7174 29.8125 11.75C33.955 9.5366 38.2882 9.07826 42.8125 10.375C49.326 12.7228 53.0968 17.3269 54.125 24.1875C54.5874 30.0505 52.6081 34.8838 48.1875 38.6875Z" fill="#FCD020"/>
<path opacity="0.996" fill-rule="evenodd" clip-rule="evenodd" d="M21.5625 24.8125C27.912 24.7301 32.3911 27.5634 35 33.3125C35.7049 33.0081 36.434 32.779 37.1875 32.625C42.2671 32.1429 45.9337 34.1637 48.1875 38.6875C48.2865 39.1514 48.4115 39.6097 48.5625 40.0625C53.8924 39.4472 58.0799 41.3222 61.125 45.6875C63.6234 50.247 63.4566 54.7052 60.625 59.0625C58.5895 61.7577 55.902 63.3827 52.5625 63.9375C38.1041 63.9375 23.6459 63.9375 9.1875 63.9375C4.0625 62.8959 0.979166 59.8125 -0.0625 54.6875C-0.0625 53.6041 -0.0625 52.5209 -0.0625 51.4375C1.20361 45.9227 4.66195 42.7977 10.3125 42.0625C8.72729 36.7159 9.89395 32.07 13.8125 28.125C16.0282 26.1842 18.6116 25.0801 21.5625 24.8125Z" fill="#A3D3F6"/>
<path opacity="0.955" fill-rule="evenodd" clip-rule="evenodd" d="M63.9373 25.4375C63.9373 25.7709 63.9373 26.1042 63.9373 26.4375C63.7941 26.6844 63.5857 26.8719 63.3123 27C61.5207 27.0834 59.729 27.0834 57.9373 27C57.0856 26.1807 57.169 25.4723 58.1873 24.875C59.8123 24.7917 61.4373 24.7917 63.0623 24.875C63.404 24.988 63.6957 25.1755 63.9373 25.4375Z" fill="#FDD020"/>
</g>
<defs>
<clipPath id="clip0_63_1915">
<rect width="64" height="64" fill="white"/>
</clipPath>
</defs>
</svg>
