<svg width="64" height="64" viewBox="0 0 64 64" fill="none" xmlns="http://www.w3.org/2000/svg">
<g clip-path="url(#clip0_102_2871)">
<path opacity="0.987" fill-rule="evenodd" clip-rule="evenodd" d="M44.0626 -0.0625C45.6459 -0.0625 47.2292 -0.0625 48.8126 -0.0625C49.8494 0.111171 50.8911 0.340339 51.9376 0.625C45.4376 3.64315 42.3334 8.74731 42.6251 15.9375C43.5847 22.1049 47.0222 26.1674 52.9376 28.125C56.8371 29.1758 60.5037 28.655 63.9376 26.5625C63.9376 26.6875 63.9376 26.8125 63.9376 26.9375C61.2993 33.6994 56.4243 37.866 49.3126 39.4375C48.0339 35.2635 45.2423 32.7844 40.9376 32C39.0862 31.7704 37.3153 32.0412 35.6251 32.8125C33.8856 28.886 30.9897 26.1776 26.9376 24.6875C26.9376 24.6041 26.8959 24.5625 26.8126 24.5625C25.2653 16.6425 27.4319 9.955 33.3126 4.5C36.4604 1.94404 40.0438 0.423203 44.0626 -0.0625Z" fill="#FBE566"/>
<path opacity="0.945" fill-rule="evenodd" clip-rule="evenodd" d="M56.0625 6.56248C56.172 6.54612 56.2554 6.58779 56.3125 6.68748C56.8301 7.82326 57.3717 8.94826 57.9375 10.0625C59.2206 10.3321 60.5122 10.5613 61.8125 10.75C60.9622 11.7254 60.0664 12.6629 59.125 13.5625C59.2099 14.8847 59.3974 16.1972 59.6875 17.5C59.6459 17.5625 59.6041 17.625 59.5625 17.6875C58.4576 17.0307 57.3326 16.4057 56.1875 15.8125C55.0424 16.4057 53.9174 17.0307 52.8125 17.6875C52.7709 17.6459 52.7291 17.6041 52.6875 17.5625C52.9706 16.2391 53.1581 14.9057 53.25 13.5625C52.3086 12.6629 51.4128 11.7254 50.5625 10.75C51.8628 10.5613 53.1544 10.3321 54.4375 10.0625C55.049 8.92312 55.5906 7.75644 56.0625 6.56248Z" fill="#FEDE3C"/>
<path opacity="0.996" fill-rule="evenodd" clip-rule="evenodd" d="M26.8125 24.5625C26.8959 24.5625 26.9375 24.6041 26.9375 24.6875C30.9896 26.1776 33.8855 28.886 35.625 32.8125C37.3153 32.0413 39.0861 31.7704 40.9375 32C45.2422 32.7844 48.0339 35.2635 49.3125 39.4375C49.3105 39.6855 49.4355 39.8105 49.6875 39.8125C55.1572 39.1206 59.3864 41.079 62.375 45.6875C63.1866 47.1474 63.7075 48.6891 63.9375 50.3125C63.9375 51.3125 63.9375 52.3125 63.9375 53.3125C62.7841 59.1741 59.2841 62.7159 53.4375 63.9375C38.7291 63.9375 24.0209 63.9375 9.3125 63.9375C4.08974 62.8398 0.964733 59.6731 -0.0625 54.4375C-0.0625 53.4375 -0.0625 52.4375 -0.0625 51.4375C1.14236 45.671 4.68402 42.4419 10.5625 41.75C8.88856 36.3835 10.0136 31.696 13.9375 27.6875C17.6686 24.4074 21.9603 23.3656 26.8125 24.5625Z" fill="#A3D4F6"/>
</g>
<defs>
<clipPath id="clip0_102_2871">
<rect width="64" height="64" fill="white"/>
</clipPath>
</defs>
</svg>
