<svg width="64" height="64" viewBox="0 0 64 64" fill="none" xmlns="http://www.w3.org/2000/svg">
<g clip-path="url(#clip0_63_1928)">
<path opacity="0.935" fill-rule="evenodd" clip-rule="evenodd" d="M31.4375 -0.0625C31.7709 -0.0625 32.1042 -0.0625 32.4375 -0.0625C32.712 0.106761 32.8995 0.35676 33 0.6875C33.0834 3.77084 33.0834 6.85416 33 9.9375C32.2917 10.9375 31.5834 10.9375 30.875 9.9375C30.7917 6.85416 30.7917 3.77084 30.875 0.6875C30.9755 0.35676 31.163 0.106761 31.4375 -0.0625Z" fill="#FCD01F"/>
<path opacity="0.949" fill-rule="evenodd" clip-rule="evenodd" d="M9.06259 8.43751C9.45624 8.40144 9.83124 8.46394 10.1876 8.62501C12.4168 10.8542 14.646 13.0834 16.8751 15.3125C17.2526 16.2659 16.9401 16.8491 15.9376 17.0625C15.7127 17.0529 15.5043 16.9904 15.3126 16.875C13.0835 14.6459 10.8543 12.4167 8.62509 10.1875C8.28316 9.47085 8.42898 8.88751 9.06259 8.43751Z" fill="#FCD01F"/>
<path opacity="0.949" fill-rule="evenodd" clip-rule="evenodd" d="M53.9373 8.43752C55.196 8.41487 55.6335 8.99821 55.2498 10.1875C53.0207 12.4167 50.7914 14.6459 48.5623 16.875C47.8173 17.2335 47.2548 17.046 46.8748 16.3125C46.7804 15.9621 46.822 15.6288 46.9998 15.3125C49.2992 12.9923 51.6117 10.7006 53.9373 8.43752Z" fill="#FCD01F"/>
<path opacity="0.992" fill-rule="evenodd" clip-rule="evenodd" d="M31.8125 13.6875C40.2024 14.0987 45.9733 18.1821 49.125 25.9375C51.4287 33.7859 49.5745 40.4734 43.5625 46C37.2166 50.6937 30.4666 51.3604 23.3125 48C17.231 44.3915 14.0226 39.0374 13.6875 31.9375C14.0337 24.7207 17.3255 19.3249 23.5625 15.75C26.1814 14.4703 28.9314 13.7828 31.8125 13.6875Z" fill="#FCD01F"/>
<path opacity="0.935" fill-rule="evenodd" clip-rule="evenodd" d="M-0.0625 32.4375C-0.0625 32.1041 -0.0625 31.7708 -0.0625 31.4375C0.106761 31.163 0.35676 30.9755 0.6875 30.875C3.77084 30.7916 6.85416 30.7916 9.9375 30.875C10.9375 31.5833 10.9375 32.2916 9.9375 33C6.85416 33.0833 3.77084 33.0833 0.6875 33C0.35676 32.8995 0.106761 32.712 -0.0625 32.4375Z" fill="#FCD01F"/>
<path opacity="0.935" fill-rule="evenodd" clip-rule="evenodd" d="M63.9375 31.4375C63.9375 31.7708 63.9375 32.1041 63.9375 32.4375C63.7683 32.712 63.5182 32.8995 63.1875 33C60.1041 33.0833 57.0209 33.0833 53.9375 33C52.9375 32.2916 52.9375 31.5833 53.9375 30.875C57.0209 30.7916 60.1041 30.7916 63.1875 30.875C63.5182 30.9755 63.7683 31.163 63.9375 31.4375Z" fill="#FCD01F"/>
<path opacity="0.949" fill-rule="evenodd" clip-rule="evenodd" d="M15.5623 46.8125C16.7967 46.8161 17.2342 47.3995 16.8748 48.5625C14.6039 50.8334 12.3331 53.1041 10.0623 55.375C8.67829 55.5746 8.19913 55.0121 8.62479 53.6875C10.9242 51.3672 13.2367 49.0755 15.5623 46.8125Z" fill="#FCD01F"/>
<path opacity="0.949" fill-rule="evenodd" clip-rule="evenodd" d="M47.6875 46.8125C47.9986 46.7872 48.2904 46.8497 48.5625 47C50.7916 49.2291 53.0209 51.4583 55.25 53.6875C55.6756 55.0121 55.1965 55.5746 53.8125 55.375C51.5416 53.1041 49.2709 50.8333 47 48.5625C46.6804 47.7488 46.9095 47.1655 47.6875 46.8125Z" fill="#FCD01F"/>
<path opacity="0.935" fill-rule="evenodd" clip-rule="evenodd" d="M32.4375 63.9375C32.1042 63.9375 31.7709 63.9375 31.4375 63.9375C31.163 63.7683 30.9755 63.5182 30.875 63.1875C30.7917 60.1041 30.7917 57.0209 30.875 53.9375C31.5834 52.9375 32.2917 52.9375 33 53.9375C33.0834 57.0209 33.0834 60.1041 33 63.1875C32.8995 63.5182 32.712 63.7683 32.4375 63.9375Z" fill="#FCD01F"/>
</g>
<defs>
<clipPath id="clip0_63_1928">
<rect width="64" height="64" fill="white"/>
</clipPath>
</defs>
</svg>
