<svg width="38" height="38" viewBox="0 0 38 38" fill="none" xmlns="http://www.w3.org/2000/svg">
<g clip-path="url(#clip0_343_3012)">
<path opacity="0.993" fill-rule="evenodd" clip-rule="evenodd" d="M37.9629 16.0684C37.9629 16.7116 37.9629 17.3548 37.9629 17.9981C37.4569 20.776 35.8983 22.718 33.2871 23.8242C32.8263 23.9828 32.3563 24.1064 31.877 24.1953C30.4191 24.2926 28.9595 24.3298 27.498 24.3067C27.5104 21.5604 27.498 18.8143 27.4609 16.0684C27.0438 15.1375 26.3635 14.8777 25.4199 15.2891C25.1524 15.4901 24.9669 15.7498 24.8633 16.0684C24.8262 18.8143 24.8138 21.5604 24.8262 24.3067C23.9851 24.3067 23.1439 24.3067 22.3027 24.3067C22.241 22.2164 22.2039 20.1135 22.1914 17.9981C21.7868 17.1093 21.1312 16.8495 20.2246 17.2188C19.9825 17.4112 19.797 17.6462 19.668 17.9239C19.655 20.0568 19.6179 22.1844 19.5566 24.3067C18.7155 24.3067 17.8743 24.3067 17.0332 24.3067C16.9718 21.5164 16.9347 18.7208 16.9219 15.92C16.579 15.2195 16.0223 14.9597 15.252 15.1407C14.8233 15.3176 14.5389 15.6269 14.3984 16.0684C14.3613 18.8143 14.3489 21.5604 14.3613 24.3067C13.4954 24.3067 12.6296 24.3067 11.7637 24.3067C11.7761 22.1047 11.7637 19.9029 11.7266 17.7012C11.3094 16.7703 10.6291 16.5105 9.68555 16.9219C9.3975 17.1392 9.21196 17.4237 9.12891 17.7754C9.0918 19.9523 9.0794 22.1295 9.0918 24.3067C7.87743 24.3294 6.66522 24.2923 5.45508 24.1953C2.41519 23.5429 0.584458 21.6997 -0.0371094 18.666C-0.0371094 18.0228 -0.0371094 17.3796 -0.0371094 16.7364C0.696492 13.3808 2.77462 11.5005 6.19727 11.0957C5.27872 7.88006 5.97143 5.07208 8.27539 2.67191C10.8827 0.47828 13.7772 0.00822747 16.959 1.26175C18.9387 2.16888 20.2993 3.64089 21.041 5.67777C23.7216 4.70704 26.0595 5.22657 28.0547 7.23636C28.6836 7.99948 29.1166 8.86539 29.3535 9.83402C32.2003 9.47546 34.563 10.3661 36.4414 12.5059C37.2459 13.5725 37.7531 14.76 37.9629 16.0684Z" fill="#CFD9D8"/>
<path opacity="0.986" fill-rule="evenodd" clip-rule="evenodd" d="M17.0332 27.1884C17.0456 30.3126 17.0332 33.4367 16.9961 36.5607C16.6768 37.287 16.046 37.528 15.1035 37.2839C14.7586 37.1621 14.5236 36.9596 14.3984 36.6765C14.3613 33.5138 14.3489 30.3512 14.3613 27.1884C14.3489 25.0477 14.3613 22.9071 14.3984 20.7666C14.5389 20.4224 14.8234 20.1814 15.252 20.0434C16.0224 19.9024 16.579 20.1049 16.9219 20.6509C16.9347 22.8342 16.9718 25.0134 17.0332 27.1884Z" fill="#60A2D7"/>
<path opacity="0.986" fill-rule="evenodd" clip-rule="evenodd" d="M27.4981 24.3067C27.5105 28.3393 27.4981 32.3719 27.4609 36.4043C27.0458 37.3347 26.3654 37.5944 25.4199 37.1836C25.1458 36.9842 24.9602 36.7244 24.8633 36.4043C24.8262 32.3719 24.8138 28.3393 24.8262 24.3067C24.8138 21.5604 24.8262 18.8143 24.8633 16.0684C24.9669 15.7499 25.1524 15.4901 25.4199 15.2891C26.3635 14.8777 27.0438 15.1375 27.4609 16.0684C27.4981 18.8143 27.5105 21.5604 27.4981 24.3067Z" fill="#60A2D7"/>
<path opacity="0.986" fill-rule="evenodd" clip-rule="evenodd" d="M11.7637 24.3067C11.7761 27.5724 11.7637 30.838 11.7266 34.1036C11.3239 35.0523 10.6436 35.3121 9.68556 34.8829C9.41139 34.6834 9.22585 34.4237 9.12892 34.1036C9.09181 30.838 9.07941 27.5724 9.09181 24.3067C9.07941 22.1295 9.09181 19.9523 9.12892 17.7754C9.21197 17.4237 9.39751 17.1392 9.68556 16.9219C10.6291 16.5105 11.3094 16.7703 11.7266 17.7012C11.7637 19.9029 11.7761 22.1047 11.7637 24.3067Z" fill="#60A2D7"/>
<path opacity="0.971" fill-rule="evenodd" clip-rule="evenodd" d="M22.3027 24.3066C22.3151 27.5723 22.3027 30.8379 22.2656 34.1035C22.0897 35.1501 21.4836 35.5583 20.4473 35.3281C19.9717 35.1242 19.6871 34.7655 19.5938 34.2519C19.5567 30.9369 19.5443 27.6218 19.5567 24.3066C19.6179 22.1843 19.655 20.0568 19.668 17.9238C19.797 17.6461 19.9825 17.4111 20.2246 17.2187C21.1312 16.8495 21.7868 17.1092 22.1914 17.998C22.2039 20.1135 22.241 22.2163 22.3027 24.3066Z" fill="#60A2D7"/>
<path opacity="0.991" fill-rule="evenodd" clip-rule="evenodd" d="M17.0696 19.5709C18.3797 19.6144 19.6899 19.6578 21 19.7012C20.1441 21.2233 19.2897 22.7442 18.4367 24.264C17.3593 26.1925 16.258 28.1045 15.1329 30C15.4241 28.0945 15.7469 26.1825 16.1013 24.264C16.263 23.4909 16.3959 22.7087 16.5 21.9174C14.9999 21.9283 13.4999 21.9174 12 21.8848C12.6931 19.6034 13.3576 17.3111 13.9937 15.0081C15.3423 14.9864 16.6904 15.0081 18.038 15.0733C17.6882 16.5656 17.3654 18.0648 17.0696 19.5709Z" fill="#FEA754"/>
</g>
<defs>
<clipPath id="clip0_343_3012">
<rect width="38" height="38" fill="white"/>
</clipPath>
</defs>
</svg>
