<svg width="38" height="38" viewBox="0 0 38 38" fill="none" xmlns="http://www.w3.org/2000/svg">
<g clip-path="url(#clip0_343_3071)">
<path opacity="0.993" fill-rule="evenodd" clip-rule="evenodd" d="M17.7754 9.31443C18.2203 9.77184 18.6533 10.2419 19.0742 10.7246C19.4478 11.2742 19.7817 11.8432 20.0762 12.4316C21.0247 12.0161 22.0142 11.8799 23.0449 12.0234C25.5554 12.4188 27.1387 13.8413 27.7949 16.291C29.5198 16.0337 31.1527 16.3058 32.6934 17.1074C33.1609 17.3169 33.5815 17.6014 33.9551 17.9609C36.2756 20.459 36.6838 23.2422 35.1797 26.3105C33.8868 28.3673 32.0189 29.4682 29.5762 29.6133C26.8054 29.6504 24.0346 29.6628 21.2637 29.6504C22.0756 28.3368 22.9167 27.0379 23.7871 25.7539C22.0802 25.7168 20.3732 25.7044 18.666 25.7168C19.0461 24.011 19.4667 22.3163 19.9277 20.6328C18.1961 20.5957 16.4644 20.5833 14.7324 20.5957C13.9215 23.1521 13.0804 25.7004 12.209 28.2402C14.138 28.3144 16.0677 28.3391 17.998 28.3144C17.9272 28.768 17.8282 29.2133 17.7012 29.6504C13.7428 29.6628 9.78441 29.6504 5.82617 29.6133C3.0683 29.3922 1.20046 27.9944 0.222656 25.4199C0.139545 25.0878 0.0529559 24.7663 -0.0371094 24.4551C-0.0371094 23.8366 -0.0371094 23.218 -0.0371094 22.5996C0.474086 19.9976 2.00794 18.3277 4.56445 17.5898C5.00594 17.4967 5.45126 17.4348 5.90039 17.4043C5.01348 14.0163 5.92885 11.2331 8.64648 9.05466C10.8704 7.57778 13.2454 7.28092 15.7715 8.16404C16.5117 8.43479 17.1797 8.81827 17.7754 9.31443Z" fill="#A3D3F6"/>
<path opacity="0.989" fill-rule="evenodd" clip-rule="evenodd" d="M21.2637 29.6504C19.5883 32.2339 17.8935 34.8068 16.1797 37.3692C16.6433 34.7915 17.1504 32.2186 17.7012 29.6504C17.8282 29.2133 17.9272 28.768 17.998 28.3145C16.0677 28.3392 14.138 28.3145 12.209 28.2402C13.0804 25.7004 13.9215 23.1522 14.7324 20.5957C16.4644 20.5833 18.1961 20.5957 19.9277 20.6328C19.4667 22.3163 19.0461 24.011 18.666 25.7168C20.3732 25.7044 22.0802 25.7168 23.7871 25.7539C22.9167 27.038 22.0756 28.3368 21.2637 29.6504Z" fill="#FEA754"/>
</g>
<defs>
<clipPath id="clip0_343_3071">
<rect width="38" height="38" fill="white"/>
</clipPath>
</defs>
</svg>
