<svg width="38" height="38" viewBox="0 0 38 38" fill="none" xmlns="http://www.w3.org/2000/svg">
<g clip-path="url(#clip0_343_3003)">
<path opacity="0.993" fill-rule="evenodd" clip-rule="evenodd" d="M37.9629 19.334C37.9629 19.9773 37.9629 20.6204 37.9629 21.2637C37.323 24.6869 35.2944 26.7526 31.877 27.461C30.1966 27.5627 28.5142 27.5998 26.8301 27.5723C26.2537 26.2217 25.5981 24.9105 24.8633 23.6387C24.1406 24.9357 23.4603 26.247 22.8223 27.5723C19.6061 27.5723 16.3899 27.5723 13.1738 27.5723C12.7247 26.6991 12.2547 25.8333 11.7637 24.9746C11.2493 25.8305 10.7544 26.6964 10.2793 27.5723C8.64426 27.6015 7.01148 27.5644 5.38086 27.461C2.38132 26.7747 0.575327 24.9316 -0.0371094 21.9317C-0.0371094 21.2884 -0.0371094 20.6452 -0.0371094 20.002C0.691714 16.6635 2.75747 14.7833 6.16016 14.3614C5.22963 10.9452 6.05841 8.03836 8.64648 5.64065C11.8175 3.34168 15.0584 3.24272 18.3691 5.34378C19.6364 6.31375 20.5641 7.53835 21.1523 9.0176C23.9456 7.95323 26.3206 8.54698 28.2773 10.7989C28.7951 11.4881 29.1538 12.2551 29.3535 13.0996C32.1514 12.7498 34.4893 13.6158 36.3672 15.6973C37.195 16.7838 37.7268 17.996 37.9629 19.334Z" fill="#CFD9D8"/>
<path opacity="0.991" fill-rule="evenodd" clip-rule="evenodd" d="M11.6055 22.2046C13.3125 22.2541 15.0195 22.3035 16.7266 22.353C15.6114 24.0861 14.4981 25.8178 13.3867 27.5483C11.9829 29.7442 10.548 31.9213 9.08203 34.0796C9.46144 31.9099 9.88204 29.7328 10.3438 27.5483C10.5545 26.668 10.7276 25.7774 10.8633 24.8765C8.90873 24.8888 6.95425 24.8765 5 24.8393C5.90302 22.2416 6.76893 19.6316 7.59766 17.0093C9.35486 16.9846 11.1114 17.0093 12.8672 17.0835C12.4115 18.7826 11.9909 20.4897 11.6055 22.2046Z" fill="#FEA754"/>
<path opacity="0.991" fill-rule="evenodd" clip-rule="evenodd" d="M26.6055 26.2046C28.3125 26.2541 30.0195 26.3035 31.7266 26.353C30.6114 28.0861 29.4981 29.8178 28.3867 31.5483C26.9829 33.7442 25.548 35.9213 24.082 38.0796C24.4614 35.9099 24.882 33.7328 25.3438 31.5483C25.5545 30.668 25.7276 29.7774 25.8633 28.8765C23.9087 28.8888 21.9543 28.8765 20 28.8393C20.903 26.2416 21.7689 23.6316 22.5977 21.0093C24.3549 20.9846 26.1114 21.0093 27.8672 21.0835C27.4115 22.7826 26.9909 24.4897 26.6055 26.2046Z" fill="#FEA754"/>
<path opacity="0.991" fill-rule="evenodd" clip-rule="evenodd" d="M17.8675 31.0473C18.8669 31.0762 19.8664 31.1052 20.8658 31.1342C20.2129 32.1489 19.5611 33.1628 18.9104 34.176C18.0885 35.4617 17.2483 36.7363 16.39 38C16.6121 36.7297 16.8584 35.455 17.1287 34.176C17.2521 33.6606 17.3535 33.1391 17.4329 32.6116C16.2885 32.6189 15.1442 32.6116 14 32.5899C14.5287 31.0689 15.0357 29.5408 15.5209 28.0054C16.5497 27.991 17.5782 28.0054 18.6062 28.0489C18.3394 29.0437 18.0931 30.0432 17.8675 31.0473Z" fill="#FEA754"/>
</g>
<defs>
<clipPath id="clip0_343_3003">
<rect width="38" height="38" fill="white"/>
</clipPath>
</defs>
</svg>
