<svg width="38" height="38" viewBox="0 0 38 38" fill="none" xmlns="http://www.w3.org/2000/svg">
<g clip-path="url(#clip0_343_3124)">
<path opacity="0.993" fill-rule="evenodd" clip-rule="evenodd" d="M37.9629 19.334C37.9629 19.9773 37.9629 20.6204 37.9629 21.2637C37.3919 24.3472 35.6106 26.3635 32.6191 27.3125C32.1073 27.44 31.5877 27.5143 31.0605 27.5352C29.2547 27.5723 27.4488 27.5847 25.6426 27.5723C25.1434 26.6981 24.661 25.8074 24.1953 24.9004C23.7297 25.8074 23.2472 26.6981 22.748 27.5723C21.2142 27.5723 19.6804 27.5723 18.1465 27.5723C19.2578 25.8418 20.3711 24.1101 21.4863 22.377C21.5266 22.3725 21.5513 22.3478 21.5605 22.3028C19.8295 22.2285 18.0977 22.2038 16.3652 22.2285C16.7507 20.5136 17.1712 18.8066 17.627 17.1074C15.8712 17.0332 14.1146 17.0085 12.3574 17.0332C11.5287 19.6555 10.6628 22.2656 9.75977 24.8633C11.714 24.9004 13.6685 24.9128 15.623 24.9004C15.4874 25.8014 15.3142 26.692 15.1035 27.5723C12.0852 27.5847 9.06693 27.5723 6.04883 27.5352C2.69793 27.0908 0.669282 25.223 -0.0371094 21.9317C-0.0371094 21.2884 -0.0371094 20.6452 -0.0371094 20.002C0.691714 16.6635 2.75747 14.7833 6.16016 14.3614C5.22963 10.9452 6.05841 8.03836 8.64648 5.64065C11.8175 3.34168 15.0584 3.24272 18.3691 5.34378C19.6364 6.31375 20.5641 7.53835 21.1523 9.0176C23.9456 7.95323 26.3206 8.54698 28.2773 10.7989C28.7951 11.4881 29.1538 12.2551 29.3535 13.0996C32.1514 12.7498 34.4893 13.6158 36.3672 15.6973C37.195 16.7838 37.7268 17.996 37.9629 19.334Z" fill="#A3D3F6"/>
<path opacity="0.991" fill-rule="evenodd" clip-rule="evenodd" d="M16.3652 22.2285C18.0723 22.278 19.7793 22.3274 21.4863 22.3769C20.3711 24.11 19.2578 25.8418 18.1465 27.5723C16.7427 29.7682 15.3078 31.9452 13.8418 34.1035C14.2212 31.9339 14.6418 29.7567 15.1035 27.5723C15.3142 26.6919 15.4874 25.8013 15.623 24.9004C13.6685 24.9128 11.714 24.9004 9.75977 24.8633C10.6628 22.2655 11.5287 19.6555 12.3574 17.0332C14.1146 17.0085 15.8712 17.0332 17.627 17.1074C17.1712 18.8066 16.7507 20.5136 16.3652 22.2285Z" fill="#FEA754"/>
<path fill-rule="evenodd" clip-rule="evenodd" d="M16.3652 22.2285C18.0977 22.2038 19.8295 22.2285 21.5605 22.3027C21.5513 22.3478 21.5266 22.3725 21.4863 22.3769C19.7793 22.3274 18.0723 22.278 16.3652 22.2285Z" fill="#C3C3BE"/>
<path opacity="0.978" fill-rule="evenodd" clip-rule="evenodd" d="M25.6426 27.5723C26.0666 28.5104 26.4254 29.4752 26.7187 30.4668C27.1388 32.0955 26.5946 33.2582 25.0859 33.9551C23.3395 34.3561 22.1767 33.7129 21.5976 32.0254C21.5291 31.4217 21.5785 30.8279 21.7461 30.2441C22.0438 29.3382 22.3778 28.4476 22.748 27.5723C23.2472 26.698 23.7296 25.8074 24.1953 24.9004C24.6609 25.8074 25.1434 26.698 25.6426 27.5723Z" fill="#60A2D7"/>
</g>
<defs>
<clipPath id="clip0_343_3124">
<rect width="38" height="38" fill="white"/>
</clipPath>
</defs>
</svg>
