<svg width="38" height="38" viewBox="0 0 38 38" fill="none" xmlns="http://www.w3.org/2000/svg">
<g clip-path="url(#clip0_343_3137)">
<path opacity="0.993" fill-rule="evenodd" clip-rule="evenodd" d="M37.9629 18.6661C37.9629 19.3093 37.9629 19.9525 37.9629 20.5957C37.2401 24.2745 35.0136 26.3651 31.2832 26.8672C29.6258 26.9043 27.9683 26.9167 26.3105 26.9043C25.8302 26.0431 25.3478 25.1772 24.8633 24.3067C24.3788 25.1772 23.8964 26.0431 23.416 26.9043C21.7337 26.9043 20.0515 26.9043 18.3691 26.9043C19.1836 25.6192 20 24.3327 20.8184 23.045C20.8587 23.0405 20.8834 23.0158 20.8926 22.9707C19.1615 22.8965 17.4298 22.8718 15.6973 22.8965C16.094 21.1846 16.5146 19.4776 16.959 17.7754C15.2032 17.7012 13.4467 17.6765 11.6895 17.7012C10.8332 20.3195 9.99207 22.9419 9.16602 25.5684C11.1204 25.5684 13.0749 25.5684 15.0293 25.5684C14.9206 26.0133 14.8216 26.4587 14.7324 26.9043C11.7636 26.9167 8.79485 26.9043 5.82617 26.8672C2.5982 26.3234 0.643773 24.4555 -0.0371094 21.2637C-0.0371094 20.6205 -0.0371094 19.9773 -0.0371094 19.334C0.715716 15.9618 2.81858 14.0939 6.27148 13.7305C5.19848 10.1466 6.08911 7.15315 8.94336 4.75004C11.4289 3.05795 14.0761 2.76107 16.8848 3.85942C18.8914 4.80224 20.314 6.29899 21.1523 8.34965C23.9438 7.30456 26.3188 7.89833 28.2773 10.1309C28.7951 10.8202 29.1538 11.5871 29.3535 12.4317C32.6426 12.0913 35.2031 13.2788 37.0352 15.9942C37.4729 16.8501 37.7822 17.7407 37.9629 18.6661Z" fill="#A3D3F6"/>
<path fill-rule="evenodd" clip-rule="evenodd" d="M24.4552 16.3652C25.8981 16.313 26.8754 16.9563 27.3868 18.2949C27.6323 20.2758 26.7664 21.389 24.7892 21.6348C22.8565 21.3087 22.0401 20.1707 22.3399 18.2207C22.7348 17.2442 23.4399 16.6258 24.4552 16.3652Z" fill="#B6F8FD"/>
<path opacity="0.99" fill-rule="evenodd" clip-rule="evenodd" d="M15.6973 22.8965C17.4043 22.946 19.1113 22.9954 20.8184 23.0449C20 24.3327 19.1836 25.6191 18.3691 26.9043C16.6663 29.5354 14.9468 32.1578 13.2109 34.7715C13.6468 32.1369 14.154 29.5145 14.7324 26.9043C14.8216 26.4586 14.9206 26.0133 15.0293 25.5683C13.0749 25.5683 11.1204 25.5683 9.16602 25.5683C9.99207 22.9418 10.8332 20.3195 11.6895 17.7012C13.4467 17.6764 15.2032 17.7012 16.959 17.7754C16.5146 19.4775 16.094 21.1845 15.6973 22.8965Z" fill="#FEA754"/>
<path fill-rule="evenodd" clip-rule="evenodd" d="M15.6973 22.8965C17.4298 22.8718 19.1615 22.8965 20.8926 22.9707C20.8834 23.0157 20.8587 23.0405 20.8184 23.0449C19.1113 22.9954 17.4043 22.946 15.6973 22.8965Z" fill="#D1BCA4"/>
<path opacity="0.977" fill-rule="evenodd" clip-rule="evenodd" d="M26.3105 26.9043C26.7307 27.869 27.0895 28.8586 27.3867 29.873C27.7618 31.6346 27.1062 32.8098 25.4199 33.3984C23.8421 33.5808 22.7906 32.9252 22.2656 31.4316C22.2062 30.8832 22.2309 30.3389 22.3398 29.7988C22.6331 28.8073 22.9919 27.8424 23.416 26.9043C23.8963 26.0431 24.3788 25.1772 24.8633 24.3066C25.3478 25.1772 25.8302 26.0431 26.3105 26.9043Z" fill="#60A2D7"/>
<path opacity="0.977" fill-rule="evenodd" clip-rule="evenodd" d="M32.0764 21.5977C32.4965 22.5624 32.8553 23.5519 33.1526 24.5664C33.5277 26.328 32.8721 27.5032 31.1858 28.0918C29.608 28.2742 28.5565 27.6186 28.0315 26.125C27.972 25.5766 27.9968 25.0323 28.1057 24.4922C28.399 23.5006 28.7578 22.5358 29.1819 21.5977C29.6622 20.7364 30.1446 19.8705 30.6291 19C31.1136 19.8705 31.5961 20.7364 32.0764 21.5977Z" fill="#60A2D7"/>
<path opacity="0.977" fill-rule="evenodd" clip-rule="evenodd" d="M36.7876 24.1391C36.9718 24.5622 37.1292 24.9961 37.2595 25.441C37.424 26.2135 37.1365 26.7288 36.397 26.9869C35.7051 27.0669 35.244 26.7794 35.0138 26.1245C34.9877 25.884 34.9986 25.6453 35.0463 25.4084C35.175 24.9736 35.3323 24.5505 35.5183 24.1391C35.7289 23.7615 35.9405 23.3817 36.1529 23C36.3654 23.3817 36.5769 23.7615 36.7876 24.1391Z" fill="#60A2D7"/>
</g>
<defs>
<clipPath id="clip0_343_3137">
<rect width="38" height="38" fill="white"/>
</clipPath>
</defs>
</svg>
