<svg width="38" height="42" viewBox="0 0 38 42" fill="none" xmlns="http://www.w3.org/2000/svg">
<g clip-path="url(#clip0_343_3270)">
<path opacity="0.993" fill-rule="evenodd" clip-rule="evenodd" d="M37.9629 22.5995C37.9629 23.2675 37.9629 23.9355 37.9629 24.6034C37.2251 28.1737 35.048 30.2395 31.4316 30.8007C22.7214 30.8739 14.0131 30.8492 5.30664 30.7265C2.35061 30.0095 0.569361 28.1665 -0.0371094 25.1972C-0.0371094 24.5539 -0.0371094 23.9107 -0.0371094 23.2675C0.715493 19.8953 2.81836 18.0274 6.27148 17.664C5.19848 14.0801 6.08911 11.0866 8.94336 8.68351C11.2293 7.09347 13.7033 6.72238 16.3652 7.57023C18.6243 8.46865 20.22 10.0396 21.1523 12.2831C23.9434 11.2368 26.3184 11.8305 28.2773 14.0644C28.7951 14.7536 29.1538 15.5206 29.3535 16.3652C32.1433 16.0372 34.4812 16.9031 36.3672 18.9628C37.224 20.0382 37.756 21.2504 37.9629 22.5995Z" fill="#A3D4F6"/>
<path fill-rule="evenodd" clip-rule="evenodd" d="M20.6905 28.0023C21.8117 27.9617 22.571 28.4615 22.9684 29.5017C23.1591 31.0408 22.4864 31.9058 20.95 32.0968C19.4483 31.8434 18.814 30.9592 19.0469 29.444C19.3537 28.6853 19.9016 28.2047 20.6905 28.0023Z" fill="#B6F8FD"/>
</g>
<path opacity="0.977" fill-rule="evenodd" clip-rule="evenodd" d="M18.0764 34.5977C18.4965 35.5624 18.8553 36.5519 19.1526 37.5664C19.5277 39.328 18.8721 40.5032 17.1858 41.0918C15.608 41.2742 14.5565 40.6186 14.0315 39.125C13.972 38.5766 13.9968 38.0323 14.1057 37.4922C14.399 36.5006 14.7578 35.5358 15.1819 34.5977C15.6622 33.7364 16.1446 32.8705 16.6291 32C17.1136 32.8705 17.5961 33.7364 18.0764 34.5977Z" fill="#60A2D7"/>
<defs>
<clipPath id="clip0_343_3270">
<rect width="38" height="38" fill="white"/>
</clipPath>
</defs>
</svg>
