<svg width="38" height="38" viewBox="0 0 38 38" fill="none" xmlns="http://www.w3.org/2000/svg">
<g clip-path="url(#clip0_343_3278)">
<path opacity="0.993" fill-rule="evenodd" clip-rule="evenodd" d="M37.9629 22.5995C37.9629 23.2675 37.9629 23.9355 37.9629 24.6034C37.2251 28.1737 35.048 30.2395 31.4316 30.8007C22.7214 30.8739 14.0131 30.8492 5.30664 30.7265C2.35061 30.0095 0.569361 28.1665 -0.0371094 25.1972C-0.0371094 24.5539 -0.0371094 23.9107 -0.0371094 23.2675C0.715493 19.8953 2.81836 18.0274 6.27148 17.664C5.19848 14.0801 6.08911 11.0866 8.94336 8.68351C11.2293 7.09347 13.7033 6.72238 16.3652 7.57023C18.6243 8.46865 20.22 10.0396 21.1523 12.2831C23.9434 11.2368 26.3184 11.8305 28.2773 14.0644C28.7951 14.7536 29.1538 15.5206 29.3535 16.3652C32.1433 16.0372 34.4812 16.9031 36.3672 18.9628C37.224 20.0382 37.756 21.2504 37.9629 22.5995Z" fill="#A3D4F6"/>
<path fill-rule="evenodd" clip-rule="evenodd" d="M20.6905 28.0023C21.8117 27.9617 22.571 28.4615 22.9684 29.5017C23.1591 31.0408 22.4864 31.9058 20.95 32.0968C19.4483 31.8434 18.814 30.9592 19.0469 29.444C19.3537 28.6853 19.9016 28.2047 20.6905 28.0023Z" fill="#B6F8FD"/>
<path fill-rule="evenodd" clip-rule="evenodd" d="M15.6905 32.0023C16.8117 31.9617 17.571 32.4615 17.9684 33.5017C18.1591 35.0408 17.4864 35.9058 15.95 36.0968C14.4483 35.8434 13.814 34.9592 14.0469 33.444C14.3537 32.6853 14.9016 32.2047 15.6905 32.0023Z" fill="#B6F8FD"/>
<path fill-rule="evenodd" clip-rule="evenodd" d="M13.6905 25.0023C14.8117 24.9617 15.571 25.4615 15.9684 26.5017C16.1591 28.0408 15.4864 28.9058 13.95 29.0968C12.4483 28.8434 11.814 27.9592 12.0469 26.444C12.3537 25.6853 12.9016 25.2047 13.6905 25.0023Z" fill="#B6F8FD"/>
</g>
<defs>
<clipPath id="clip0_343_3278">
<rect width="38" height="38" fill="white"/>
</clipPath>
</defs>
</svg>
