<svg width="38" height="38" viewBox="0 0 38 38" fill="none" xmlns="http://www.w3.org/2000/svg">
<g clip-path="url(#clip0_343_3288)">
<path opacity="0.993" fill-rule="evenodd" clip-rule="evenodd" d="M37.9629 19.334C37.9629 19.9773 37.9629 20.6204 37.9629 21.2637C37.323 24.6869 35.2944 26.7526 31.877 27.461C30.3451 27.5616 28.8112 27.5987 27.2754 27.5723C27.008 27.4043 26.7606 27.2064 26.5332 26.9785C26.8796 26.929 27.2259 26.8796 27.5723 26.8301C28.0977 26.6535 28.2338 26.3072 27.9805 25.791C27.9134 25.7019 27.8269 25.64 27.7207 25.6055C27.3001 25.5808 26.8796 25.556 26.459 25.5313C26.7435 25.2468 27.028 24.9622 27.3125 24.6778C27.5777 23.929 27.3179 23.5951 26.5332 23.6758C26.1769 23.9578 25.8429 24.267 25.5312 24.6035C25.5251 24.1254 25.4757 23.6554 25.3828 23.1934C24.9852 22.8752 24.6141 22.9 24.2695 23.2676C24.2448 23.7129 24.22 24.1582 24.1953 24.6035C23.8837 24.267 23.5497 23.9578 23.1934 23.6758C22.422 23.5516 22.1375 23.8608 22.3398 24.6035C22.6491 24.9128 22.9583 25.222 23.2676 25.5313C22.8223 25.556 22.377 25.5808 21.9316 25.6055C21.448 25.9981 21.448 26.394 21.9316 26.793C22.377 26.8177 22.8223 26.8425 23.2676 26.8672C23.0253 27.1472 22.7532 27.3823 22.4512 27.5723C19.6309 27.5723 16.8105 27.5723 13.9902 27.5723C14.4758 27.1335 14.4758 26.7005 13.9902 26.2735C13.7576 26.2148 13.535 26.2395 13.3223 26.3477C13.0378 26.6322 12.7532 26.9167 12.4688 27.2012C12.444 26.8301 12.4192 26.459 12.3945 26.0879C12.2295 25.6612 11.9203 25.5004 11.4668 25.6055C11.3555 25.7168 11.2441 25.8282 11.1328 25.9395C11.1081 26.3601 11.0833 26.7806 11.0586 27.2012C10.7469 26.8647 10.413 26.5554 10.0566 26.2735C9.52954 26.1405 9.23266 26.3384 9.16602 26.8672C9.19563 27.1361 9.29456 27.3712 9.46289 27.5723C8.09986 27.5997 6.7392 27.5626 5.38086 27.461C2.38132 26.7747 0.575327 24.9316 -0.0371094 21.9317C-0.0371094 21.2884 -0.0371094 20.6452 -0.0371094 20.002C0.691714 16.6635 2.75747 14.7833 6.16016 14.3614C5.22963 10.9452 6.05841 8.03836 8.64648 5.64065C11.8175 3.34168 15.0584 3.24272 18.3691 5.34378C19.6364 6.31375 20.5641 7.53835 21.1523 9.0176C23.9456 7.95323 26.3206 8.54698 28.2773 10.7989C28.7951 11.4881 29.1538 12.2551 29.3535 13.0996C32.1514 12.7498 34.4893 13.6158 36.3672 15.6973C37.195 16.7838 37.7268 17.996 37.9629 19.334Z" fill="#A3D4F7"/>
<path fill-rule="evenodd" clip-rule="evenodd" d="M17.1074 20.9669C18.6633 20.8466 19.69 21.5146 20.1875 22.9708C20.3119 25.2461 19.2357 26.2976 16.959 26.1251C15.5446 25.5854 14.9137 24.5588 15.0664 23.045C15.3644 21.9677 16.0448 21.275 17.1074 20.9669Z" fill="#B6F8FD"/>
<path opacity="0.98" fill-rule="evenodd" clip-rule="evenodd" d="M27.5722 26.83C27.1979 26.8058 26.8268 26.8305 26.459 26.9043C26.4682 26.9493 26.4929 26.974 26.5332 26.9785C26.7606 27.2063 27.008 27.4043 27.2754 27.5722C27.6089 28.0316 27.5595 28.4398 27.1269 28.7968C26.929 28.8463 26.7311 28.8463 26.5332 28.7968C26.2016 28.5397 25.8924 28.2552 25.6054 27.9433C25.5899 28.3687 25.5404 28.7892 25.457 29.205C25.0557 29.5958 24.6599 29.5958 24.2695 29.205C24.1815 28.7905 24.132 28.37 24.1211 27.9433C23.7858 28.3661 23.3776 28.6877 22.8965 28.9082C22.1538 28.6587 22.0054 28.2134 22.4511 27.5722C22.7532 27.3822 23.0253 27.1472 23.2675 26.8672C22.8222 26.8424 22.3769 26.8176 21.9316 26.7929C21.4479 26.3939 21.4479 25.998 21.9316 25.6054C22.3769 25.5807 22.8222 25.5559 23.2675 25.5312C22.9583 25.2219 22.6491 24.9127 22.3398 24.6035C22.1375 23.8607 22.422 23.5515 23.1933 23.6757C23.5497 23.9577 23.8836 24.267 24.1953 24.6035C24.22 24.1582 24.2448 23.7129 24.2695 23.2675C24.6141 22.8999 24.9852 22.8751 25.3828 23.1933C25.4756 23.6553 25.5251 24.1254 25.5312 24.6035C25.8429 24.267 26.1768 23.9577 26.5332 23.6757C27.3179 23.595 27.5777 23.929 27.3125 24.6777C27.028 24.9622 26.7434 25.2467 26.459 25.5312C26.8796 25.5559 27.3001 25.5807 27.7207 25.6054C27.8269 25.6399 27.9134 25.7018 27.9804 25.791C28.2337 26.3072 28.0977 26.6535 27.5722 26.83Z" fill="#B6F8FD"/>
<path opacity="0.964" fill-rule="evenodd" clip-rule="evenodd" d="M13.9903 27.5722C13.8323 27.7674 13.6592 27.9529 13.4707 28.1288C13.8665 28.1535 14.2624 28.1783 14.6582 28.203C14.9242 28.3265 15.0479 28.5368 15.0293 28.8339C15.0479 29.131 14.9242 29.3413 14.6582 29.4648C14.2624 29.4895 13.8665 29.5143 13.4707 29.539C13.7826 29.826 14.0671 30.1352 14.3242 30.4667C14.4959 31.0489 14.2856 31.3953 13.6934 31.5058C13.2122 31.2853 12.804 30.9637 12.4688 30.5409C12.4441 30.9367 12.4193 31.3326 12.3945 31.7284C12.0045 32.2823 11.5839 32.307 11.1328 31.8026C11.0507 31.4116 11.0012 31.0157 10.9844 30.6151C10.694 30.9553 10.3601 31.2398 9.98244 31.4687C9.2119 31.489 8.95214 31.1302 9.20314 30.3925C9.48762 30.108 9.77218 29.8235 10.0567 29.539C9.63606 29.5143 9.21554 29.4895 8.79494 29.4648C8.30012 29.0442 8.30012 28.6236 8.79494 28.203C9.21554 28.1783 9.63606 28.1535 10.0567 28.1288C9.86844 27.9281 9.6705 27.7425 9.46291 27.5722C9.29458 27.371 9.19565 27.136 9.16603 26.8671C9.23268 26.3383 9.52956 26.1403 10.0567 26.2733C10.413 26.5553 10.747 26.8646 11.0586 27.2011C11.0833 26.7805 11.1081 26.36 11.1328 25.9394C11.2442 25.828 11.3555 25.7167 11.4668 25.6054C11.9203 25.5003 12.2296 25.661 12.3945 26.0878C12.4193 26.4589 12.4441 26.83 12.4688 27.2011C12.7532 26.9166 13.0378 26.632 13.3223 26.3476C13.535 26.2394 13.7577 26.2147 13.9903 26.2733C14.4758 26.7004 14.4758 27.1334 13.9903 27.5722Z" fill="#B6F8FD"/>
<path fill-rule="evenodd" clip-rule="evenodd" d="M27.5723 26.8301C27.2259 26.8796 26.8796 26.929 26.5332 26.9785C26.4929 26.974 26.4682 26.9493 26.459 26.9043C26.8268 26.8305 27.1979 26.8058 27.5723 26.8301Z" fill="#ACE5FA"/>
<path opacity="0.967" fill-rule="evenodd" clip-rule="evenodd" d="M18.8887 28.7598C20.5533 28.9029 21.4687 29.806 21.6348 31.4688C21.4606 33.1026 20.5576 33.9808 18.9258 34.1035C17.3071 33.9693 16.4289 33.091 16.291 31.4688C16.4448 29.8679 17.3107 28.9649 18.8887 28.7598Z" fill="#B7F9FD"/>
</g>
<defs>
<clipPath id="clip0_343_3288">
<rect width="38" height="38" fill="white"/>
</clipPath>
</defs>
</svg>
