<svg width="38" height="38" viewBox="0 0 38 38" fill="none" xmlns="http://www.w3.org/2000/svg">
<g clip-path="url(#clip0_343_3301)">
<path opacity="0.993" fill-rule="evenodd" clip-rule="evenodd" d="M37.9629 22.5995C37.9629 23.2675 37.9629 23.9355 37.9629 24.6034C37.2251 28.1737 35.048 30.2395 31.4316 30.8007C22.7214 30.8739 14.0131 30.8492 5.30664 30.7265C2.35061 30.0095 0.569361 28.1665 -0.0371094 25.1972C-0.0371094 24.5539 -0.0371094 23.9107 -0.0371094 23.2675C0.715493 19.8953 2.81836 18.0274 6.27148 17.664C5.19848 14.0801 6.08911 11.0866 8.94336 8.68351C11.2293 7.09347 13.7033 6.72238 16.3652 7.57023C18.6243 8.46865 20.22 10.0396 21.1523 12.2831C23.9434 11.2368 26.3184 11.8305 28.2773 14.0644C28.7951 14.7536 29.1538 15.5206 29.3535 16.3652C32.1433 16.0372 34.4812 16.9031 36.3672 18.9628C37.224 20.0382 37.756 21.2504 37.9629 22.5995Z" fill="#A3D4F6"/>
<path fill-rule="evenodd" clip-rule="evenodd" d="M17.6905 32.0023C18.8117 31.9617 19.571 32.4615 19.9684 33.5017C20.1591 35.0408 19.4864 35.9058 17.95 36.0968C16.4483 35.8434 15.814 34.9592 16.0469 33.444C16.3537 32.6853 16.9016 32.2047 17.6905 32.0023Z" fill="#B6F8FD"/>
<path opacity="0.98" fill-rule="evenodd" clip-rule="evenodd" d="M25.516 26.8594C25.997 27.8444 26.2073 28.8835 26.1469 29.9766C25.6485 31.5683 24.5723 32.2239 22.9183 31.9434C21.4913 31.4534 20.8604 30.4515 21.0258 28.9375C21.1844 28.2266 21.3948 27.5339 21.6566 26.8594C22.2508 25.5473 22.9065 24.2609 23.6234 23C24.3171 24.2636 24.948 25.5501 25.516 26.8594Z" fill="#60A2D7"/>
<path opacity="0.977" fill-rule="evenodd" clip-rule="evenodd" d="M13.0042 31.2422C13.4972 32.2631 13.8806 33.3268 14.1546 34.4336C14.3909 35.9535 13.8095 37.005 12.4104 37.5879C10.8222 37.9133 9.72128 37.332 9.10771 35.8438C8.9641 35.3237 8.9641 34.8042 9.10771 34.2852C9.38195 33.227 9.76544 32.2127 10.2581 31.2422C10.6948 30.3938 11.1525 29.5526 11.6311 28.7188C12.0812 29.5736 12.5389 30.4148 13.0042 31.2422Z" fill="#60A2D7"/>
</g>
<defs>
<clipPath id="clip0_343_3301">
<rect width="38" height="38" fill="white"/>
</clipPath>
</defs>
</svg>
