<svg width="38" height="38" viewBox="0 0 38 38" fill="none" xmlns="http://www.w3.org/2000/svg">
<g clip-path="url(#clip0_343_3346)">
<path opacity="0.993" fill-rule="evenodd" clip-rule="evenodd" d="M37.9629 16.0683C37.9629 16.7115 37.9629 17.3547 37.9629 17.998C37.4569 20.7759 35.8983 22.7179 33.2871 23.8241C32.8263 23.9827 32.3563 24.1063 31.877 24.1952C30.4191 24.2925 28.9595 24.3296 27.498 24.3065C27.5104 21.5603 27.498 18.8142 27.4609 16.0683C27.0438 15.1373 26.3635 14.8776 25.4199 15.289C25.1524 15.49 24.9669 15.7497 24.8633 16.0683C24.8262 18.8142 24.8138 21.5603 24.8262 24.3065C23.9851 24.3065 23.1439 24.3065 22.3027 24.3065C22.241 22.2163 22.2039 20.1134 22.1914 17.998C21.7868 17.1092 21.1312 16.8494 20.2246 17.2187C19.9825 17.411 19.797 17.6461 19.668 17.9237C19.655 20.0567 19.6179 22.1843 19.5566 24.3065C18.7155 24.3065 17.8743 24.3065 17.0332 24.3065C16.9718 21.5163 16.9347 18.7207 16.9219 15.9198C16.579 15.2194 16.0223 14.9596 15.252 15.1405C14.8233 15.3175 14.5389 15.6267 14.3984 16.0683C14.3613 18.8142 14.3489 21.5603 14.3613 24.3065C13.4954 24.3065 12.6296 24.3065 11.7637 24.3065C11.7761 22.1046 11.7637 19.9028 11.7266 17.7011C11.3094 16.7702 10.6291 16.5104 9.68555 16.9218C9.3975 17.1391 9.21196 17.4236 9.12891 17.7753C9.0918 19.9522 9.0794 22.1293 9.0918 24.3065C7.87743 24.3293 6.66522 24.2922 5.45508 24.1952C2.41519 23.5428 0.584458 21.6996 -0.0371094 18.6659C-0.0371094 18.0227 -0.0371094 17.3795 -0.0371094 16.7362C0.696492 13.3807 2.77462 11.5004 6.19727 11.0956C5.27872 7.87994 5.97143 5.07196 8.27539 2.67178C10.8827 0.478157 13.7772 0.0081054 16.959 1.26163C18.9387 2.16876 20.2993 3.64077 21.041 5.67764C23.7216 4.70691 26.0595 5.22645 28.0547 7.23624C28.6836 7.99935 29.1166 8.86526 29.3535 9.83389C32.2003 9.47534 34.563 10.366 36.4414 12.5058C37.2459 13.5724 37.7531 14.7599 37.9629 16.0683Z" fill="#CFD9D8"/>
<path opacity="0.986" fill-rule="evenodd" clip-rule="evenodd" d="M17.0332 24.2569C17.0456 28.28 17.0332 32.3031 16.9961 36.3261C16.6768 37.2614 16.046 37.5717 15.1035 37.2574C14.7586 37.1005 14.5236 36.8398 14.3984 36.4751C14.3613 32.4024 14.3489 28.3297 14.3613 24.2569C14.3489 21.5002 14.3613 18.7436 14.3984 15.9872C14.5389 15.544 14.8234 15.2335 15.252 15.0559C16.0224 14.8743 16.579 15.1351 16.9219 15.8382C16.9347 18.6497 16.9718 21.456 17.0332 24.2569Z" fill="#60A2D7"/>
<path opacity="0.986" fill-rule="evenodd" clip-rule="evenodd" d="M27.4981 24.3066C27.5105 28.3392 27.4981 32.3718 27.4609 36.4042C27.0458 37.3345 26.3654 37.5943 25.4199 37.1835C25.1458 36.9841 24.9602 36.7243 24.8633 36.4042C24.8262 32.3718 24.8138 28.3392 24.8262 24.3066C24.8138 21.5603 24.8262 18.8142 24.8633 16.0683C24.9669 15.7497 25.1524 15.49 25.4199 15.289C26.3635 14.8776 27.0438 15.1374 27.4609 16.0683C27.4981 18.8142 27.5105 21.5603 27.4981 24.3066Z" fill="#60A2D7"/>
<path opacity="0.986" fill-rule="evenodd" clip-rule="evenodd" d="M11.7637 22.6213C11.7761 25.1603 11.7637 27.6993 11.7266 30.2382C11.3239 30.9758 10.6436 31.1778 9.68556 30.8441C9.41139 30.689 9.22585 30.4871 9.12892 30.2382C9.09181 27.6993 9.07941 25.1603 9.09181 22.6213C9.07941 20.9285 9.09181 19.2358 9.12892 17.5433C9.21197 17.2698 9.39751 17.0487 9.68556 16.8797C10.6291 16.5599 11.3094 16.7618 11.7266 17.4856C11.7637 19.1974 11.7761 20.9092 11.7637 22.6213Z" fill="#60A2D7"/>
<path opacity="0.971" fill-rule="evenodd" clip-rule="evenodd" d="M22.3027 22.1749C22.3151 24.4805 22.3027 26.786 22.2656 29.0915C22.0897 29.8304 21.4836 30.1186 20.4473 29.956C19.9717 29.8121 19.6871 29.5589 19.5938 29.1963C19.5567 26.8559 19.5443 24.5154 19.5567 22.1749C19.6179 20.6766 19.655 19.1746 19.668 17.6687C19.797 17.4727 19.9825 17.3067 20.2246 17.1709C21.1312 16.9102 21.7868 17.0936 22.1914 17.7211C22.2039 19.2146 22.241 20.6992 22.3027 22.1749Z" fill="#60A2D7"/>
<path fill-rule="evenodd" clip-rule="evenodd" d="M16.6905 14.0023C17.8117 13.9617 18.571 14.4615 18.9684 15.5017C19.1591 17.0408 18.4864 17.9058 16.95 18.0968C15.4483 17.8434 14.814 16.9592 15.0469 15.444C15.3537 14.6853 15.9016 14.2047 16.6905 14.0023Z" fill="#B6F8FD"/>
<path fill-rule="evenodd" clip-rule="evenodd" d="M11.6905 24.0023C12.8117 23.9617 13.571 24.4615 13.9684 25.5017C14.1591 27.0408 13.4864 27.9058 11.95 28.0968C10.4483 27.8434 9.81396 26.9592 10.0469 25.444C10.3537 24.6853 10.9016 24.2047 11.6905 24.0023Z" fill="#B6F8FD"/>
<path fill-rule="evenodd" clip-rule="evenodd" d="M22.6905 20.0023C23.8117 19.9617 24.571 20.4615 24.9684 21.5017C25.1591 23.0408 24.4864 23.9058 22.95 24.0968C21.4483 23.8434 20.814 22.9592 21.0469 21.444C21.3537 20.6853 21.9016 20.2047 22.6905 20.0023Z" fill="#B6F8FD"/>
<path fill-rule="evenodd" clip-rule="evenodd" d="M9.47442 32C10.0694 32.9452 10.5378 33.9542 10.8797 35.0268C11.1214 35.7038 10.9989 36.3019 10.5122 36.8212C10.0132 37.2039 9.46552 37.2903 8.86907 37.0806C8.18966 36.6946 7.9086 36.1108 8.02591 35.3294C8.36689 34.1575 8.84975 33.0476 9.47442 32Z" fill="#60A2D7"/>
<path opacity="0.98" fill-rule="evenodd" clip-rule="evenodd" d="M22.8137 33.55C23.0069 33.9456 23.0914 34.3629 23.0671 34.802C22.8669 35.4412 22.4347 35.7045 21.7704 35.5919C21.1973 35.3951 20.9439 34.9927 21.0103 34.3846C21.0741 34.0991 21.1585 33.8209 21.2637 33.55C21.5024 33.0231 21.7657 32.5064 22.0536 32C22.3322 32.5075 22.5856 33.0242 22.8137 33.55Z" fill="#60A2D7"/>
</g>
<defs>
<clipPath id="clip0_343_3346">
<rect width="38" height="38" fill="white"/>
</clipPath>
</defs>
</svg>
