<svg width="38" height="42" viewBox="0 0 38 42" fill="none" xmlns="http://www.w3.org/2000/svg">
<g clip-path="url(#clip0_345_3472)">
<path opacity="0.996" fill-rule="evenodd" clip-rule="evenodd" d="M12.8027 14.7325C16.5728 14.6836 19.2322 16.3658 20.7812 19.7794C21.1998 19.5986 21.6327 19.4626 22.0801 19.3712C25.0961 19.0849 27.2732 20.2848 28.6113 22.9708C28.6701 23.2462 28.7443 23.5183 28.834 23.7872C31.9986 23.4219 34.4849 24.5351 36.293 27.127C37.7764 29.8342 37.6774 32.4813 35.9961 35.0684C34.7875 36.6687 33.1918 37.6336 31.209 37.963C22.6243 37.963 14.0397 37.963 5.45508 37.963C2.41211 37.3445 0.58138 35.5137 -0.0371094 32.4708C-0.0371094 31.8275 -0.0371094 31.1843 -0.0371094 30.5411C0.714643 27.2667 2.76803 25.4112 6.12305 24.9747C5.18183 21.8001 5.87453 19.0416 8.20117 16.6993C9.51677 15.547 11.0507 14.8914 12.8027 14.7325Z" fill="#A3D3F6"/>
</g>
<path opacity="0.98" fill-rule="evenodd" clip-rule="evenodd" d="M14.516 35.8594C14.997 36.8444 15.2073 37.8835 15.1469 38.9766C14.6485 40.5683 13.5723 41.2239 11.9183 40.9434C10.4913 40.4534 9.8604 39.4515 10.0258 37.9375C10.1844 37.2266 10.3948 36.5339 10.6566 35.8594C11.2508 34.5473 11.9065 33.2609 12.6234 32C13.3171 33.2636 13.948 34.5501 14.516 35.8594Z" fill="#60A2D7"/>
<defs>
<clipPath id="clip0_345_3472">
<rect width="38" height="38" fill="white"/>
</clipPath>
</defs>
</svg>
