<svg width="38" height="38" viewBox="0 0 38 38" fill="none" xmlns="http://www.w3.org/2000/svg">
<g clip-path="url(#clip0_345_3473)">
<path opacity="0.995" fill-rule="evenodd" clip-rule="evenodd" d="M17.7754 9.90812C18.2305 10.4169 18.6882 10.9364 19.1484 11.4667C19.4765 11.9989 19.7857 12.5432 20.0762 13.0995C21.4365 12.4826 22.8219 12.4208 24.2324 12.914C26.1197 13.6505 27.3072 14.9989 27.7949 16.9589C29.5079 16.698 31.1407 16.9454 32.6934 17.7011C35.2252 19.3017 36.3261 21.6025 35.9961 24.6034C35.3482 27.7749 33.4308 29.6427 30.2441 30.207C28.7352 30.2441 27.2261 30.2565 25.7168 30.2441C25.1488 28.9348 24.5179 27.6483 23.8242 26.3847C23.1073 27.6456 22.4516 28.932 21.8574 30.2441C18.8887 30.2441 15.9199 30.2441 12.9512 30.2441C12.4859 29.4167 12.0282 28.5755 11.5781 27.7206C11.0995 28.5545 10.6418 29.3957 10.2051 30.2441C8.52261 30.2565 6.84031 30.2441 5.1582 30.207C2.3333 29.6209 0.60153 27.9263 -0.0371094 25.123C-0.0371094 24.5045 -0.0371094 23.886 -0.0371094 23.2675C0.683076 20.0616 2.68699 18.3175 5.97461 18.0351C5.05787 14.9465 5.77531 12.2994 8.12695 10.0937C11.3013 7.74843 14.5174 7.68661 17.7754 9.90812Z" fill="#A3D3F6"/>
<path opacity="0.98" fill-rule="evenodd" clip-rule="evenodd" d="M25.7167 30.2441C26.1977 31.2292 26.4079 32.2682 26.3475 33.3613C25.8492 34.9531 24.773 35.6087 23.119 35.3281C21.6919 34.8382 21.0611 33.8363 21.2264 32.3223C21.3851 31.6113 21.5955 30.9186 21.8573 30.2441C22.4515 28.9321 23.1071 27.6457 23.8241 26.3848C24.5178 27.6483 25.1487 28.9348 25.7167 30.2441Z" fill="#60A2D7"/>
<path opacity="0.977" fill-rule="evenodd" clip-rule="evenodd" d="M12.951 30.2441C13.4439 31.265 13.8273 32.3288 14.1014 33.4355C14.3377 34.9555 13.7563 36.0069 12.3572 36.5898C10.7689 36.9153 9.66805 36.3339 9.05449 34.8457C8.91087 34.3257 8.91087 33.8061 9.05449 33.2871C9.32873 32.229 9.71221 31.2147 10.2049 30.2441C10.6416 29.3957 11.0993 28.5546 11.5779 27.7207C12.028 28.5756 12.4857 29.4168 12.951 30.2441Z" fill="#60A2D7"/>
</g>
<defs>
<clipPath id="clip0_345_3473">
<rect width="38" height="38" fill="white"/>
</clipPath>
</defs>
</svg>
