<svg width="38" height="38" viewBox="0 0 38 38" fill="none" xmlns="http://www.w3.org/2000/svg">
<g clip-path="url(#clip0_345_3529)">
<path opacity="0.989" fill-rule="evenodd" clip-rule="evenodd" d="M37.9629 19.3339C37.9629 20.0019 37.9629 20.6699 37.9629 21.3378C37.8216 22.1082 37.5741 22.8504 37.2207 23.5644C35.4186 20.5732 32.7714 19.3114 29.2793 19.7792C28.8397 17.7684 27.677 16.3459 25.791 15.5117C24.2505 14.9567 22.7166 14.969 21.1895 15.5488C21.1399 15.5241 21.0905 15.4993 21.041 15.4746C19.6243 12.3036 17.1751 10.6212 13.6934 10.4277C10.401 10.5677 8.01362 12.1016 6.53125 15.0292C5.69583 16.9749 5.60924 18.9541 6.27148 20.9667C3.89853 21.1662 2.0678 22.2548 0.779297 24.2324C0.37232 23.5058 0.100184 22.7389 -0.0371094 21.9316C-0.0371094 21.2883 -0.0371094 20.6451 -0.0371094 20.0019C0.691714 16.6634 2.75747 14.7832 6.16016 14.3613C5.22963 10.9451 6.05841 8.03828 8.64648 5.64057C11.8176 3.34334 15.0585 3.24438 18.3691 5.34369C19.6364 6.31366 20.5641 7.53827 21.1523 9.01752C23.4484 8.08637 25.5636 8.39557 27.498 9.94525C28.4119 10.8201 29.0304 11.8716 29.3535 13.0996C32.4648 12.7298 34.9511 13.7936 36.8125 16.291C37.4086 17.2338 37.792 18.2482 37.9629 19.3339Z" fill="#60A2D7"/>
<path opacity="0.997" fill-rule="evenodd" clip-rule="evenodd" d="M37.2207 23.5645C37.5599 24.3097 37.8073 25.0767 37.9629 25.8652C37.9629 26.5332 37.9629 27.2012 37.9629 27.8691C37.2436 31.3714 35.116 33.4373 31.5801 34.0664C22.7956 34.1397 14.0131 34.1149 5.23242 33.9922C2.31761 33.2423 0.561101 31.3992 -0.0371094 28.4629C-0.0371094 27.8196 -0.0371094 27.1765 -0.0371094 26.5332C0.12976 25.7361 0.401896 24.9692 0.779297 24.2324C2.0678 22.2549 3.89853 21.1663 6.27148 20.9668C5.60924 18.9541 5.69583 16.9749 6.53125 15.0293C8.01362 12.1017 10.401 10.5678 13.6934 10.4277C17.1751 10.6213 19.6243 12.3036 21.041 15.4746C21.0905 15.4993 21.1399 15.5241 21.1895 15.5488C22.7166 14.969 24.2505 14.9567 25.791 15.5117C27.677 16.3459 28.8397 17.7685 29.2793 19.7793C32.7714 19.3115 35.4186 20.5732 37.2207 23.5645Z" fill="#A2D3F6"/>
<path opacity="0.98" fill-rule="evenodd" clip-rule="evenodd" d="M24.7699 31.2422C25.2509 32.2272 25.4612 33.2663 25.4008 34.3594C24.9024 35.9511 23.8262 36.6067 22.1722 36.3262C20.7452 35.8363 20.1143 34.8343 20.2797 33.3203C20.4383 32.6094 20.6487 31.9167 20.9105 31.2422C21.5047 29.9301 22.1604 28.6437 22.8773 27.3828C23.571 28.6464 24.2019 29.9329 24.7699 31.2422Z" fill="#60A2D7"/>
<path opacity="0.977" fill-rule="evenodd" clip-rule="evenodd" d="M12.0042 31.2422C12.4972 32.2631 12.8806 33.3268 13.1546 34.4336C13.3909 35.9535 12.8095 37.005 11.4104 37.5879C9.82216 37.9133 8.72128 37.332 8.10771 35.8438C7.9641 35.3237 7.9641 34.8042 8.10771 34.2852C8.38195 33.227 8.76544 32.2127 9.2581 31.2422C9.6948 30.3938 10.1525 29.5526 10.6311 28.7188C11.0812 29.5736 11.5389 30.4148 12.0042 31.2422Z" fill="#60A2D7"/>
<path fill-rule="evenodd" clip-rule="evenodd" d="M16.5347 20.5925C16.5223 21.162 16.5347 21.7311 16.5718 22.2995C16.625 22.2591 16.6621 22.2096 16.6831 22.1511C17.1899 21.6566 17.7095 21.1742 18.2417 20.7038C19.1003 20.6477 19.3354 21.0064 18.9468 21.78C18.4643 22.2624 17.9819 22.7448 17.4995 23.2273C18.1428 23.252 18.7859 23.2768 19.4292 23.3015C19.7683 23.4901 19.8796 23.7746 19.7632 24.155C19.7013 24.3158 19.59 24.4272 19.4292 24.489C18.7859 24.5137 18.1428 24.5385 17.4995 24.5632C18.0066 25.0703 18.5138 25.5775 19.021 26.0847C19.2517 26.9424 18.9425 27.2517 18.0933 27.0124C17.5861 26.5053 17.0789 25.9981 16.5718 25.4909C16.5471 26.1342 16.5223 26.7774 16.4975 27.4206C16.309 27.7597 16.0244 27.8711 15.644 27.7546C15.4832 27.6928 15.3719 27.5814 15.31 27.4206C15.2853 26.7774 15.2605 26.1342 15.2358 25.4909C14.6742 26.1023 14.0681 26.6589 13.4175 27.1609C12.8297 27.1888 12.57 26.9042 12.6382 26.3073C13.1334 25.7504 13.6405 25.2061 14.1597 24.6745C14.2182 24.6535 14.2677 24.6164 14.3081 24.5632C13.7397 24.5261 13.1706 24.5138 12.6011 24.5261C12.3287 24.5389 12.1431 24.4153 12.0444 24.155C11.9373 23.8053 12.0239 23.5208 12.3042 23.3015C12.9722 23.2768 13.6401 23.252 14.3081 23.2273C13.801 22.7201 13.2937 22.2129 12.7866 21.7058C12.5921 21.3177 12.6539 20.9837 12.9722 20.7038C13.2293 20.6432 13.4767 20.668 13.7143 20.778C14.2215 21.2852 14.7287 21.7924 15.2358 22.2995C15.2605 21.6316 15.2853 20.9636 15.31 20.2956C15.6546 19.928 16.0257 19.9032 16.4233 20.2214C16.4982 20.3346 16.5353 20.4583 16.5347 20.5925Z" fill="#B6F8FD"/>
</g>
<defs>
<clipPath id="clip0_345_3529">
<rect width="38" height="38" fill="white"/>
</clipPath>
</defs>
</svg>
