<svg width="38" height="48" viewBox="0 0 38 48" fill="none" xmlns="http://www.w3.org/2000/svg">
<g clip-path="url(#clip0_345_3559)">
<path opacity="0.989" fill-rule="evenodd" clip-rule="evenodd" d="M37.9629 19.3339C37.9629 20.0019 37.9629 20.6699 37.9629 21.3378C37.8216 22.1082 37.5741 22.8504 37.2207 23.5644C35.4186 20.5732 32.7714 19.3114 29.2793 19.7792C28.8397 17.7684 27.677 16.3459 25.791 15.5117C24.2505 14.9567 22.7166 14.969 21.1895 15.5488C21.1399 15.5241 21.0905 15.4993 21.041 15.4746C19.6243 12.3036 17.1751 10.6212 13.6934 10.4277C10.401 10.5677 8.01362 12.1016 6.53125 15.0292C5.69583 16.9749 5.60924 18.9541 6.27148 20.9667C3.89853 21.1662 2.0678 22.2548 0.779297 24.2324C0.37232 23.5058 0.100184 22.7389 -0.0371094 21.9316C-0.0371094 21.2883 -0.0371094 20.6451 -0.0371094 20.0019C0.691714 16.6634 2.75747 14.7832 6.16016 14.3613C5.22963 10.9451 6.05841 8.03828 8.64648 5.64057C11.8176 3.34334 15.0585 3.24438 18.3691 5.34369C19.6364 6.31366 20.5641 7.53827 21.1523 9.01752C23.4484 8.08637 25.5636 8.39557 27.498 9.94525C28.4119 10.8201 29.0304 11.8716 29.3535 13.0996C32.4648 12.7298 34.9511 13.7936 36.8125 16.291C37.4086 17.2338 37.792 18.2482 37.9629 19.3339Z" fill="#60A2D7"/>
<path opacity="0.997" fill-rule="evenodd" clip-rule="evenodd" d="M37.2207 23.5645C37.5599 24.3097 37.8073 25.0767 37.9629 25.8652C37.9629 26.5332 37.9629 27.2012 37.9629 27.8691C37.2436 31.3714 35.116 33.4373 31.5801 34.0664C22.7956 34.1397 14.0131 34.1149 5.23242 33.9922C2.31761 33.2423 0.561101 31.3992 -0.0371094 28.4629C-0.0371094 27.8196 -0.0371094 27.1765 -0.0371094 26.5332C0.12976 25.7361 0.401896 24.9692 0.779297 24.2324C2.0678 22.2549 3.89853 21.1663 6.27148 20.9668C5.60924 18.9541 5.69583 16.9749 6.53125 15.0293C8.01362 12.1017 10.401 10.5678 13.6934 10.4277C17.1751 10.6213 19.6243 12.3036 21.041 15.4746C21.0905 15.4993 21.1399 15.5241 21.1895 15.5488C22.7166 14.969 24.2505 14.9567 25.791 15.5117C27.677 16.3459 28.8397 17.7685 29.2793 19.7793C32.7714 19.3115 35.4186 20.5732 37.2207 23.5645Z" fill="#A2D3F6"/>
</g>
<path opacity="0.986" fill-rule="evenodd" clip-rule="evenodd" d="M15.9461 34.2569C15.9584 38.28 15.9461 42.3031 15.9089 46.3261C15.5897 47.2614 14.9588 47.5717 14.0164 47.2574C13.6715 47.1005 13.4364 46.8398 13.3113 46.4751C13.2742 42.4024 13.2618 38.3297 13.2742 34.2569C13.2618 31.5002 13.2742 28.7436 13.3113 25.9872C13.4517 25.544 13.7362 25.2335 14.1648 25.0559C14.9352 24.8743 15.4918 25.1351 15.8347 25.8382C15.8476 28.6497 15.8847 31.456 15.9461 34.2569Z" fill="#60A2D7"/>
<path opacity="0.986" fill-rule="evenodd" clip-rule="evenodd" d="M26.4109 34.3066C26.4233 38.3392 26.4109 42.3718 26.3738 46.4042C25.9586 47.3345 25.2782 47.5943 24.3328 47.1835C24.0586 46.9841 23.8731 46.7243 23.7761 46.4042C23.739 42.3718 23.7266 38.3392 23.739 34.3066C23.7266 31.5603 23.739 28.8142 23.7761 26.0683C23.8797 25.7497 24.0653 25.49 24.3328 25.289C25.2763 24.8776 25.9566 25.1374 26.3738 26.0683C26.4109 28.8142 26.4233 31.5603 26.4109 34.3066Z" fill="#60A2D7"/>
<path opacity="0.986" fill-rule="evenodd" clip-rule="evenodd" d="M10.6765 34.3066C10.6889 37.5723 10.6765 40.8379 10.6394 44.1034C10.2368 45.0522 9.55649 45.3119 8.5984 44.8827C8.32424 44.6833 8.13869 44.4235 8.04176 44.1034C8.00465 40.8379 7.99225 37.5723 8.00465 34.3066C7.99225 32.1294 8.00465 29.9522 8.04176 27.7753C8.12481 27.4236 8.31036 27.1391 8.5984 26.9218C9.54194 26.5104 10.2222 26.7702 10.6394 27.7011C10.6765 29.9028 10.6889 32.1046 10.6765 34.3066Z" fill="#60A2D7"/>
<path opacity="0.971" fill-rule="evenodd" clip-rule="evenodd" d="M21.2156 34.3066C21.228 37.5723 21.2156 40.8379 21.1785 44.1035C21.0026 45.1501 20.3964 45.5583 19.3601 45.3281C18.8845 45.1242 18.6 44.7655 18.5066 44.2519C18.4695 40.9369 18.4571 37.6218 18.4695 34.3066C18.5307 32.1843 18.5678 30.0568 18.5808 27.9238C18.7098 27.6461 18.8954 27.4111 19.1375 27.2187C20.044 26.8495 20.6996 27.1092 21.1043 27.998C21.1167 30.1135 21.1538 32.2163 21.2156 34.3066Z" fill="#60A2D7"/>
<defs>
<clipPath id="clip0_345_3559">
<rect width="38" height="38" fill="white"/>
</clipPath>
</defs>
</svg>
