<svg width="38" height="38" viewBox="0 0 38 38" fill="none" xmlns="http://www.w3.org/2000/svg">
<g clip-path="url(#clip0_345_3560)">
<path opacity="0.993" fill-rule="evenodd" clip-rule="evenodd" d="M37.9629 16.0683C37.9629 16.7115 37.9629 17.3547 37.9629 17.998C37.4569 20.7759 35.8983 22.7179 33.2871 23.8241C32.8263 23.9827 32.3563 24.1063 31.877 24.1952C30.4191 24.2925 28.9595 24.3296 27.498 24.3065C27.5104 21.5603 27.498 18.8142 27.4609 16.0683C27.0438 15.1373 26.3635 14.8776 25.4199 15.289C25.1524 15.49 24.9669 15.7497 24.8633 16.0683C24.8262 18.8142 24.8138 21.5603 24.8262 24.3065C23.9851 24.3065 23.1439 24.3065 22.3027 24.3065C22.241 22.2163 22.2039 20.1134 22.1914 17.998C21.7868 17.1092 21.1312 16.8494 20.2246 17.2187C19.9825 17.411 19.797 17.6461 19.668 17.9237C19.655 20.0567 19.6179 22.1843 19.5566 24.3065C18.7155 24.3065 17.8743 24.3065 17.0332 24.3065C16.9718 21.5163 16.9347 18.7207 16.9219 15.9198C16.579 15.2194 16.0223 14.9596 15.252 15.1405C14.8233 15.3175 14.5389 15.6267 14.3984 16.0683C14.3613 18.8142 14.3489 21.5603 14.3613 24.3065C13.4954 24.3065 12.6296 24.3065 11.7637 24.3065C11.7761 22.1046 11.7637 19.9028 11.7266 17.7011C11.3094 16.7702 10.6291 16.5104 9.68555 16.9218C9.3975 17.1391 9.21196 17.4236 9.12891 17.7753C9.0918 19.9522 9.0794 22.1293 9.0918 24.3065C7.87743 24.3293 6.66522 24.2922 5.45508 24.1952C2.41519 23.5428 0.584458 21.6996 -0.0371094 18.6659C-0.0371094 18.0227 -0.0371094 17.3795 -0.0371094 16.7362C0.696492 13.3807 2.77462 11.5004 6.19727 11.0956C5.27872 7.87994 5.97143 5.07196 8.27539 2.67178C10.8827 0.478157 13.7772 0.0081054 16.959 1.26163C18.9387 2.16876 20.2993 3.64077 21.041 5.67764C23.7216 4.70691 26.0595 5.22645 28.0547 7.23624C28.6836 7.99935 29.1166 8.86526 29.3535 9.83389C32.2003 9.47534 34.563 10.366 36.4414 12.5058C37.2459 13.5724 37.7531 14.7599 37.9629 16.0683Z" fill="#CFD9D8"/>
<path opacity="0.986" fill-rule="evenodd" clip-rule="evenodd" d="M17.0332 24.2569C17.0456 28.28 17.0332 32.3031 16.9961 36.3261C16.6768 37.2614 16.046 37.5717 15.1035 37.2574C14.7586 37.1005 14.5236 36.8398 14.3984 36.4751C14.3613 32.4024 14.3489 28.3297 14.3613 24.2569C14.3489 21.5002 14.3613 18.7436 14.3984 15.9872C14.5389 15.544 14.8234 15.2335 15.252 15.0559C16.0224 14.8743 16.579 15.1351 16.9219 15.8382C16.9347 18.6497 16.9718 21.456 17.0332 24.2569Z" fill="#60A2D7"/>
<path opacity="0.986" fill-rule="evenodd" clip-rule="evenodd" d="M27.4981 24.3066C27.5105 28.3392 27.4981 32.3718 27.4609 36.4042C27.0458 37.3345 26.3654 37.5943 25.4199 37.1835C25.1458 36.9841 24.9602 36.7243 24.8633 36.4042C24.8262 32.3718 24.8138 28.3392 24.8262 24.3066C24.8138 21.5603 24.8262 18.8142 24.8633 16.0683C24.9669 15.7497 25.1524 15.49 25.4199 15.289C26.3635 14.8776 27.0438 15.1374 27.4609 16.0683C27.4981 18.8142 27.5105 21.5603 27.4981 24.3066Z" fill="#60A2D7"/>
<path opacity="0.986" fill-rule="evenodd" clip-rule="evenodd" d="M11.7637 24.3066C11.7761 27.5723 11.7637 30.8379 11.7266 34.1034C11.3239 35.0522 10.6436 35.3119 9.68556 34.8827C9.41139 34.6833 9.22585 34.4235 9.12892 34.1034C9.09181 30.8379 9.07941 27.5723 9.09181 24.3066C9.07941 22.1294 9.09181 19.9522 9.12892 17.7753C9.21197 17.4236 9.39751 17.1391 9.68556 16.9218C10.6291 16.5104 11.3094 16.7702 11.7266 17.7011C11.7637 19.9028 11.7761 22.1046 11.7637 24.3066Z" fill="#60A2D7"/>
<path opacity="0.971" fill-rule="evenodd" clip-rule="evenodd" d="M22.3027 24.3066C22.3151 27.5723 22.3027 30.8379 22.2656 34.1035C22.0897 35.1501 21.4836 35.5583 20.4473 35.3281C19.9717 35.1242 19.6871 34.7655 19.5938 34.2519C19.5567 30.9369 19.5443 27.6218 19.5567 24.3066C19.6179 22.1843 19.655 20.0568 19.668 17.9238C19.797 17.6461 19.9825 17.4111 20.2246 17.2187C21.1312 16.8495 21.7868 17.1092 22.1914 17.998C22.2039 20.1135 22.241 22.2163 22.3027 24.3066Z" fill="#60A2D7"/>
</g>
<defs>
<clipPath id="clip0_345_3560">
<rect width="38" height="38" fill="white"/>
</clipPath>
</defs>
</svg>
