<svg width="38" height="38" viewBox="0 0 38 38" fill="none" xmlns="http://www.w3.org/2000/svg">
<g clip-path="url(#clip0_345_3601)">
<path opacity="0.993" fill-rule="evenodd" clip-rule="evenodd" d="M37.9629 16.0683C37.9629 16.7115 37.9629 17.3547 37.9629 17.998C37.4569 20.7759 35.8983 22.7179 33.2871 23.8241C32.8263 23.9827 32.3563 24.1063 31.877 24.1952C30.4191 24.2925 28.9595 24.3296 27.498 24.3065C27.5104 21.5603 27.498 18.8142 27.4609 16.0683C27.0438 15.1373 26.3635 14.8776 25.4199 15.289C25.1524 15.49 24.9669 15.7497 24.8633 16.0683C24.8262 18.8142 24.8138 21.5603 24.8262 24.3065C23.9851 24.3065 23.1439 24.3065 22.3027 24.3065C22.241 22.2163 22.2039 20.1134 22.1914 17.998C21.7868 17.1092 21.1312 16.8494 20.2246 17.2187C19.9825 17.411 19.797 17.6461 19.668 17.9237C19.655 20.0567 19.6179 22.1843 19.5566 24.3065C18.7155 24.3065 17.8743 24.3065 17.0332 24.3065C16.9718 21.5163 16.9347 18.7207 16.9219 15.9198C16.579 15.2194 16.0223 14.9596 15.252 15.1405C14.8233 15.3175 14.5389 15.6267 14.3984 16.0683C14.3613 18.8142 14.3489 21.5603 14.3613 24.3065C13.4954 24.3065 12.6296 24.3065 11.7637 24.3065C11.7761 22.1046 11.7637 19.9028 11.7266 17.7011C11.3094 16.7702 10.6291 16.5104 9.68555 16.9218C9.3975 17.1391 9.21196 17.4236 9.12891 17.7753C9.0918 19.9522 9.0794 22.1293 9.0918 24.3065C7.87743 24.3293 6.66522 24.2922 5.45508 24.1952C2.41519 23.5428 0.584458 21.6996 -0.0371094 18.6659C-0.0371094 18.0227 -0.0371094 17.3795 -0.0371094 16.7362C0.696492 13.3807 2.77462 11.5004 6.19727 11.0956C5.27872 7.87994 5.97143 5.07196 8.27539 2.67178C10.8827 0.478157 13.7772 0.0081054 16.959 1.26163C18.9387 2.16876 20.2993 3.64077 21.041 5.67764C23.7216 4.70691 26.0595 5.22645 28.0547 7.23624C28.6836 7.99935 29.1166 8.86526 29.3535 9.83389C32.2003 9.47534 34.563 10.366 36.4414 12.5058C37.2459 13.5724 37.7531 14.7599 37.9629 16.0683Z" fill="#CFD9D8"/>
<path opacity="0.986" fill-rule="evenodd" clip-rule="evenodd" d="M17.0332 20.3781C17.0456 22.7154 17.0332 25.0528 16.9961 27.39C16.6768 27.9334 16.046 28.1137 15.1035 27.9311C14.7586 27.8399 14.5236 27.6884 14.3984 27.4766C14.3613 25.1105 14.3489 22.7443 14.3613 20.3781C14.3489 18.7765 14.3613 17.175 14.3984 15.5735C14.5389 15.316 14.8234 15.1357 15.252 15.0325C16.0224 14.927 16.579 15.0785 16.9219 15.487C16.9347 17.1204 16.9718 18.7508 17.0332 20.3781Z" fill="#60A2D7"/>
<path opacity="0.986" fill-rule="evenodd" clip-rule="evenodd" d="M27.4981 20.4324C27.5105 22.768 27.4981 25.1037 27.4609 27.4393C27.0458 27.9782 26.3654 28.1286 25.4199 27.8907C25.1458 27.7752 24.9602 27.6247 24.8633 27.4393C24.8262 25.1037 24.8138 22.768 24.8262 20.4324C24.8138 18.8417 24.8262 17.2512 24.8633 15.6608C24.9669 15.4763 25.1524 15.3258 25.4199 15.2094C26.3635 14.9711 27.0438 15.1216 27.4609 15.6608C27.4981 17.2512 27.5105 18.8417 27.4981 20.4324Z" fill="#60A2D7"/>
<path opacity="0.986" fill-rule="evenodd" clip-rule="evenodd" d="M11.7637 24.3066C11.7761 27.5723 11.7637 30.8379 11.7266 34.1034C11.3239 35.0522 10.6436 35.3119 9.68556 34.8827C9.41139 34.6833 9.22585 34.4235 9.12892 34.1034C9.09181 30.8379 9.07941 27.5723 9.09181 24.3066C9.07941 22.1294 9.09181 19.9522 9.12892 17.7753C9.21197 17.4236 9.39751 17.1391 9.68556 16.9218C10.6291 16.5104 11.3094 16.7702 11.7266 17.7011C11.7637 19.9028 11.7761 22.1046 11.7637 24.3066Z" fill="#60A2D7"/>
<path opacity="0.971" fill-rule="evenodd" clip-rule="evenodd" d="M22.3027 24.3066C22.3151 27.5723 22.3027 30.8379 22.2656 34.1035C22.0897 35.1501 21.4836 35.5583 20.4473 35.3281C19.9717 35.1242 19.6871 34.7655 19.5938 34.2519C19.5567 30.9369 19.5443 27.6218 19.5567 24.3066C19.6179 22.1843 19.655 20.0568 19.668 17.9238C19.797 17.6461 19.9825 17.4111 20.2246 17.2187C21.1312 16.8495 21.7868 17.1092 22.1914 17.998C22.2039 20.1135 22.241 22.2163 22.3027 24.3066Z" fill="#60A2D7"/>
<path opacity="0.977" fill-rule="evenodd" clip-rule="evenodd" d="M27.3075 30.4542C27.5916 31.0425 27.8126 31.6556 27.9705 32.2933C28.1067 33.1693 27.7716 33.7752 26.9654 34.1111C26.0501 34.2987 25.4157 33.9636 25.0621 33.106C24.9793 32.8063 24.9793 32.5069 25.0621 32.2078C25.2201 31.598 25.4411 31.0135 25.725 30.4542C25.9767 29.9653 26.2404 29.4805 26.5163 29C26.7756 29.4926 27.0394 29.9774 27.3075 30.4542Z" fill="#60A2D7"/>
<path opacity="0.977" fill-rule="evenodd" clip-rule="evenodd" d="M16.3075 32.4542C16.5916 33.0425 16.8126 33.6556 16.9705 34.2933C17.1067 35.1693 16.7716 35.7752 15.9654 36.1111C15.0501 36.2987 14.4157 35.9636 14.0621 35.106C13.9793 34.8063 13.9793 34.5069 14.0621 34.2078C14.2201 33.598 14.4411 33.0135 14.725 32.4542C14.9767 31.9653 15.2404 31.4805 15.5163 31C15.7756 31.4926 16.0394 31.9774 16.3075 32.4542Z" fill="#60A2D7"/>
</g>
<defs>
<clipPath id="clip0_345_3601">
<rect width="38" height="38" fill="white"/>
</clipPath>
</defs>
</svg>
