<svg width="38" height="38" viewBox="0 0 38 38" fill="none" xmlns="http://www.w3.org/2000/svg">
<g clip-path="url(#clip0_345_3572)">
<path opacity="0.993" fill-rule="evenodd" clip-rule="evenodd" d="M37.9629 16.0683C37.9629 16.7115 37.9629 17.3547 37.9629 17.998C37.4569 20.7759 35.8983 22.7179 33.2871 23.8241C32.8263 23.9827 32.3563 24.1063 31.877 24.1952C30.4191 24.2925 28.9595 24.3296 27.498 24.3065C27.5104 21.5603 27.498 18.8142 27.4609 16.0683C27.0438 15.1373 26.3635 14.8776 25.4199 15.289C25.1524 15.49 24.9669 15.7497 24.8633 16.0683C24.8262 18.8142 24.8138 21.5603 24.8262 24.3065C23.9851 24.3065 23.1439 24.3065 22.3027 24.3065C22.241 22.2163 22.2039 20.1134 22.1914 17.998C21.7868 17.1092 21.1312 16.8494 20.2246 17.2187C19.9825 17.411 19.797 17.6461 19.668 17.9237C19.655 20.0567 19.6179 22.1843 19.5566 24.3065C18.7155 24.3065 17.8743 24.3065 17.0332 24.3065C16.9718 21.5163 16.9347 18.7207 16.9219 15.9198C16.579 15.2194 16.0223 14.9596 15.252 15.1405C14.8233 15.3175 14.5389 15.6267 14.3984 16.0683C14.3613 18.8142 14.3489 21.5603 14.3613 24.3065C13.4954 24.3065 12.6296 24.3065 11.7637 24.3065C11.7761 22.1046 11.7637 19.9028 11.7266 17.7011C11.3094 16.7702 10.6291 16.5104 9.68555 16.9218C9.3975 17.1391 9.21196 17.4236 9.12891 17.7753C9.0918 19.9522 9.0794 22.1293 9.0918 24.3065C7.87743 24.3293 6.66522 24.2922 5.45508 24.1952C2.41519 23.5428 0.584458 21.6996 -0.0371094 18.6659C-0.0371094 18.0227 -0.0371094 17.3795 -0.0371094 16.7362C0.696492 13.3807 2.77462 11.5004 6.19727 11.0956C5.27872 7.87994 5.97143 5.07196 8.27539 2.67178C10.8827 0.478157 13.7772 0.0081054 16.959 1.26163C18.9387 2.16876 20.2993 3.64077 21.041 5.67764C23.7216 4.70691 26.0595 5.22645 28.0547 7.23624C28.6836 7.99935 29.1166 8.86526 29.3535 9.83389C32.2003 9.47534 34.563 10.366 36.4414 12.5058C37.2459 13.5724 37.7531 14.7599 37.9629 16.0683Z" fill="#CFD9D8"/>
<path opacity="0.986" fill-rule="evenodd" clip-rule="evenodd" d="M16.9948 19.5507C17.0087 21.5284 16.9948 23.5062 16.9533 25.4839C16.596 25.9436 15.8901 26.0962 14.8356 25.9417C14.4497 25.8646 14.1867 25.7364 14.0467 25.5571C14.0052 23.555 13.9913 21.5529 14.0052 19.5507C13.9913 18.1955 14.0052 16.8404 14.0467 15.4853C14.2038 15.2674 14.5222 15.1148 15.0017 15.0275C15.8637 14.9382 16.4866 15.0664 16.8702 15.4121C16.8846 16.7942 16.9261 18.1738 16.9948 19.5507Z" fill="#60A2D7"/>
<path opacity="0.986" fill-rule="evenodd" clip-rule="evenodd" d="M16.9948 31.5507C17.0087 33.5284 16.9948 35.5062 16.9533 37.4839C16.596 37.9436 15.8901 38.0962 14.8356 37.9417C14.4497 37.8646 14.1867 37.7364 14.0467 37.5571C14.0052 35.555 13.9913 33.5529 14.0052 31.5507C13.9913 30.1955 14.0052 28.8404 14.0467 27.4853C14.2038 27.2674 14.5222 27.1148 15.0017 27.0275C15.8637 26.9382 16.4866 27.0664 16.8702 27.4121C16.8846 28.7942 16.9261 30.1738 16.9948 31.5507Z" fill="#60A2D7"/>
<path opacity="0.986" fill-rule="evenodd" clip-rule="evenodd" d="M27.4981 20.019C27.5105 22.1736 27.4981 24.3282 27.4609 26.4828C27.0458 26.9798 26.3654 27.1186 25.4199 26.8992C25.1458 26.7926 24.9602 26.6538 24.8633 26.4828C24.8262 24.3282 24.8138 22.1736 24.8262 20.019C24.8138 18.5517 24.8262 17.0844 24.8633 15.6173C24.9669 15.4471 25.1524 15.3083 25.4199 15.2009C26.3635 14.9811 27.0438 15.1199 27.4609 15.6173C27.4981 17.0844 27.5105 18.5517 27.4981 20.019Z" fill="#60A2D7"/>
<path opacity="0.986" fill-rule="evenodd" clip-rule="evenodd" d="M27.6765 32.1337C27.6889 33.9443 27.6765 35.7548 27.6394 37.5654C27.2242 37.9831 26.5439 38.0997 25.5984 37.9153C25.3242 37.8257 25.1387 37.7091 25.0418 37.5654C25.0046 35.7548 24.9923 33.9443 25.0046 32.1337C24.9923 30.9007 25.0046 29.6677 25.0418 28.4348C25.1454 28.2918 25.3309 28.1752 25.5984 28.0849C26.5419 27.9002 27.2222 28.0168 27.6394 28.4348C27.6765 29.6677 27.6889 30.9007 27.6765 32.1337Z" fill="#60A2D7"/>
<path opacity="0.986" fill-rule="evenodd" clip-rule="evenodd" d="M11.7637 22.2085C11.7761 24.5696 11.7637 26.9306 11.7266 29.2916C11.3239 29.9775 10.6436 30.1653 9.68556 29.855C9.41139 29.7108 9.22585 29.523 9.12892 29.2916C9.09181 26.9306 9.07941 24.5696 9.09181 22.2085C9.07941 20.6344 9.09181 19.0604 9.12892 17.4865C9.21197 17.2322 9.39751 17.0265 9.68556 16.8694C10.6291 16.572 11.3094 16.7598 11.7266 17.4328C11.7637 19.0246 11.7761 20.6165 11.7637 22.2085Z" fill="#60A2D7"/>
<path opacity="0.971" fill-rule="evenodd" clip-rule="evenodd" d="M22.3027 20.5931C22.3151 22.1862 22.3027 23.7792 22.2656 25.3722C22.0897 25.8828 21.4836 26.0819 20.4473 25.9696C19.9717 25.8702 19.6871 25.6952 19.5938 25.4446C19.5567 23.8275 19.5443 22.2103 19.5567 20.5931C19.6179 19.5578 19.655 18.5199 19.668 17.4794C19.797 17.344 19.9825 17.2293 20.2246 17.1355C21.1312 16.9553 21.7868 17.0821 22.1914 17.5156C22.2039 18.5476 22.241 19.5734 22.3027 20.5931Z" fill="#60A2D7"/>
<path opacity="0.971" fill-rule="evenodd" clip-rule="evenodd" d="M22.7507 31.5369C22.7631 33.13 22.7507 34.7231 22.7136 36.3161C22.5377 36.8267 21.9316 37.0258 20.8953 36.9135C20.4197 36.814 20.1351 36.639 20.0418 36.3885C20.0046 34.7714 19.9923 33.1542 20.0046 31.5369C20.0659 30.5016 20.103 29.4638 20.116 28.4233C20.245 28.2878 20.4305 28.1731 20.6726 28.0793C21.5792 27.8992 22.2348 28.0259 22.6394 28.4595C22.6519 29.4914 22.689 30.5172 22.7507 31.5369Z" fill="#60A2D7"/>
</g>
<defs>
<clipPath id="clip0_345_3572">
<rect width="38" height="38" fill="white"/>
</clipPath>
</defs>
</svg>
