<svg width="38" height="38" viewBox="0 0 38 38" fill="none" xmlns="http://www.w3.org/2000/svg">
<g clip-path="url(#clip0_348_3716)">
<path opacity="0.993" fill-rule="evenodd" clip-rule="evenodd" d="M17.7754 9.31457C18.2203 9.77198 18.6533 10.242 19.0742 10.7247C19.4478 11.2744 19.7817 11.8434 20.0762 12.4318C21.0755 12.0164 22.1145 11.8803 23.1934 12.0236C25.6234 12.487 27.1572 13.9095 27.7949 16.2911C28.5856 16.2211 29.3772 16.2088 30.1699 16.254C31.0384 16.4322 31.8796 16.692 32.6934 17.0333C35.1846 18.6517 36.2855 20.9524 35.9961 23.9357C35.3652 27.0405 33.4974 28.9083 30.3926 29.5392C28.8358 29.6389 27.2772 29.676 25.7168 29.6505C25.6081 29.0362 25.2617 28.8507 24.6777 29.0939C24.4862 29.3231 24.2635 29.5086 24.0098 29.6505C23.7376 29.6505 23.4655 29.6505 23.1934 29.6505C23.1519 29.2771 23.09 28.906 23.0078 28.5372C22.5871 28.205 22.216 28.2545 21.8945 28.6857C21.8575 29.0064 21.8451 29.328 21.8574 29.6505C21.5853 29.6505 21.3132 29.6505 21.041 29.6505C20.7611 29.458 20.4889 29.2477 20.2246 29.0196C19.6775 28.8867 19.3558 29.0969 19.2598 29.6505C17.0332 29.6505 14.8066 29.6505 12.5801 29.6505C12.3079 29.5516 12.0358 29.5516 11.7637 29.6505C9.88327 29.6629 8.00308 29.6505 6.12305 29.6134C3.4507 29.4104 1.53339 28.1116 0.371094 25.7169C0.209456 25.2698 0.0733885 24.8245 -0.0371094 24.381C-0.0371094 23.8119 -0.0371094 23.243 -0.0371094 22.6739C0.40988 20.284 1.77056 18.6387 4.04492 17.7384C4.64946 17.5457 5.26794 17.4344 5.90039 17.4044C5.01126 13.9734 5.95136 11.1655 8.7207 8.98059C10.8755 7.59492 13.1763 7.29802 15.623 8.08996C16.4126 8.38535 17.1301 8.79356 17.7754 9.31457Z" fill="#A3D4F6"/>
<path opacity="0.955" fill-rule="evenodd" clip-rule="evenodd" d="M23.1934 29.6504C23.1811 29.9237 23.1935 30.1958 23.2305 30.4668C23.5054 30.2044 23.7652 29.9323 24.0098 29.6504C24.2635 29.5085 24.4862 29.323 24.6778 29.0938C25.2617 28.8506 25.6081 29.0361 25.7168 29.6504C25.7175 29.7846 25.6804 29.9083 25.6055 30.0215C25.1231 30.504 24.6407 30.9864 24.1582 31.4688C24.7767 31.4935 25.3952 31.5183 26.0137 31.543C26.3592 31.758 26.4705 32.0672 26.3477 32.4708C26.2566 32.636 26.1205 32.7473 25.9395 32.8047C25.3704 32.8295 24.8015 32.8542 24.2324 32.879C24.742 33.3637 25.2244 33.8708 25.6797 34.4004C25.8564 34.965 25.6586 35.3114 25.086 35.4395C24.9746 35.4024 24.8633 35.3653 24.752 35.3282C24.2224 34.8728 23.7152 34.3904 23.2305 33.8809C23.2058 34.4499 23.181 35.0189 23.1563 35.5879C22.9153 36.0416 22.5566 36.1529 22.0801 35.9219C21.991 35.8549 21.9291 35.7684 21.8946 35.6622C21.8698 35.0437 21.8451 34.4252 21.8203 33.8067C21.3132 34.3138 20.806 34.821 20.2989 35.3282C19.7107 35.5537 19.3644 35.3557 19.2598 34.7344C19.2629 34.5884 19.3 34.4523 19.3711 34.3262C19.8535 33.8438 20.336 33.3614 20.8184 32.879C20.1676 32.8747 19.5244 32.8251 18.8887 32.7305C18.4853 32.313 18.51 31.9172 18.9629 31.543C19.5814 31.5183 20.1999 31.4935 20.8184 31.4688C20.3607 31.0111 19.903 30.5535 19.4453 30.0958C19.3296 29.9683 19.2678 29.8199 19.2598 29.6504C19.3558 29.0968 19.6775 28.8866 20.2246 29.0196C20.4889 29.2477 20.7611 29.4579 21.041 29.6504C21.2857 29.9323 21.5454 30.2044 21.8203 30.4668C21.8574 30.1958 21.8697 29.9237 21.8574 29.6504C21.8451 29.3279 21.8575 29.0063 21.8946 28.6856C22.216 28.2545 22.5871 28.205 23.0078 28.5372C23.09 28.906 23.1519 29.277 23.1934 29.6504ZM21.041 29.6504C21.3132 29.6504 21.5853 29.6504 21.8574 29.6504C21.8697 29.9237 21.8574 30.1958 21.8203 30.4668C21.5454 30.2044 21.2857 29.9323 21.041 29.6504ZM23.1934 29.6504C23.4655 29.6504 23.7376 29.6504 24.0098 29.6504C23.7652 29.9323 23.5054 30.2044 23.2305 30.4668C23.1935 30.1958 23.1811 29.9237 23.1934 29.6504Z" fill="#B6F8FD"/>
</g>
<defs>
<clipPath id="clip0_348_3716">
<rect width="38" height="38" fill="white"/>
</clipPath>
</defs>
</svg>
