<svg width="38" height="38" viewBox="0 0 38 38" fill="none" xmlns="http://www.w3.org/2000/svg">
<g clip-path="url(#clip0_348_3746)">
<path opacity="0.993" fill-rule="evenodd" clip-rule="evenodd" d="M17.7754 9.31457C18.2203 9.77198 18.6533 10.242 19.0742 10.7247C19.4478 11.2744 19.7817 11.8434 20.0762 12.4318C21.0755 12.0164 22.1145 11.8803 23.1934 12.0236C25.6234 12.487 27.1572 13.9095 27.7949 16.2911C28.5856 16.2211 29.3772 16.2088 30.1699 16.254C31.0384 16.4322 31.8796 16.692 32.6934 17.0333C35.1846 18.6517 36.2855 20.9524 35.9961 23.9357C35.3652 27.0405 33.4974 28.9083 30.3926 29.5392C28.8358 29.6389 27.2772 29.676 25.7168 29.6505C25.6081 29.0362 25.2617 28.8507 24.6777 29.0939C24.4862 29.3231 24.2635 29.5086 24.0098 29.6505C23.7376 29.6505 23.4655 29.6505 23.1934 29.6505C23.1519 29.2771 23.09 28.906 23.0078 28.5372C22.5871 28.205 22.216 28.2545 21.8945 28.6857C21.8575 29.0064 21.8451 29.328 21.8574 29.6505C21.5853 29.6505 21.3132 29.6505 21.041 29.6505C20.7611 29.458 20.4889 29.2477 20.2246 29.0196C19.6775 28.8867 19.3558 29.0969 19.2598 29.6505C17.0332 29.6505 14.8066 29.6505 12.5801 29.6505C12.3079 29.5516 12.0358 29.5516 11.7637 29.6505C9.88327 29.6629 8.00308 29.6505 6.12305 29.6134C3.4507 29.4104 1.53339 28.1116 0.371094 25.7169C0.209456 25.2698 0.0733885 24.8245 -0.0371094 24.381C-0.0371094 23.8119 -0.0371094 23.243 -0.0371094 22.6739C0.40988 20.284 1.77056 18.6387 4.04492 17.7384C4.64946 17.5457 5.26794 17.4344 5.90039 17.4044C5.01126 13.9734 5.95136 11.1655 8.7207 8.98059C10.8755 7.59492 13.1763 7.29802 15.623 8.08996C16.4126 8.38535 17.1301 8.79356 17.7754 9.31457Z" fill="#A3D4F6"/>
<path opacity="0.955" fill-rule="evenodd" clip-rule="evenodd" d="M23.1934 29.6504C23.1811 29.9237 23.1935 30.1958 23.2305 30.4668C23.5054 30.2044 23.7652 29.9323 24.0098 29.6504C24.2635 29.5085 24.4862 29.323 24.6778 29.0938C25.2617 28.8506 25.6081 29.0361 25.7168 29.6504C25.7175 29.7846 25.6804 29.9083 25.6055 30.0215C25.1231 30.504 24.6407 30.9864 24.1582 31.4688C24.7767 31.4935 25.3952 31.5183 26.0137 31.543C26.3592 31.758 26.4705 32.0672 26.3477 32.4708C26.2566 32.636 26.1205 32.7473 25.9395 32.8047C25.3704 32.8295 24.8015 32.8542 24.2324 32.879C24.742 33.3637 25.2244 33.8708 25.6797 34.4004C25.8564 34.965 25.6586 35.3114 25.086 35.4395C24.9746 35.4024 24.8633 35.3653 24.752 35.3282C24.2224 34.8728 23.7152 34.3904 23.2305 33.8809C23.2058 34.4499 23.181 35.0189 23.1563 35.5879C22.9153 36.0416 22.5566 36.1529 22.0801 35.9219C21.991 35.8549 21.9291 35.7684 21.8946 35.6622C21.8698 35.0437 21.8451 34.4252 21.8203 33.8067C21.3132 34.3138 20.806 34.821 20.2989 35.3282C19.7107 35.5537 19.3644 35.3557 19.2598 34.7344C19.2629 34.5884 19.3 34.4523 19.3711 34.3262C19.8535 33.8438 20.336 33.3614 20.8184 32.879C20.1676 32.8747 19.5244 32.8251 18.8887 32.7305C18.4853 32.313 18.51 31.9172 18.9629 31.543C19.5814 31.5183 20.1999 31.4935 20.8184 31.4688C20.3607 31.0111 19.903 30.5535 19.4453 30.0958C19.3296 29.9683 19.2678 29.8199 19.2598 29.6504C19.3558 29.0968 19.6775 28.8866 20.2246 29.0196C20.4889 29.2477 20.7611 29.4579 21.041 29.6504C21.2857 29.9323 21.5454 30.2044 21.8203 30.4668C21.8574 30.1958 21.8697 29.9237 21.8574 29.6504C21.8451 29.3279 21.8575 29.0063 21.8946 28.6856C22.216 28.2545 22.5871 28.205 23.0078 28.5372C23.09 28.906 23.1519 29.277 23.1934 29.6504ZM21.041 29.6504C21.3132 29.6504 21.5853 29.6504 21.8574 29.6504C21.8697 29.9237 21.8574 30.1958 21.8203 30.4668C21.5454 30.2044 21.2857 29.9323 21.041 29.6504ZM23.1934 29.6504C23.4655 29.6504 23.7376 29.6504 24.0098 29.6504C23.7652 29.9323 23.5054 30.2044 23.2305 30.4668C23.1935 30.1958 23.1811 29.9237 23.1934 29.6504Z" fill="#B6F8FD"/>
<path opacity="0.946" fill-rule="evenodd" clip-rule="evenodd" d="M12.5801 29.6504C12.7015 29.7431 12.7881 29.8668 12.8398 30.0215C12.8645 30.5905 12.8893 31.1595 12.914 31.7285C13.3988 31.219 13.9059 30.7366 14.4355 30.2812C14.9886 30.0888 15.335 30.2867 15.4746 30.875C15.4273 31.0416 15.3655 31.2024 15.289 31.3574C14.8313 31.8151 14.3737 32.2727 13.916 32.7305C14.485 32.7552 15.054 32.78 15.623 32.8047C16.0767 33.0457 16.188 33.4044 15.957 33.8808C15.89 33.97 15.8035 34.0319 15.6972 34.0664C15.0788 34.0911 14.4602 34.1159 13.8418 34.1406C14.3489 34.6477 14.8561 35.155 15.3633 35.6621C15.5315 36.5008 15.1975 36.81 14.3613 36.5898C13.8789 36.1074 13.3965 35.625 12.914 35.1426C12.8893 35.7363 12.8645 36.3301 12.8398 36.9238C12.4559 37.4831 12.0353 37.5078 11.5781 36.998C11.5534 36.3796 11.5286 35.761 11.5039 35.1426C11.0215 35.625 10.539 36.1074 10.0566 36.5898C9.44075 36.8749 9.06966 36.6894 8.94334 36.0332C8.96286 35.8456 9.02468 35.6724 9.12889 35.5137C9.58659 35.0559 10.0442 34.5983 10.5019 34.1406C9.88347 34.1159 9.26493 34.0911 8.64646 34.0664C8.13547 33.5794 8.18497 33.1588 8.7949 32.8047C9.36394 32.78 9.9329 32.7552 10.5019 32.7305C10.0442 32.2727 9.58659 31.8151 9.12889 31.3574C8.81628 30.7458 8.9895 30.35 9.64842 30.1699C9.75225 30.2239 9.86358 30.261 9.9824 30.2812C10.4895 30.7884 10.9967 31.2956 11.5039 31.8027C11.5286 31.1843 11.5534 30.5657 11.5781 29.9472C11.6272 29.8371 11.6891 29.7382 11.7637 29.6504C12.0358 29.5514 12.3079 29.5514 12.5801 29.6504Z" fill="#B6F8FD"/>
</g>
<defs>
<clipPath id="clip0_348_3746">
<rect width="38" height="38" fill="white"/>
</clipPath>
</defs>
</svg>
