<svg width="38" height="38" viewBox="0 0 38 38" fill="none" xmlns="http://www.w3.org/2000/svg">
<g clip-path="url(#clip0_348_3763)">
<path opacity="0.993" fill-rule="evenodd" clip-rule="evenodd" d="M17.7754 9.31457C18.2203 9.77198 18.6533 10.242 19.0742 10.7247C19.4478 11.2744 19.7817 11.8434 20.0762 12.4318C21.0755 12.0164 22.1145 11.8803 23.1934 12.0236C25.6234 12.487 27.1572 13.9095 27.7949 16.2911C28.5856 16.2211 29.3772 16.2088 30.1699 16.254C31.0384 16.4322 31.8796 16.692 32.6934 17.0333C35.1846 18.6517 36.2855 20.9524 35.9961 23.9357C35.3652 27.0405 33.4974 28.9083 30.3926 29.5392C28.8358 29.6389 27.2772 29.676 25.7168 29.6505C25.6081 29.0362 25.2617 28.8507 24.6777 29.0939C24.4862 29.3231 24.2635 29.5086 24.0098 29.6505C23.7376 29.6505 23.4655 29.6505 23.1934 29.6505C23.1519 29.2771 23.09 28.906 23.0078 28.5372C22.5871 28.205 22.216 28.2545 21.8945 28.6857C21.8575 29.0064 21.8451 29.328 21.8574 29.6505C21.5853 29.6505 21.3132 29.6505 21.041 29.6505C20.7611 29.458 20.4889 29.2477 20.2246 29.0196C19.6775 28.8867 19.3558 29.0969 19.2598 29.6505C17.0332 29.6505 14.8066 29.6505 12.5801 29.6505C12.3079 29.5516 12.0358 29.5516 11.7637 29.6505C9.88327 29.6629 8.00308 29.6505 6.12305 29.6134C3.4507 29.4104 1.53339 28.1116 0.371094 25.7169C0.209456 25.2698 0.0733885 24.8245 -0.0371094 24.381C-0.0371094 23.8119 -0.0371094 23.243 -0.0371094 22.6739C0.40988 20.284 1.77056 18.6387 4.04492 17.7384C4.64946 17.5457 5.26794 17.4344 5.90039 17.4044C5.01126 13.9734 5.95136 11.1655 8.7207 8.98059C10.8755 7.59492 13.1763 7.29802 15.623 8.08996C16.4126 8.38535 17.1301 8.79356 17.7754 9.31457Z" fill="#A3D4F6"/>
<path fill-rule="evenodd" clip-rule="evenodd" d="M15.7715 20.5958C16.1948 20.5168 16.5041 20.6652 16.6992 21.0411C16.7239 21.6348 16.7487 22.2286 16.7734 22.8223C17.2558 22.3399 17.7383 21.8575 18.2207 21.3751C19.0361 21.1269 19.3454 21.4115 19.1484 22.2286C18.6931 22.7582 18.2107 23.2653 17.7011 23.7501C18.2949 23.7748 18.8886 23.7996 19.4824 23.8243C19.9367 24.0978 20.0232 24.4566 19.7422 24.9004C19.6865 24.9469 19.6246 24.984 19.5566 25.0118C18.9134 25.0365 18.2702 25.0613 17.6269 25.086C18.1341 25.5931 18.6413 26.1003 19.1484 26.6075C19.3776 27.3247 19.1178 27.6587 18.3691 27.6094C17.8147 27.1294 17.2828 26.6222 16.7734 26.0879C16.7487 26.6322 16.7239 27.1765 16.6992 27.7208C16.5156 28.3256 16.1569 28.4617 15.623 28.129C15.5327 28.0067 15.4709 27.8706 15.4375 27.7208C15.4128 27.1765 15.388 26.6322 15.3633 26.0879C14.9055 26.5457 14.4479 27.0033 13.9902 27.461C13.1722 27.8255 12.8135 27.5657 12.914 26.6817C13.446 26.1498 13.9778 25.6179 14.5097 25.086C13.8665 25.0613 13.2233 25.0365 12.5801 25.0118C12.2409 24.8232 12.1296 24.5386 12.2461 24.1583C12.3676 23.9868 12.5284 23.8755 12.7285 23.8243C13.2975 23.7996 13.8665 23.7748 14.4355 23.7501C13.9013 23.2406 13.3941 22.7088 12.914 22.1544C12.8333 21.3696 13.1673 21.1099 13.916 21.3751C14.3984 21.8575 14.8808 22.3399 15.3633 22.8223C15.388 22.2286 15.4128 21.6348 15.4375 21.0411C15.5363 20.8808 15.6477 20.7323 15.7715 20.5958Z" fill="#B6F8FD"/>
<path opacity="0.955" fill-rule="evenodd" clip-rule="evenodd" d="M23.1933 29.6504C23.181 29.9237 23.1933 30.1958 23.2304 30.4668C23.5053 30.2044 23.765 29.9323 24.0097 29.6504C24.2634 29.5085 24.4861 29.323 24.6776 29.0938C25.2616 28.8506 25.608 29.0361 25.7167 29.6504C25.7174 29.7846 25.6803 29.9083 25.6054 30.0215C25.123 30.504 24.6405 30.9864 24.1581 31.4688C24.7766 31.4935 25.3951 31.5183 26.0136 31.543C26.3591 31.758 26.4704 32.0672 26.3476 32.4708C26.2565 32.636 26.1204 32.7473 25.9394 32.8047C25.3703 32.8295 24.8014 32.8542 24.2323 32.879C24.7418 33.3637 25.2243 33.8708 25.6796 34.4004C25.8563 34.965 25.6584 35.3114 25.0858 35.4395C24.9745 35.4024 24.8632 35.3653 24.7519 35.3282C24.2222 34.8728 23.7151 34.3904 23.2304 33.8809C23.2057 34.4499 23.1809 35.0189 23.1562 35.5879C22.9152 36.0416 22.5565 36.1529 22.08 35.9219C21.9908 35.8549 21.9289 35.7684 21.8944 35.6622C21.8697 35.0437 21.8449 34.4252 21.8202 33.8067C21.3131 34.3138 20.8059 34.821 20.2987 35.3282C19.7106 35.5537 19.3643 35.3557 19.2597 34.7344C19.2628 34.5884 19.2999 34.4523 19.371 34.3262C19.8534 33.8438 20.3358 33.3614 20.8183 32.879C20.1675 32.8747 19.5243 32.8251 18.8886 32.7305C18.4852 32.313 18.5099 31.9172 18.9628 31.543C19.5813 31.5183 20.1998 31.4935 20.8183 31.4688C20.3606 31.0111 19.9029 30.5535 19.4452 30.0958C19.3295 29.9683 19.2677 29.8199 19.2597 29.6504C19.3557 29.0968 19.6774 28.8866 20.2245 29.0196C20.4888 29.2477 20.761 29.4579 21.0409 29.6504C21.2855 29.9323 21.5453 30.2044 21.8202 30.4668C21.8573 30.1958 21.8696 29.9237 21.8573 29.6504C21.845 29.3279 21.8574 29.0063 21.8944 28.6856C22.2159 28.2545 22.587 28.205 23.0077 28.5372C23.0899 28.906 23.1518 29.277 23.1933 29.6504ZM21.0409 29.6504C21.3131 29.6504 21.5852 29.6504 21.8573 29.6504C21.8696 29.9237 21.8573 30.1958 21.8202 30.4668C21.5453 30.2044 21.2855 29.9323 21.0409 29.6504ZM23.1933 29.6504C23.4654 29.6504 23.7375 29.6504 24.0097 29.6504C23.765 29.9323 23.5053 30.2044 23.2304 30.4668C23.1933 30.1958 23.181 29.9237 23.1933 29.6504Z" fill="#B6F8FD"/>
<path opacity="0.946" fill-rule="evenodd" clip-rule="evenodd" d="M12.5801 29.6504C12.7015 29.7431 12.7882 29.8668 12.8399 30.0215C12.8646 30.5905 12.8894 31.1595 12.9141 31.7285C13.3988 31.219 13.906 30.7366 14.4356 30.2812C14.9887 30.0888 15.335 30.2867 15.4746 30.875C15.4274 31.0416 15.3655 31.2024 15.2891 31.3574C14.8314 31.8151 14.3738 32.2727 13.9161 32.7305C14.4851 32.7552 15.0541 32.78 15.6231 32.8047C16.0767 33.0457 16.188 33.4044 15.9571 33.8808C15.8901 33.97 15.8035 34.0319 15.6973 34.0664C15.0788 34.0911 14.4603 34.1159 13.8418 34.1406C14.349 34.6477 14.8562 35.155 15.3633 35.6621C15.5316 36.5008 15.1976 36.81 14.3614 36.5898C13.8789 36.1074 13.3965 35.625 12.9141 35.1426C12.8894 35.7363 12.8646 36.3301 12.8399 36.9238C12.456 37.4831 12.0354 37.5078 11.5782 36.998C11.5535 36.3796 11.5287 35.761 11.5039 35.1426C11.0215 35.625 10.5391 36.1074 10.0567 36.5898C9.44081 36.8749 9.06972 36.6894 8.9434 36.0332C8.96292 35.8456 9.02474 35.6724 9.12895 35.5137C9.58665 35.0559 10.0443 34.5983 10.502 34.1406C9.88353 34.1159 9.26499 34.0911 8.64652 34.0664C8.13553 33.5794 8.18503 33.1588 8.79496 32.8047C9.364 32.78 9.93296 32.7552 10.502 32.7305C10.0443 32.2727 9.58665 31.8151 9.12895 31.3574C8.81634 30.7458 8.98956 30.35 9.64848 30.1699C9.75231 30.2239 9.86364 30.261 9.98246 30.2812C10.4896 30.7884 10.9968 31.2956 11.5039 31.8027C11.5287 31.1843 11.5535 30.5657 11.5782 29.9472C11.6273 29.8371 11.6892 29.7382 11.7637 29.6504C12.0359 29.5514 12.308 29.5514 12.5801 29.6504Z" fill="#B6F8FD"/>
</g>
<defs>
<clipPath id="clip0_348_3763">
<rect width="38" height="38" fill="white"/>
</clipPath>
</defs>
</svg>
