<svg width="38" height="38" viewBox="0 0 38 38" fill="none" xmlns="http://www.w3.org/2000/svg">
<g clip-path="url(#clip0_334_2768)">
<path opacity="0.994" fill-rule="evenodd" clip-rule="evenodd" d="M37.9629 19.0371C37.9629 19.6556 37.9629 20.2741 37.9629 20.8926C37.2935 24.3699 35.2154 26.4605 31.7285 27.164C30.1949 27.2012 28.661 27.2135 27.127 27.2012C27.5147 26.7875 27.5147 26.3793 27.127 25.9765C26.8699 25.9159 26.6224 25.9407 26.3848 26.0508C25.9945 26.4786 25.574 26.862 25.123 27.2012C25.0488 27.2012 24.9746 27.2012 24.9004 27.2012C24.8389 26.6701 24.8018 26.1258 24.7891 25.5683C24.3987 25.1776 24.0029 25.1776 23.6016 25.5683C23.5889 26.1258 23.5518 26.6701 23.4902 27.2012C23.416 27.2012 23.3418 27.2012 23.2676 27.2012C22.8166 26.862 22.3961 26.4786 22.0059 26.0508C21.2571 25.7856 20.9232 26.0453 21.0039 26.8301C21.0779 26.9654 21.1645 27.0891 21.2637 27.2012C19.2845 27.2012 17.3054 27.2012 15.3262 27.2012C15.1282 27.2012 14.9304 27.2012 14.7324 27.2012C14.1882 27.2012 13.6439 27.2012 13.0996 27.2012C12.8224 26.4421 12.3894 26.3432 11.8008 26.9043C11.7852 27.0199 11.7481 27.1188 11.6895 27.2012C11.1699 27.2012 10.6504 27.2012 10.1309 27.2012C9.9082 27.2012 9.68555 27.2012 9.46289 27.2012C8.17616 27.2135 6.88973 27.2012 5.60352 27.164C2.48461 26.5754 0.604406 24.7323 -0.0371094 21.6347C-0.0371094 20.9915 -0.0371094 20.3483 -0.0371094 19.7051C0.708963 16.325 2.81183 14.4324 6.27148 14.0273C5.23108 10.4944 6.09696 7.52562 8.86914 5.12108C11.9763 3.05135 15.1183 3.00187 18.2949 4.97264C19.6166 5.89802 20.532 7.12263 21.041 8.64647C23.7691 7.63093 26.1318 8.17518 28.1289 10.2793C28.7146 11.0302 29.1228 11.8714 29.3535 12.8027C33.1205 12.3789 35.8295 13.8632 37.4805 17.2558C37.6828 17.8486 37.8435 18.4423 37.9629 19.0371Z" fill="#A3D4F7"/>
<path fill-rule="evenodd" clip-rule="evenodd" d="M17.6269 17.998C17.6146 18.5676 17.6269 19.1366 17.6641 19.705C17.7173 19.6647 17.7544 19.6152 17.7754 19.5566C18.2822 19.0622 18.8018 18.5797 19.334 18.1093C20.1926 18.0532 20.4277 18.4119 20.0391 19.1855C19.5566 19.6679 19.0742 20.1504 18.5918 20.6328C19.235 20.6575 19.8782 20.6823 20.5215 20.707C20.8606 20.8956 20.9719 21.1801 20.8555 21.5605C20.7936 21.7213 20.6823 21.8327 20.5215 21.8945C19.8782 21.9192 19.235 21.944 18.5918 21.9687C19.0989 22.4758 19.6061 22.9831 20.1133 23.4902C20.344 24.3479 20.0348 24.6572 19.1855 24.4179C18.6784 23.9108 18.1712 23.4036 17.6641 22.8964C17.6393 23.5397 17.6145 24.1829 17.5898 24.8261C17.4012 25.1652 17.1167 25.2766 16.7363 25.1601C16.5755 25.0983 16.4642 24.987 16.4023 24.8261C16.3776 24.1829 16.3528 23.5397 16.3281 22.8964C15.7665 23.5078 15.1604 24.0644 14.5098 24.5664C13.922 24.5943 13.6623 24.3097 13.7305 23.7129C14.2256 23.1559 14.7328 22.6116 15.2519 22.08C15.3105 22.059 15.36 22.0219 15.4004 21.9687C14.8319 21.9316 14.2629 21.9193 13.6933 21.9316C13.421 21.9444 13.2354 21.8208 13.1367 21.5605C13.0296 21.2108 13.1161 20.9263 13.3965 20.707C14.0644 20.6823 14.7324 20.6575 15.4004 20.6328C14.8932 20.1256 14.386 19.6184 13.8789 19.1113C13.6844 18.7232 13.7462 18.3892 14.0644 18.1093C14.3215 18.0487 14.569 18.0735 14.8066 18.1836C15.3138 18.6907 15.821 19.1979 16.3281 19.705C16.3528 19.0371 16.3776 18.3691 16.4023 17.7011C16.7469 17.3335 17.118 17.3087 17.5156 17.6269C17.5905 17.7401 17.6276 17.8638 17.6269 17.998Z" fill="#B6F8FD"/>
<path fill-rule="evenodd" clip-rule="evenodd" d="M17.6269 17.998C17.6764 18.5176 17.7259 19.0371 17.7754 19.5566C17.7544 19.6152 17.7173 19.6647 17.664 19.7051C17.6269 19.1366 17.6146 18.5676 17.6269 17.998Z" fill="#A8DDF9"/>
<path fill-rule="evenodd" clip-rule="evenodd" d="M13.6934 21.9316C14.2629 21.9193 14.8319 21.9316 15.4004 21.9687C15.36 22.0219 15.3105 22.0591 15.252 22.0801C14.7324 22.0306 14.2129 21.9811 13.6934 21.9316Z" fill="#A8DDF9"/>
<path opacity="0.951" fill-rule="evenodd" clip-rule="evenodd" d="M24.9004 27.2013C24.9166 27.4655 24.9908 27.4655 25.1231 27.2013C25.5741 26.8622 25.9946 26.4787 26.3848 26.0509C26.6225 25.9408 26.8699 25.916 27.127 25.9767C27.5147 26.3794 27.5147 26.7876 27.127 27.2013C26.7463 27.6192 26.3504 28.0274 25.9395 28.4259C26.5883 28.4325 27.2316 28.482 27.8692 28.5743C28.2356 28.919 28.2604 29.2901 27.9434 29.6876C27.8256 29.7516 27.7019 29.8011 27.5723 29.836C27.0281 29.8608 26.4838 29.8855 25.9395 29.9103C26.4219 30.3927 26.9044 30.8751 27.3868 31.3575C27.6393 32.094 27.3795 32.4528 26.6075 32.4337C26.0064 31.9813 25.4497 31.4742 24.9376 30.9122C24.9128 31.4812 24.8881 32.0502 24.8633 32.6192C24.6051 33.15 24.2216 33.2613 23.7129 32.9532C23.6665 32.8976 23.6294 32.8357 23.6016 32.7677C23.5096 32.1549 23.4601 31.5363 23.4532 30.9122C22.9437 31.4464 22.4119 31.9536 21.8575 32.4337C21.0342 32.5072 20.7496 32.1485 21.004 31.3575C21.4864 30.8751 21.9688 30.3927 22.4512 29.9103C21.907 29.8855 21.3627 29.8608 20.8184 29.836C20.382 29.7183 20.1965 29.4337 20.2618 28.9825C20.2875 28.8083 20.3741 28.6722 20.5215 28.5743C21.1592 28.482 21.8024 28.4325 22.4512 28.4259C22.0404 28.0274 21.6445 27.6192 21.2637 27.2013C21.1646 27.0892 21.078 26.9655 21.004 26.8302C20.9232 26.0455 21.2572 25.7857 22.0059 26.0509C22.3962 26.4787 22.8167 26.8622 23.2676 27.2013C23.4 27.4655 23.4742 27.4655 23.4903 27.2013C23.5518 26.6702 23.5889 26.1259 23.6016 25.5685C24.0029 25.1777 24.3987 25.1777 24.7891 25.5685C24.8018 26.1259 24.8389 26.6702 24.9004 27.2013ZM23.2676 27.2013C23.3419 27.2013 23.4161 27.2013 23.4903 27.2013C23.4742 27.4655 23.4 27.4655 23.2676 27.2013ZM24.9004 27.2013C24.9747 27.2013 25.0489 27.2013 25.1231 27.2013C24.9908 27.4655 24.9166 27.4655 24.9004 27.2013Z" fill="#B6F8FD"/>
<path opacity="0.951" fill-rule="evenodd" clip-rule="evenodd" d="M13.0996 27.2012C13.0873 27.7214 13.0996 28.2409 13.1367 28.7598C13.6609 28.2232 14.1928 27.7037 14.7324 27.2012C14.9304 27.2012 15.1282 27.2012 15.3262 27.2012C15.7423 27.5278 15.8042 27.9236 15.5117 28.3887C15.054 28.8464 14.5964 29.3041 14.1387 29.7618C14.7572 29.7865 15.3757 29.8113 15.9942 29.836C16.489 30.2566 16.489 30.6771 15.9942 31.0977C15.3509 31.1224 14.7077 31.1472 14.0645 31.1719C14.5716 31.6791 15.0788 32.1863 15.586 32.6934C15.8082 33.5241 15.4989 33.8581 14.6582 33.6954C14.1511 33.1882 13.6439 32.681 13.1367 32.1739C13.112 32.7676 13.0872 33.3614 13.0625 33.9551C12.6931 34.5369 12.2726 34.5865 11.8008 34.1036C11.7088 33.4908 11.6593 32.8722 11.6524 32.2481C11.1402 32.8101 10.5835 33.3172 9.98244 33.7696C9.21042 33.7887 8.95065 33.4299 9.20314 32.6934C9.71028 32.1863 10.2175 31.6791 10.7246 31.1719C10.0814 31.1472 9.43819 31.1224 8.79494 31.0977C8.30012 30.6771 8.30012 30.2566 8.79494 29.836C9.43819 29.8113 10.0814 29.7865 10.7246 29.7618C10.2175 29.2547 9.71028 28.7474 9.20314 28.2403C9.0124 27.8204 9.09894 27.474 9.46291 27.2012C9.68557 27.2012 9.90822 27.2012 10.1309 27.2012C10.623 27.7306 11.1302 28.2501 11.6524 28.7598C11.6895 28.2409 11.7018 27.7214 11.6895 27.2012C11.7481 27.1189 11.7852 27.02 11.8008 26.9044C12.3894 26.3433 12.8224 26.4422 13.0996 27.2012ZM10.1309 27.2012C10.6504 27.2012 11.1699 27.2012 11.6895 27.2012C11.7018 27.7214 11.6895 28.2409 11.6524 28.7598C11.1302 28.2501 10.623 27.7306 10.1309 27.2012ZM13.0996 27.2012C13.6439 27.2012 14.1882 27.2012 14.7324 27.2012C14.1928 27.7037 13.6609 28.2232 13.1367 28.7598C13.0996 28.2409 13.0873 27.7214 13.0996 27.2012Z" fill="#B6F8FD"/>
<path fill-rule="evenodd" clip-rule="evenodd" d="M18.4744 30C19.0694 30.9452 19.5378 31.9542 19.8797 33.0268C20.1214 33.7038 19.9989 34.3019 19.5122 34.8212C19.0132 35.2039 18.4655 35.2903 17.8691 35.0806C17.1897 34.6946 16.9086 34.1108 17.0259 33.3294C17.3669 32.1575 17.8497 31.0476 18.4744 30Z" fill="#60A2D7"/>
</g>
<defs>
<clipPath id="clip0_334_2768">
<rect width="38" height="38" fill="white"/>
</clipPath>
</defs>
</svg>
