<svg width="38" height="46" viewBox="0 0 38 46" fill="none" xmlns="http://www.w3.org/2000/svg">
<g clip-path="url(#clip0_348_3798)">
<path opacity="0.996" fill-rule="evenodd" clip-rule="evenodd" d="M12.8027 14.7325C16.5728 14.6836 19.2322 16.3658 20.7812 19.7794C21.1998 19.5986 21.6327 19.4626 22.0801 19.3712C25.0961 19.0849 27.2732 20.2848 28.6113 22.9708C28.6701 23.2462 28.7443 23.5183 28.834 23.7872C31.9986 23.4219 34.4849 24.5351 36.293 27.127C37.7764 29.8342 37.6774 32.4813 35.9961 35.0684C34.7875 36.6687 33.1918 37.6336 31.209 37.963C22.6243 37.963 14.0397 37.963 5.45508 37.963C2.41211 37.3445 0.58138 35.5137 -0.0371094 32.4708C-0.0371094 31.8275 -0.0371094 31.1843 -0.0371094 30.5411C0.714643 27.2667 2.76803 25.4112 6.12305 24.9747C5.18183 21.8001 5.87453 19.0416 8.20117 16.6993C9.51677 15.547 11.0507 14.8914 12.8027 14.7325Z" fill="#A3D3F6"/>
</g>
<path fill-rule="evenodd" clip-rule="evenodd" d="M21.5347 30.5925C21.5223 31.162 21.5347 31.7311 21.5718 32.2995C21.625 32.2591 21.6621 32.2096 21.6831 32.1511C22.1899 31.6566 22.7095 31.1742 23.2417 30.7038C24.1003 30.6477 24.3354 31.0064 23.9468 31.78C23.4643 32.2624 22.9819 32.7448 22.4995 33.2273C23.1428 33.252 23.7859 33.2768 24.4292 33.3015C24.7683 33.4901 24.8796 33.7746 24.7632 34.155C24.7013 34.3158 24.59 34.4272 24.4292 34.489C23.7859 34.5137 23.1428 34.5385 22.4995 34.5632C23.0066 35.0703 23.5138 35.5775 24.021 36.0847C24.2517 36.9424 23.9425 37.2517 23.0933 37.0124C22.5861 36.5053 22.0789 35.9981 21.5718 35.4909C21.5471 36.1342 21.5223 36.7774 21.4975 37.4206C21.309 37.7597 21.0244 37.8711 20.644 37.7546C20.4832 37.6928 20.3719 37.5814 20.31 37.4206C20.2853 36.7774 20.2605 36.1342 20.2358 35.4909C19.6742 36.1023 19.0681 36.6589 18.4175 37.1609C17.8297 37.1888 17.57 36.9042 17.6382 36.3073C18.1334 35.7504 18.6405 35.2061 19.1597 34.6745C19.2182 34.6535 19.2677 34.6164 19.3081 34.5632C18.7397 34.5261 18.1706 34.5138 17.6011 34.5261C17.3287 34.5389 17.1431 34.4153 17.0444 34.155C16.9373 33.8053 17.0239 33.5208 17.3042 33.3015C17.9722 33.2768 18.6401 33.252 19.3081 33.2273C18.801 32.7201 18.2937 32.2129 17.7866 31.7058C17.5921 31.3177 17.6539 30.9837 17.9722 30.7038C18.2293 30.6432 18.4767 30.668 18.7143 30.778C19.2215 31.2852 19.7287 31.7924 20.2358 32.2995C20.2605 31.6316 20.2853 30.9636 20.31 30.2956C20.6546 29.928 21.0257 29.9032 21.4233 30.2214C21.4982 30.3346 21.5353 30.4583 21.5347 30.5925Z" fill="#B6F8FD"/>
<path opacity="0.951" fill-rule="evenodd" clip-rule="evenodd" d="M28.8082 39.7958C28.8243 40.06 28.8985 40.06 29.0308 39.7958C29.4818 39.4567 29.9023 39.0732 30.2925 38.6454C30.5302 38.5353 30.7776 38.5105 31.0347 38.5711C31.4224 38.9739 31.4224 39.3821 31.0347 39.7958C30.654 40.2137 30.2581 40.6219 29.8472 41.0204C30.496 41.027 31.1393 41.0765 31.7769 41.1688C32.1433 41.5135 32.1681 41.8846 31.8511 42.2821C31.7333 42.3461 31.6096 42.3956 31.48 42.4305C30.9358 42.4552 30.3915 42.48 29.8472 42.5047C30.3296 42.9872 30.8121 43.4696 31.2945 43.952C31.547 44.6885 31.2872 45.0473 30.5152 45.0282C29.9141 44.5758 29.3575 44.0687 28.8453 43.5067C28.8206 44.0757 28.7958 44.6447 28.7711 45.2137C28.5128 45.7445 28.1294 45.8558 27.6207 45.5477C27.5742 45.492 27.5371 45.4301 27.5093 45.3622C27.4173 44.7493 27.3678 44.1308 27.3609 43.5067C26.8515 44.0409 26.3196 44.5481 25.7652 45.0282C24.9419 45.1017 24.6573 44.743 24.9117 43.952C25.3941 43.4696 25.8765 42.9872 26.3589 42.5047C25.8147 42.48 25.2704 42.4552 24.7261 42.4305C24.2897 42.3127 24.1042 42.0282 24.1695 41.577C24.1952 41.4027 24.2818 41.2667 24.4293 41.1688C25.0669 41.0765 25.7101 41.027 26.3589 41.0204C25.9481 40.6219 25.5522 40.2137 25.1714 39.7958C25.0723 39.6837 24.9857 39.56 24.9117 39.4247C24.8309 38.6399 25.1649 38.3802 25.9136 38.6454C26.3039 39.0732 26.7244 39.4567 27.1754 39.7958C27.3077 40.06 27.3819 40.06 27.398 39.7958C27.4595 39.2647 27.4966 38.7204 27.5093 38.1629C27.9106 37.7722 28.3064 37.7722 28.6968 38.1629C28.7095 38.7204 28.7466 39.2647 28.8082 39.7958ZM27.1754 39.7958C27.2496 39.7958 27.3238 39.7958 27.398 39.7958C27.3819 40.06 27.3077 40.06 27.1754 39.7958ZM28.8082 39.7958C28.8824 39.7958 28.9566 39.7958 29.0308 39.7958C28.8985 40.06 28.8243 40.06 28.8082 39.7958Z" fill="#B6F8FD"/>
<path opacity="0.98" fill-rule="evenodd" clip-rule="evenodd" d="M14.516 36.8594C14.997 37.8444 15.2073 38.8835 15.1469 39.9766C14.6485 41.5683 13.5723 42.2239 11.9183 41.9434C10.4913 41.4534 9.8604 40.4515 10.0258 38.9375C10.1844 38.2266 10.3948 37.5339 10.6566 36.8594C11.2508 35.5473 11.9065 34.2609 12.6234 33C13.3171 34.2636 13.948 35.5501 14.516 36.8594Z" fill="#60A2D7"/>
<defs>
<clipPath id="clip0_348_3798">
<rect width="38" height="38" fill="white"/>
</clipPath>
</defs>
</svg>
