<svg width="38" height="38" viewBox="0 0 38 38" fill="none" xmlns="http://www.w3.org/2000/svg">
<g clip-path="url(#clip0_334_2746)">
<path opacity="0.993" fill-rule="evenodd" clip-rule="evenodd" d="M37.9629 19.334C37.9629 19.9773 37.9629 20.6204 37.9629 21.2637C37.323 24.6869 35.2944 26.7526 31.877 27.461C30.1966 27.5627 28.5142 27.5998 26.8301 27.5723C26.2537 26.2217 25.5981 24.9105 24.8633 23.6387C24.1406 24.9357 23.4603 26.247 22.8223 27.5723C19.6061 27.5723 16.3899 27.5723 13.1738 27.5723C12.7247 26.6991 12.2547 25.8333 11.7637 24.9746C11.2493 25.8305 10.7544 26.6964 10.2793 27.5723C8.64426 27.6015 7.01148 27.5644 5.38086 27.461C2.38132 26.7747 0.575327 24.9316 -0.0371094 21.9317C-0.0371094 21.2884 -0.0371094 20.6452 -0.0371094 20.002C0.691714 16.6635 2.75747 14.7833 6.16016 14.3614C5.22963 10.9452 6.05841 8.03836 8.64648 5.64065C11.8175 3.34168 15.0584 3.24272 18.3691 5.34378C19.6364 6.31375 20.5641 7.53835 21.1523 9.0176C23.9456 7.95323 26.3206 8.54698 28.2773 10.7989C28.7951 11.4881 29.1538 12.2551 29.3535 13.0996C32.1514 12.7498 34.4893 13.6158 36.3672 15.6973C37.195 16.7838 37.7268 17.996 37.9629 19.334Z" fill="#CFD9D8"/>
<path fill-rule="evenodd" clip-rule="evenodd" d="M18.2207 17.1074C18.3375 17.1399 18.4241 17.2141 18.4805 17.3301C19.4315 19.0092 20.1984 20.7657 20.7812 22.5996C21.1754 24.1169 20.6929 25.2425 19.334 25.9766C17.7938 26.4738 16.6434 26.016 15.8828 24.6035C15.6642 23.9704 15.6394 23.3273 15.8086 22.6738C16.0714 21.7029 16.4178 20.7628 16.8477 19.8535C17.3073 18.9342 17.765 18.0188 18.2207 17.1074Z" fill="#60A2D7"/>
<path opacity="0.981" fill-rule="evenodd" clip-rule="evenodd" d="M26.8301 27.5723C27.3111 28.5573 27.5214 29.5964 27.461 30.6895C26.9642 32.2731 25.888 32.9534 24.2324 32.7305C22.6811 32.2148 22.0255 31.1386 22.2656 29.502C22.4285 28.8502 22.6141 28.2069 22.8223 27.5723C23.4603 26.2469 24.1406 24.9357 24.8633 23.6387C25.5981 24.9105 26.2537 26.2216 26.8301 27.5723Z" fill="#60A2D7"/>
<path opacity="0.977" fill-rule="evenodd" clip-rule="evenodd" d="M13.1738 27.5723C13.7728 28.8002 14.1934 30.0866 14.4356 31.4316C14.0835 33.5748 12.8466 34.4035 10.7246 33.918C9.34513 33.1992 8.83799 32.0735 9.20315 30.541C9.5113 29.5298 9.87 28.5402 10.2793 27.5723C10.7545 26.6963 11.2493 25.8304 11.7637 24.9746C12.2547 25.8332 12.7248 26.6991 13.1738 27.5723Z" fill="#60A2D7"/>
</g>
<defs>
<clipPath id="clip0_334_2746">
<rect width="38" height="38" fill="white"/>
</clipPath>
</defs>
</svg>
