<svg width="38" height="38" viewBox="0 0 38 38" fill="none" xmlns="http://www.w3.org/2000/svg">
<g clip-path="url(#clip0_348_3848)">
<path opacity="0.993" fill-rule="evenodd" clip-rule="evenodd" d="M37.9629 19.334C37.9629 19.9773 37.9629 20.6204 37.9629 21.2637C37.323 24.6869 35.2944 26.7526 31.877 27.461C30.1966 27.5627 28.5142 27.5998 26.8301 27.5723C26.2537 26.2217 25.5981 24.9105 24.8633 23.6387C24.1406 24.9357 23.4603 26.247 22.8223 27.5723C19.6061 27.5723 16.3899 27.5723 13.1738 27.5723C12.7247 26.6991 12.2547 25.8333 11.7637 24.9746C11.2493 25.8305 10.7544 26.6964 10.2793 27.5723C8.64426 27.6015 7.01148 27.5644 5.38086 27.461C2.38132 26.7747 0.575327 24.9316 -0.0371094 21.9317C-0.0371094 21.2884 -0.0371094 20.6452 -0.0371094 20.002C0.691714 16.6635 2.75747 14.7833 6.16016 14.3614C5.22963 10.9452 6.05841 8.03836 8.64648 5.64065C11.8175 3.34168 15.0584 3.24272 18.3691 5.34378C19.6364 6.31375 20.5641 7.53835 21.1523 9.0176C23.9456 7.95323 26.3206 8.54698 28.2773 10.7989C28.7951 11.4881 29.1538 12.2551 29.3535 13.0996C32.1514 12.7498 34.4893 13.6158 36.3672 15.6973C37.195 16.7838 37.7268 17.996 37.9629 19.334Z" fill="#CFD9D8"/>
<path fill-rule="evenodd" clip-rule="evenodd" d="M18.2207 17.1074C18.3375 17.1399 18.4241 17.2141 18.4805 17.3301C19.4315 19.0092 20.1984 20.7657 20.7812 22.5996C21.1754 24.1169 20.6929 25.2425 19.334 25.9766C17.7938 26.4738 16.6434 26.016 15.8828 24.6035C15.6642 23.9704 15.6394 23.3273 15.8086 22.6738C16.0714 21.7029 16.4178 20.7628 16.8477 19.8535C17.3073 18.9342 17.765 18.0188 18.2207 17.1074Z" fill="#60A2D7"/>
<path opacity="0.981" fill-rule="evenodd" clip-rule="evenodd" d="M26.8301 27.5723C27.3111 28.5573 27.5214 29.5964 27.461 30.6895C26.9642 32.2731 25.888 32.9534 24.2324 32.7305C22.6811 32.2148 22.0255 31.1386 22.2656 29.502C22.4285 28.8502 22.6141 28.2069 22.8223 27.5723C23.4603 26.2469 24.1406 24.9357 24.8633 23.6387C25.5981 24.9105 26.2537 26.2216 26.8301 27.5723Z" fill="#60A2D7"/>
<path opacity="0.977" fill-rule="evenodd" clip-rule="evenodd" d="M13.1738 27.5723C13.7728 28.8002 14.1934 30.0866 14.4356 31.4316C14.0835 33.5748 12.8466 34.4035 10.7246 33.918C9.34513 33.1992 8.83799 32.0735 9.20315 30.541C9.5113 29.5298 9.87 28.5402 10.2793 27.5723C10.7545 26.6963 11.2493 25.8304 11.7637 24.9746C12.2547 25.8332 12.7248 26.6991 13.1738 27.5723Z" fill="#60A2D7"/>
<path fill-rule="evenodd" clip-rule="evenodd" d="M11.8541 11.0107C12.074 10.9697 12.2346 11.0468 12.3359 11.242C12.3488 11.5503 12.3616 11.8587 12.3745 12.1671C12.625 11.9165 12.8756 11.666 13.1261 11.4154C13.5496 11.2866 13.7102 11.4343 13.6079 11.8587C13.3715 12.1337 13.1209 12.3971 12.8563 12.6489C13.1647 12.6617 13.473 12.6746 13.7814 12.6874C14.0173 12.8295 14.0623 13.0158 13.9163 13.2463C13.8874 13.2705 13.8552 13.2897 13.8199 13.3041C13.4859 13.317 13.1518 13.3299 12.8177 13.3427C13.0811 13.6061 13.3446 13.8695 13.6079 14.1329C13.727 14.5054 13.5921 14.6788 13.2032 14.6532C12.9153 14.4039 12.6391 14.1405 12.3745 13.8631C12.3616 14.1457 12.3488 14.4284 12.3359 14.7111C12.2406 15.0252 12.0543 15.0959 11.777 14.9231C11.7301 14.8595 11.698 14.7889 11.6807 14.7111C11.6678 14.4284 11.6549 14.1457 11.6421 13.8631C11.4044 14.1008 11.1667 14.3384 10.929 14.5762C10.5042 14.7655 10.3179 14.6305 10.3701 14.1714C10.6464 13.8952 10.9226 13.6189 11.1988 13.3427C10.8648 13.3299 10.5307 13.317 10.1966 13.3041C10.0205 13.2062 9.96271 13.0584 10.0232 12.8609C10.0863 12.7718 10.1698 12.714 10.2737 12.6874C10.5693 12.6746 10.8648 12.6617 11.1603 12.6489C10.8828 12.3843 10.6194 12.1081 10.3701 11.8201C10.3282 11.4126 10.5016 11.2777 10.8905 11.4154C11.141 11.666 11.3916 11.9165 11.6421 12.1671C11.6549 11.8587 11.6678 11.5503 11.6807 11.242C11.732 11.1587 11.7898 11.0816 11.8541 11.0107Z" fill="#B6F8FD"/>
<path opacity="0.955" fill-rule="evenodd" clip-rule="evenodd" d="M31.5865 26.4598C31.5823 26.5543 31.5866 26.6483 31.5994 26.742C31.6944 26.6513 31.7842 26.5572 31.8688 26.4598C31.9565 26.4107 32.0334 26.3466 32.0997 26.2674C32.3015 26.1833 32.4212 26.2474 32.4588 26.4598C32.4591 26.5062 32.4462 26.5489 32.4203 26.5881C32.2536 26.7548 32.0868 26.9216 31.9201 27.0883C32.1339 27.0969 32.3477 27.1055 32.5614 27.114C32.6809 27.1883 32.7194 27.2952 32.6769 27.4347C32.6454 27.4918 32.5984 27.5303 32.5358 27.5501C32.3391 27.5587 32.1424 27.5673 31.9457 27.5758C32.1218 27.7433 32.2886 27.9187 32.446 28.1017C32.5071 28.2969 32.4387 28.4166 32.2408 28.4609C32.2023 28.4481 32.1638 28.4352 32.1253 28.4224C31.9422 28.265 31.7669 28.0983 31.5994 27.9221C31.5908 28.1188 31.5823 28.3155 31.5737 28.5122C31.4904 28.669 31.3664 28.7075 31.2017 28.6277C31.1709 28.6045 31.1495 28.5746 31.1376 28.5379C31.129 28.3241 31.1205 28.1103 31.1119 27.8965C30.9366 28.0718 30.7613 28.2471 30.586 28.4224C30.3827 28.5004 30.263 28.4319 30.2268 28.2172C30.2279 28.1667 30.2407 28.1197 30.2653 28.0761C30.4321 27.9093 30.5988 27.7426 30.7656 27.5758C30.5406 27.5743 30.3183 27.5572 30.0985 27.5245C29.9591 27.3802 29.9676 27.2434 30.1242 27.114C30.338 27.1055 30.5518 27.0969 30.7656 27.0883C30.6074 26.9301 30.4492 26.7719 30.291 26.6137C30.251 26.5697 30.2296 26.5184 30.2268 26.4598C30.26 26.2684 30.3712 26.1957 30.5603 26.2417C30.6517 26.3206 30.7458 26.3932 30.8425 26.4598C30.9271 26.5572 31.0169 26.6513 31.1119 26.742C31.1247 26.6483 31.129 26.5543 31.1248 26.4598C31.1205 26.3483 31.1248 26.2371 31.1376 26.1263C31.2487 25.9772 31.377 25.9601 31.5224 26.075C31.5508 26.2024 31.5722 26.3307 31.5865 26.4598ZM30.8425 26.4598C30.9366 26.4598 31.0307 26.4598 31.1248 26.4598C31.129 26.5543 31.1247 26.6483 31.1119 26.742C31.0169 26.6513 30.9271 26.5572 30.8425 26.4598ZM31.5865 26.4598C31.6806 26.4598 31.7747 26.4598 31.8688 26.4598C31.7842 26.5572 31.6944 26.6513 31.5994 26.742C31.5866 26.6483 31.5823 26.5543 31.5865 26.4598Z" fill="#B6F8FD"/>
<path opacity="0.946" fill-rule="evenodd" clip-rule="evenodd" d="M18.203 32.0382C18.2654 32.0858 18.31 32.1495 18.3366 32.229C18.3493 32.5217 18.362 32.8144 18.3747 33.107C18.6241 32.845 18.8849 32.5968 19.1573 32.3626C19.4418 32.2637 19.6199 32.3655 19.6917 32.668C19.6674 32.7537 19.6356 32.8365 19.5963 32.9162C19.3609 33.1516 19.1255 33.387 18.8901 33.6224C19.1828 33.6351 19.4754 33.6479 19.7681 33.6606C20.0014 33.7845 20.0587 33.969 19.9399 34.2141C19.9054 34.2599 19.8609 34.2918 19.8063 34.3095C19.4882 34.3222 19.17 34.335 18.8519 34.3477C19.1128 34.6086 19.3736 34.8694 19.6345 35.1303C19.721 35.5616 19.5492 35.7207 19.1191 35.6075C18.871 35.3593 18.6229 35.1112 18.3747 34.8631C18.362 35.1685 18.3493 35.4738 18.3366 35.7792C18.1391 36.0669 17.9228 36.0796 17.6876 35.8174C17.6749 35.4993 17.6621 35.1812 17.6494 34.8631C17.4013 35.1112 17.1532 35.3593 16.905 35.6075C16.5883 35.7541 16.3974 35.6586 16.3324 35.3212C16.3425 35.2246 16.3743 35.1356 16.4278 35.0539C16.6633 34.8185 16.8987 34.5831 17.1341 34.3477C16.816 34.335 16.4978 34.3222 16.1797 34.3095C15.9169 34.0591 15.9423 33.8427 16.2561 33.6606C16.5487 33.6479 16.8414 33.6351 17.1341 33.6224C16.8987 33.387 16.6633 33.1516 16.4278 32.9162C16.2671 32.6016 16.3562 32.398 16.6951 32.3054C16.7485 32.3331 16.8057 32.3522 16.8669 32.3626C17.1277 32.6235 17.3886 32.8844 17.6494 33.1452C17.6621 32.8271 17.6749 32.509 17.6876 32.1909C17.7129 32.1342 17.7447 32.0833 17.783 32.0382C17.923 31.9873 18.063 31.9873 18.203 32.0382Z" fill="#B6F8FD"/>
</g>
<defs>
<clipPath id="clip0_348_3848">
<rect width="38" height="38" fill="white"/>
</clipPath>
</defs>
</svg>
