<svg width="38" height="48" viewBox="0 0 38 48" fill="none" xmlns="http://www.w3.org/2000/svg">
<g clip-path="url(#clip0_348_3863)">
<path opacity="0.989" fill-rule="evenodd" clip-rule="evenodd" d="M37.9629 19.3342C37.9629 20.0021 37.9629 20.6701 37.9629 21.3381C37.8216 22.1085 37.5741 22.8507 37.2207 23.5646C35.4186 20.5734 32.7714 19.3117 29.2793 19.7795C28.8397 17.7687 27.677 16.3461 25.791 15.5119C24.2505 14.9569 22.7166 14.9692 21.1895 15.549C21.1399 15.5243 21.0905 15.4995 21.041 15.4748C19.6243 12.3038 17.1751 10.6215 13.6934 10.4279C10.401 10.568 8.01362 12.1018 6.53125 15.0295C5.69583 16.9751 5.60924 18.9543 6.27148 20.967C3.89853 21.1665 2.0678 22.255 0.779297 24.2326C0.37232 23.5061 0.100184 22.7391 -0.0371094 21.9318C-0.0371094 21.2886 -0.0371094 20.6454 -0.0371094 20.0021C0.691714 16.6636 2.75747 14.7834 6.16016 14.3615C5.22963 10.9454 6.05841 8.03852 8.64648 5.64081C11.8176 3.34358 15.0585 3.24463 18.3691 5.34394C19.6364 6.31391 20.5641 7.53851 21.1523 9.01776C23.4484 8.08662 25.5636 8.39581 27.498 9.9455C28.4119 10.8204 29.0304 11.8718 29.3535 13.0998C32.4648 12.73 34.9511 13.7939 36.8125 16.2912C37.4086 17.2341 37.792 18.2484 37.9629 19.3342Z" fill="#60A2D7"/>
<path opacity="0.997" fill-rule="evenodd" clip-rule="evenodd" d="M37.2207 23.5645C37.5599 24.3097 37.8073 25.0767 37.9629 25.8652C37.9629 26.5332 37.9629 27.2012 37.9629 27.8691C37.2436 31.3714 35.116 33.4373 31.5801 34.0664C22.7956 34.1397 14.0131 34.1149 5.23242 33.9922C2.31761 33.2423 0.561101 31.3992 -0.0371094 28.4629C-0.0371094 27.8196 -0.0371094 27.1765 -0.0371094 26.5332C0.12976 25.7361 0.401896 24.9692 0.779297 24.2324C2.0678 22.2549 3.89853 21.1663 6.27148 20.9668C5.60924 18.9541 5.69583 16.9749 6.53125 15.0293C8.01362 12.1017 10.401 10.5678 13.6934 10.4277C17.1751 10.6213 19.6243 12.3036 21.041 15.4746C21.0905 15.4993 21.1399 15.5241 21.1895 15.5488C22.7166 14.969 24.2505 14.9567 25.791 15.5117C27.677 16.3459 28.8397 17.7685 29.2793 19.7793C32.7714 19.3115 35.4186 20.5732 37.2207 23.5645Z" fill="#A2D3F6"/>
<path fill-rule="evenodd" clip-rule="evenodd" d="M10.9071 18.3798C10.8992 18.745 10.9071 19.1098 10.9309 19.4742C10.965 19.4483 10.9888 19.4166 11.0023 19.379C11.3272 19.0621 11.6603 18.7528 12.0015 18.4512C12.5519 18.4152 12.7026 18.6452 12.4535 19.1411C12.1442 19.4504 11.8349 19.7597 11.5257 20.069C11.938 20.0848 12.3504 20.1007 12.7628 20.1165C12.9802 20.2374 13.0515 20.4199 12.9769 20.6637C12.9372 20.7668 12.8659 20.8382 12.7628 20.8778C12.3504 20.8937 11.938 20.9096 11.5257 20.9254C11.8508 21.2505 12.1759 21.5757 12.5011 21.9008C12.649 22.4507 12.4508 22.649 11.9063 22.4956C11.5812 22.1704 11.256 21.8453 10.9309 21.5202C10.9151 21.9325 10.8992 22.3449 10.8833 22.7573C10.7624 22.9747 10.58 23.046 10.3361 22.9714C10.233 22.9317 10.1617 22.8604 10.122 22.7573C10.1062 22.3449 10.0903 21.9325 10.0744 21.5202C9.71441 21.9121 9.32586 22.2689 8.90872 22.5907C8.53193 22.6086 8.3654 22.4262 8.40912 22.0436C8.72658 21.6865 9.0517 21.3375 9.38453 20.9968C9.42207 20.9833 9.45381 20.9595 9.47969 20.9254C9.11527 20.9016 8.75047 20.8937 8.38533 20.9016C8.21071 20.9098 8.09176 20.8306 8.02848 20.6637C7.95982 20.4395 8.0153 20.2571 8.19501 20.1165C8.62324 20.1007 9.05146 20.0848 9.47969 20.069C9.15457 19.7438 8.8294 19.4187 8.50429 19.0935C8.37958 18.8448 8.41921 18.6306 8.62324 18.4512C8.78806 18.4123 8.94669 18.4282 9.09904 18.4988C9.42416 18.8239 9.74933 19.1491 10.0744 19.4742C10.0903 19.046 10.1062 18.6177 10.122 18.1895C10.3429 17.9538 10.5808 17.938 10.8357 18.1419C10.8837 18.2145 10.9075 18.2938 10.9071 18.3798Z" fill="#B6F8FD"/>
<path opacity="0.951" fill-rule="evenodd" clip-rule="evenodd" d="M30.9384 33.2166C30.9486 33.3835 30.9955 33.3835 31.0791 33.2166C31.3639 33.0024 31.6296 32.7601 31.8761 32.4899C32.0262 32.4204 32.1825 32.4047 32.345 32.443C32.5899 32.6974 32.5899 32.9553 32.345 33.2166C32.1044 33.4806 31.8543 33.7385 31.5948 33.9902C32.0047 33.9944 32.411 34.0257 32.8138 34.084C33.0453 34.3017 33.0609 34.5362 32.8607 34.7873C32.7863 34.8277 32.7081 34.859 32.6263 34.8811C32.2825 34.8967 31.9386 34.9123 31.5948 34.9279C31.8995 35.2327 32.2043 35.5374 32.5091 35.8422C32.6686 36.3074 32.5045 36.5341 32.0168 36.522C31.637 36.2363 31.2854 35.9159 30.9618 35.5609C30.9462 35.9204 30.9306 36.2798 30.915 36.6393C30.7518 36.9745 30.5096 37.0449 30.1882 36.8502C30.1589 36.8151 30.1354 36.776 30.1179 36.733C30.0598 36.3459 30.0285 35.9551 30.0241 35.5609C29.7023 35.8984 29.3663 36.2188 29.0161 36.522C28.496 36.5685 28.3162 36.3419 28.4769 35.8422C28.7817 35.5374 29.0864 35.2327 29.3912 34.9279C29.0474 34.9123 28.7035 34.8967 28.3597 34.8811C28.084 34.8066 27.9668 34.6269 28.0081 34.3419C28.0243 34.2318 28.079 34.1458 28.1722 34.084C28.5749 34.0257 28.9813 33.9944 29.3912 33.9902C29.1316 33.7385 28.8815 33.4806 28.641 33.2166C28.5784 33.1458 28.5237 33.0677 28.4769 32.9822C28.4259 32.4865 28.6369 32.3224 29.1099 32.4899C29.3564 32.7601 29.622 33.0024 29.9069 33.2166C29.9905 33.3835 30.0374 33.3835 30.0476 33.2166C30.0864 32.8812 30.1099 32.5373 30.1179 32.1851C30.3714 31.9383 30.6214 31.9383 30.8681 32.1851C30.8761 32.5373 30.8995 32.8812 30.9384 33.2166ZM29.9069 33.2166C29.9538 33.2166 30.0007 33.2166 30.0476 33.2166C30.0374 33.3835 29.9905 33.3835 29.9069 33.2166ZM30.9384 33.2166C30.9853 33.2166 31.0322 33.2166 31.0791 33.2166C30.9955 33.3835 30.9486 33.3835 30.9384 33.2166Z" fill="#B6F8FD"/>
</g>
<path opacity="0.986" fill-rule="evenodd" clip-rule="evenodd" d="M15.9461 34.2569C15.9584 38.28 15.9461 42.3031 15.9089 46.3261C15.5897 47.2614 14.9588 47.5717 14.0164 47.2574C13.6715 47.1005 13.4364 46.8398 13.3113 46.4751C13.2742 42.4024 13.2618 38.3297 13.2742 34.2569C13.2618 31.5002 13.2742 28.7436 13.3113 25.9872C13.4517 25.544 13.7362 25.2335 14.1648 25.0559C14.9352 24.8743 15.4918 25.1351 15.8347 25.8382C15.8476 28.6497 15.8847 31.456 15.9461 34.2569Z" fill="#60A2D7"/>
<path opacity="0.986" fill-rule="evenodd" clip-rule="evenodd" d="M26.4109 34.3063C26.4233 38.3389 26.4109 42.3715 26.3738 46.404C25.9586 47.3343 25.2782 47.5941 24.3328 47.1833C24.0586 46.9838 23.8731 46.7241 23.7761 46.404C23.739 42.3715 23.7266 38.3389 23.739 34.3063C23.7266 31.5601 23.739 28.814 23.7761 26.068C23.8797 25.7495 24.0653 25.4897 24.3328 25.2887C25.2763 24.8773 25.9566 25.1371 26.3738 26.068C26.4109 28.814 26.4233 31.5601 26.4109 34.3063Z" fill="#60A2D7"/>
<path opacity="0.986" fill-rule="evenodd" clip-rule="evenodd" d="M10.6765 34.3063C10.6889 37.572 10.6765 40.8376 10.6394 44.1032C10.2368 45.0519 9.55649 45.3117 8.5984 44.8825C8.32424 44.6831 8.13869 44.4233 8.04176 44.1032C8.00465 40.8376 7.99225 37.572 8.00465 34.3063C7.99225 32.1291 8.00465 29.952 8.04176 27.7751C8.12481 27.4233 8.31036 27.1389 8.5984 26.9215C9.54194 26.5102 10.2222 26.7699 10.6394 27.7008C10.6765 29.9025 10.6889 32.1043 10.6765 34.3063Z" fill="#60A2D7"/>
<path opacity="0.971" fill-rule="evenodd" clip-rule="evenodd" d="M21.2156 34.3066C21.228 37.5723 21.2156 40.8379 21.1785 44.1035C21.0026 45.1501 20.3964 45.5583 19.3601 45.3281C18.8845 45.1242 18.6 44.7655 18.5066 44.2519C18.4695 40.9369 18.4571 37.6218 18.4695 34.3066C18.5307 32.1843 18.5678 30.0568 18.5808 27.9238C18.7098 27.6461 18.8954 27.4111 19.1375 27.2187C20.044 26.8495 20.6996 27.1092 21.1043 27.998C21.1167 30.1135 21.1538 32.2163 21.2156 34.3066Z" fill="#60A2D7"/>
<defs>
<clipPath id="clip0_348_3863">
<rect width="38" height="38" fill="white"/>
</clipPath>
</defs>
</svg>
