<svg width="38" height="38" viewBox="0 0 38 38" fill="none" xmlns="http://www.w3.org/2000/svg">
<g clip-path="url(#clip0_348_3881)">
<path opacity="0.993" fill-rule="evenodd" clip-rule="evenodd" d="M37.9629 16.0685C37.9629 16.7118 37.9629 17.3549 37.9629 17.9982C37.4569 20.7761 35.8983 22.7181 33.2871 23.8244C32.8263 23.9829 32.3563 24.1066 31.877 24.1955C30.4191 24.2928 28.9595 24.3299 27.498 24.3068C27.5104 21.5606 27.498 18.8145 27.4609 16.0685C27.0438 15.1376 26.3635 14.8778 25.4199 15.2892C25.1524 15.4902 24.9669 15.75 24.8633 16.0685C24.8262 18.8145 24.8138 21.5606 24.8262 24.3068C23.9851 24.3068 23.1439 24.3068 22.3027 24.3068C22.241 22.2165 22.2039 20.1137 22.1914 17.9982C21.7868 17.1094 21.1312 16.8497 20.2246 17.2189C19.9825 17.4113 19.797 17.6463 19.668 17.924C19.655 20.057 19.6179 22.1845 19.5566 24.3068C18.7155 24.3068 17.8743 24.3068 17.0332 24.3068C16.9718 21.5165 16.9347 18.7209 16.9219 15.9201C16.579 15.2196 16.0223 14.9598 15.252 15.1408C14.8233 15.3177 14.5389 15.627 14.3984 16.0685C14.3613 18.8145 14.3489 21.5606 14.3613 24.3068C13.4954 24.3068 12.6296 24.3068 11.7637 24.3068C11.7761 22.1048 11.7637 19.903 11.7266 17.7013C11.3094 16.7704 10.6291 16.5106 9.68555 16.922C9.3975 17.1393 9.21196 17.4238 9.12891 17.7755C9.0918 19.9525 9.0794 22.1296 9.0918 24.3068C7.87743 24.3295 6.66522 24.2924 5.45508 24.1955C2.41519 23.543 0.584458 21.6999 -0.0371094 18.6662C-0.0371094 18.0229 -0.0371094 17.3797 -0.0371094 16.7365C0.696492 13.3809 2.77462 11.5006 6.19727 11.0959C5.27872 7.88018 5.97143 5.0722 8.27539 2.67203C10.8827 0.478402 13.7772 0.00834954 16.959 1.26187C18.9387 2.169 20.2993 3.64101 21.041 5.67789C23.7216 4.70716 26.0595 5.22669 28.0547 7.23648C28.6836 7.9996 29.1166 8.86551 29.3535 9.83414C32.2003 9.47559 34.563 10.3662 36.4414 12.506C37.2459 13.5726 37.7531 14.7601 37.9629 16.0685Z" fill="#CFD9D8"/>
<path opacity="0.986" fill-rule="evenodd" clip-rule="evenodd" d="M17.0332 24.2569C17.0456 28.28 17.0332 32.3031 16.9961 36.3261C16.6768 37.2614 16.046 37.5717 15.1035 37.2574C14.7586 37.1005 14.5236 36.8398 14.3984 36.4751C14.3613 32.4024 14.3489 28.3297 14.3613 24.2569C14.3489 21.5002 14.3613 18.7436 14.3984 15.9872C14.5389 15.544 14.8234 15.2335 15.252 15.0559C16.0224 14.8743 16.579 15.1351 16.9219 15.8382C16.9347 18.6497 16.9718 21.456 17.0332 24.2569Z" fill="#60A2D7"/>
<path opacity="0.986" fill-rule="evenodd" clip-rule="evenodd" d="M27.4981 24.3068C27.5105 28.3394 27.4981 32.372 27.4609 36.4045C27.0458 37.3348 26.3654 37.5946 25.4199 37.1838C25.1458 36.9843 24.9602 36.7246 24.8633 36.4045C24.8262 32.372 24.8138 28.3394 24.8262 24.3068C24.8138 21.5606 24.8262 18.8145 24.8633 16.0685C24.9669 15.75 25.1524 15.4902 25.4199 15.2892C26.3635 14.8778 27.0438 15.1376 27.4609 16.0685C27.4981 18.8145 27.5105 21.5606 27.4981 24.3068Z" fill="#60A2D7"/>
<path opacity="0.986" fill-rule="evenodd" clip-rule="evenodd" d="M11.7637 24.3068C11.7761 27.5725 11.7637 30.8381 11.7266 34.1037C11.3239 35.0524 10.6436 35.3122 9.68556 34.883C9.41139 34.6835 9.22585 34.4238 9.12892 34.1037C9.09181 30.8381 9.07941 27.5725 9.09181 24.3068C9.07941 22.1296 9.09181 19.9525 9.12892 17.7756C9.21197 17.4238 9.39751 17.1393 9.68556 16.922C10.6291 16.5106 11.3094 16.7704 11.7266 17.7013C11.7637 19.903 11.7761 22.1048 11.7637 24.3068Z" fill="#60A2D7"/>
<path opacity="0.971" fill-rule="evenodd" clip-rule="evenodd" d="M22.3027 24.3066C22.3151 27.5723 22.3027 30.8379 22.2656 34.1035C22.0897 35.1501 21.4836 35.5583 20.4473 35.3281C19.9717 35.1242 19.6871 34.7655 19.5938 34.2519C19.5567 30.9369 19.5443 27.6218 19.5567 24.3066C19.6179 22.1843 19.655 20.0568 19.668 17.9238C19.797 17.6461 19.9825 17.4111 20.2246 17.2187C21.1312 16.8495 21.7868 17.1092 22.1914 17.998C22.2039 20.1135 22.241 22.2163 22.3027 24.3066Z" fill="#60A2D7"/>
<path fill-rule="evenodd" clip-rule="evenodd" d="M11.9071 8.37984C11.8992 8.74497 11.9071 9.10977 11.9309 9.4742C11.965 9.44831 11.9888 9.41657 12.0023 9.37903C12.3272 9.06205 12.6603 8.75278 13.0015 8.45121C13.5519 8.41524 13.7026 8.6452 13.4535 9.14113C13.1442 9.4504 12.8349 9.75968 12.5257 10.069C12.938 10.0848 13.3504 10.1007 13.7628 10.1165C13.9802 10.2374 14.0515 10.4199 13.9769 10.6637C13.9372 10.7668 13.8659 10.8382 13.7628 10.8778C13.3504 10.8937 12.938 10.9096 12.5257 10.9254C12.8508 11.2505 13.1759 11.5757 13.5011 11.9008C13.649 12.4507 13.4508 12.649 12.9063 12.4956C12.5812 12.1704 12.256 11.8453 11.9309 11.5202C11.9151 11.9325 11.8992 12.3449 11.8833 12.7573C11.7624 12.9747 11.58 13.046 11.3361 12.9714C11.233 12.9317 11.1617 12.8604 11.122 12.7573C11.1062 12.3449 11.0903 11.9325 11.0744 11.5202C10.7144 11.9121 10.3259 12.2689 9.90872 12.5907C9.53193 12.6086 9.3654 12.4262 9.40912 12.0436C9.72658 11.6865 10.0517 11.3375 10.3845 10.9968C10.4221 10.9833 10.4538 10.9595 10.4797 10.9254C10.1153 10.9016 9.75047 10.8937 9.38533 10.9016C9.21071 10.9098 9.09176 10.8306 9.02848 10.6637C8.95982 10.4395 9.0153 10.2571 9.19501 10.1165C9.62324 10.1007 10.0515 10.0848 10.4797 10.069C10.1546 9.74383 9.8294 9.41867 9.50429 9.09355C9.37958 8.84475 9.41921 8.63064 9.62324 8.45121C9.78806 8.41234 9.94669 8.42823 10.099 8.49879C10.4242 8.82391 10.7493 9.14908 11.0744 9.4742C11.0903 9.04597 11.1062 8.61774 11.122 8.18952C11.3429 7.95385 11.5808 7.93796 11.8357 8.14194C11.8837 8.2145 11.9075 8.29381 11.9071 8.37984Z" fill="#B6F8FD"/>
<path opacity="0.951" fill-rule="evenodd" clip-rule="evenodd" d="M31.9384 23.2166C31.9486 23.3835 31.9955 23.3835 32.0791 23.2166C32.3639 23.0024 32.6296 22.7601 32.8761 22.4899C33.0262 22.4204 33.1825 22.4047 33.345 22.443C33.5899 22.6974 33.5899 22.9553 33.345 23.2166C33.1044 23.4806 32.8543 23.7385 32.5948 23.9902C33.0047 23.9944 33.411 24.0257 33.8138 24.084C34.0453 24.3017 34.0609 24.5362 33.8607 24.7873C33.7863 24.8277 33.7081 24.859 33.6263 24.8811C33.2825 24.8967 32.9386 24.9123 32.5948 24.9279C32.8995 25.2327 33.2043 25.5374 33.5091 25.8422C33.6686 26.3074 33.5045 26.5341 33.0168 26.522C32.637 26.2363 32.2854 25.9159 31.9618 25.5609C31.9462 25.9204 31.9306 26.2798 31.915 26.6393C31.7518 26.9745 31.5096 27.0449 31.1882 26.8502C31.1589 26.8151 31.1354 26.776 31.1179 26.733C31.0598 26.3459 31.0285 25.9551 31.0241 25.5609C30.7023 25.8984 30.3663 26.2188 30.0161 26.522C29.496 26.5685 29.3162 26.3419 29.4769 25.8422C29.7817 25.5374 30.0864 25.2327 30.3912 24.9279C30.0474 24.9123 29.7035 24.8967 29.3597 24.8811C29.084 24.8066 28.9668 24.6269 29.0081 24.3419C29.0243 24.2318 29.079 24.1458 29.1722 24.084C29.5749 24.0257 29.9813 23.9944 30.3912 23.9902C30.1316 23.7385 29.8815 23.4806 29.641 23.2166C29.5784 23.1458 29.5237 23.0677 29.4769 22.9822C29.4259 22.4865 29.6369 22.3224 30.1099 22.4899C30.3564 22.7601 30.622 23.0024 30.9069 23.2166C30.9905 23.3835 31.0374 23.3835 31.0476 23.2166C31.0864 22.8812 31.1099 22.5373 31.1179 22.1851C31.3714 21.9383 31.6214 21.9383 31.8681 22.1851C31.8761 22.5373 31.8995 22.8812 31.9384 23.2166ZM30.9069 23.2166C30.9538 23.2166 31.0007 23.2166 31.0476 23.2166C31.0374 23.3835 30.9905 23.3835 30.9069 23.2166ZM31.9384 23.2166C31.9853 23.2166 32.0322 23.2166 32.0791 23.2166C31.9955 23.3835 31.9486 23.3835 31.9384 23.2166Z" fill="#B6F8FD"/>
</g>
<defs>
<clipPath id="clip0_348_3881">
<rect width="38" height="38" fill="white"/>
</clipPath>
</defs>
</svg>
