<svg width="38" height="38" viewBox="0 0 38 38" fill="none" xmlns="http://www.w3.org/2000/svg">
<g clip-path="url(#clip0_343_3036)">
<path opacity="0.994" fill-rule="evenodd" clip-rule="evenodd" d="M37.9629 19.0371C37.9629 19.6556 37.9629 20.2741 37.9629 20.8926C37.2935 24.3699 35.2154 26.4605 31.7285 27.164C30.1949 27.2012 28.661 27.2135 27.127 27.2012C27.5147 26.7875 27.5147 26.3793 27.127 25.9765C26.8699 25.9159 26.6224 25.9407 26.3848 26.0508C25.9945 26.4786 25.574 26.862 25.123 27.2012C25.0488 27.2012 24.9746 27.2012 24.9004 27.2012C24.8389 26.6701 24.8018 26.1258 24.7891 25.5683C24.3987 25.1776 24.0029 25.1776 23.6016 25.5683C23.5889 26.1258 23.5518 26.6701 23.4902 27.2012C23.416 27.2012 23.3418 27.2012 23.2676 27.2012C22.8166 26.862 22.3961 26.4786 22.0059 26.0508C21.2571 25.7856 20.9232 26.0453 21.0039 26.8301C21.0779 26.9654 21.1645 27.0891 21.2637 27.2012C19.2845 27.2012 17.3054 27.2012 15.3262 27.2012C15.1282 27.2012 14.9304 27.2012 14.7324 27.2012C14.1882 27.2012 13.6439 27.2012 13.0996 27.2012C12.8224 26.4421 12.3894 26.3432 11.8008 26.9043C11.7852 27.0199 11.7481 27.1188 11.6895 27.2012C11.1699 27.2012 10.6504 27.2012 10.1309 27.2012C9.9082 27.2012 9.68555 27.2012 9.46289 27.2012C8.17616 27.2135 6.88973 27.2012 5.60352 27.164C2.48461 26.5754 0.604406 24.7323 -0.0371094 21.6347C-0.0371094 20.9915 -0.0371094 20.3483 -0.0371094 19.7051C0.708963 16.325 2.81183 14.4324 6.27148 14.0273C5.23108 10.4944 6.09696 7.52562 8.86914 5.12108C11.9763 3.05135 15.1183 3.00187 18.2949 4.97264C19.6166 5.89802 20.532 7.12263 21.041 8.64647C23.7691 7.63093 26.1318 8.17518 28.1289 10.2793C28.7146 11.0302 29.1228 11.8714 29.3535 12.8027C33.1205 12.3789 35.8295 13.8632 37.4805 17.2558C37.6828 17.8486 37.8435 18.4423 37.9629 19.0371Z" fill="#A3D4F7"/>
<path fill-rule="evenodd" clip-rule="evenodd" d="M17.6269 17.9978C17.6146 18.5673 17.6269 19.1364 17.6641 19.7048C17.7173 19.6644 17.7544 19.6149 17.7754 19.5564C18.2822 19.0619 18.8018 18.5795 19.334 18.1091C20.1926 18.053 20.4277 18.4117 20.0391 19.1853C19.5566 19.6677 19.0742 20.1501 18.5918 20.6325C19.235 20.6572 19.8782 20.682 20.5215 20.7068C20.8606 20.8953 20.9719 21.1799 20.8555 21.5603C20.7936 21.7211 20.6823 21.8324 20.5215 21.8943C19.8782 21.919 19.235 21.9438 18.5918 21.9685C19.0989 22.4756 19.6061 22.9828 20.1133 23.49C20.344 24.3477 20.0348 24.657 19.1855 24.4177C18.6784 23.9106 18.1712 23.4033 17.6641 22.8962C17.6393 23.5395 17.6145 24.1826 17.5898 24.8259C17.4012 25.165 17.1167 25.2763 16.7363 25.1599C16.5755 25.0981 16.4642 24.9867 16.4023 24.8259C16.3776 24.1826 16.3528 23.5395 16.3281 22.8962C15.7665 23.5075 15.1604 24.0642 14.5098 24.5661C13.922 24.594 13.6623 24.3095 13.7305 23.7126C14.2256 23.1557 14.7328 22.6114 15.2519 22.0798C15.3105 22.0588 15.36 22.0217 15.4004 21.9685C14.8319 21.9314 14.2629 21.919 13.6933 21.9314C13.421 21.9442 13.2354 21.8206 13.1367 21.5603C13.0296 21.2105 13.1161 20.9261 13.3965 20.7068C14.0644 20.682 14.7324 20.6572 15.4004 20.6325C14.8932 20.1254 14.386 19.6182 13.8789 19.111C13.6844 18.723 13.7462 18.389 14.0644 18.1091C14.3215 18.0485 14.569 18.0732 14.8066 18.1833C15.3138 18.6904 15.821 19.1977 16.3281 19.7048C16.3528 19.0368 16.3776 18.3689 16.4023 17.7009C16.7469 17.3333 17.118 17.3085 17.5156 17.6267C17.5905 17.7399 17.6276 17.8636 17.6269 17.9978Z" fill="#B6F8FD"/>
<path fill-rule="evenodd" clip-rule="evenodd" d="M17.6269 17.998C17.6764 18.5176 17.7259 19.0371 17.7754 19.5566C17.7544 19.6152 17.7173 19.6647 17.664 19.7051C17.6269 19.1366 17.6146 18.5676 17.6269 17.998Z" fill="#A8DDF9"/>
<path fill-rule="evenodd" clip-rule="evenodd" d="M13.6934 21.9319C14.2629 21.9195 14.8319 21.9319 15.4004 21.969C15.36 22.0222 15.3105 22.0593 15.252 22.0803C14.7324 22.0308 14.2129 21.9814 13.6934 21.9319Z" fill="#A8DDF9"/>
<path opacity="0.951" fill-rule="evenodd" clip-rule="evenodd" d="M24.9004 27.2013C24.9165 27.4655 24.9907 27.4655 25.123 27.2013C25.574 26.8622 25.9945 26.4787 26.3848 26.0509C26.6224 25.9408 26.8699 25.916 27.127 25.9767C27.5147 26.3794 27.5147 26.7876 27.127 27.2013C26.7462 27.6192 26.3503 28.0274 25.9395 28.4259C26.5883 28.4325 27.2315 28.482 27.8691 28.5743C28.2356 28.919 28.2603 29.2901 27.9434 29.6876C27.8256 29.7516 27.7018 29.8011 27.5723 29.836C27.028 29.8608 26.4837 29.8855 25.9395 29.9103C26.4219 30.3927 26.9043 30.8751 27.3867 31.3575C27.6392 32.094 27.3794 32.4528 26.6074 32.4337C26.0063 31.9813 25.4497 31.4742 24.9375 30.9122C24.9128 31.4812 24.888 32.0502 24.8633 32.6192C24.6051 33.15 24.2216 33.2613 23.7129 32.9532C23.6664 32.8976 23.6293 32.8357 23.6016 32.7677C23.5095 32.1549 23.46 31.5363 23.4531 30.9122C22.9437 31.4464 22.4118 31.9536 21.8574 32.4337C21.0341 32.5072 20.7496 32.1485 21.0039 31.3575C21.4863 30.8751 21.9687 30.3927 22.4512 29.9103C21.9069 29.8855 21.3626 29.8608 20.8184 29.836C20.382 29.7183 20.1964 29.4337 20.2617 28.9825C20.2874 28.8083 20.374 28.6722 20.5215 28.5743C21.1591 28.482 21.8023 28.4325 22.4512 28.4259C22.0403 28.0274 21.6444 27.6192 21.2637 27.2013C21.1645 27.0892 21.0779 26.9655 21.0039 26.8302C20.9232 26.0455 21.2571 25.7857 22.0059 26.0509C22.3961 26.4787 22.8166 26.8622 23.2676 27.2013C23.3999 27.4655 23.4741 27.4655 23.4902 27.2013C23.5518 26.6702 23.5889 26.1259 23.6016 25.5685C24.0029 25.1777 24.3987 25.1777 24.7891 25.5685C24.8018 26.1259 24.8389 26.6702 24.9004 27.2013ZM23.2676 27.2013C23.3418 27.2013 23.416 27.2013 23.4902 27.2013C23.4741 27.4655 23.3999 27.4655 23.2676 27.2013ZM24.9004 27.2013C24.9746 27.2013 25.0488 27.2013 25.123 27.2013C24.9907 27.4655 24.9165 27.4655 24.9004 27.2013Z" fill="#B6F8FD"/>
<path opacity="0.951" fill-rule="evenodd" clip-rule="evenodd" d="M13.0996 27.201C13.0873 27.7211 13.0996 28.2407 13.1367 28.7596C13.6609 28.223 14.1928 27.7035 14.7324 27.201C14.9304 27.201 15.1282 27.201 15.3262 27.201C15.7423 27.5276 15.8042 27.9234 15.5117 28.3885C15.054 28.8462 14.5964 29.3038 14.1387 29.7615C14.7572 29.7863 15.3757 29.811 15.9942 29.8358C16.489 30.2564 16.489 30.6769 15.9942 31.0975C15.3509 31.1222 14.7077 31.147 14.0645 31.1717C14.5716 31.6788 15.0788 32.186 15.586 32.6932C15.8082 33.5238 15.4989 33.8578 14.6582 33.6951C14.1511 33.188 13.6439 32.6808 13.1367 32.1737C13.112 32.7674 13.0872 33.3612 13.0625 33.9549C12.6931 34.5367 12.2726 34.5862 11.8008 34.1033C11.7088 33.4905 11.6593 32.872 11.6524 32.2479C11.1402 32.8099 10.5835 33.317 9.98244 33.7694C9.21042 33.7884 8.95065 33.4297 9.20314 32.6932C9.71028 32.186 10.2175 31.6788 10.7246 31.1717C10.0814 31.147 9.43819 31.1222 8.79494 31.0975C8.30012 30.6769 8.30012 30.2564 8.79494 29.8358C9.43819 29.811 10.0814 29.7863 10.7246 29.7615C10.2175 29.2544 9.71028 28.7472 9.20314 28.2401C9.0124 27.8201 9.09894 27.4738 9.46291 27.201C9.68557 27.201 9.90822 27.201 10.1309 27.201C10.623 27.7303 11.1302 28.2499 11.6524 28.7596C11.6895 28.2407 11.7018 27.7211 11.6895 27.201C11.7481 27.1187 11.7852 27.0198 11.8008 26.9041C12.3894 26.343 12.8224 26.442 13.0996 27.201ZM10.1309 27.201C10.6504 27.201 11.1699 27.201 11.6895 27.201C11.7018 27.7211 11.6895 28.2407 11.6524 28.7596C11.1302 28.2499 10.623 27.7303 10.1309 27.201ZM13.0996 27.201C13.6439 27.201 14.1882 27.201 14.7324 27.201C14.1928 27.7035 13.6609 28.223 13.1367 28.7596C13.0996 28.2407 13.0873 27.7211 13.0996 27.201Z" fill="#B6F8FD"/>
</g>
<defs>
<clipPath id="clip0_343_3036">
<rect width="38" height="38" fill="white"/>
</clipPath>
</defs>
</svg>
