<svg width="38" height="38" viewBox="0 0 38 38" fill="none" xmlns="http://www.w3.org/2000/svg">
<g clip-path="url(#clip0_352_4063)">
<path opacity="0.994" fill-rule="evenodd" clip-rule="evenodd" d="M37.9629 19.0371C37.9629 19.6556 37.9629 20.2741 37.9629 20.8926C37.2935 24.3699 35.2154 26.4605 31.7285 27.164C22.8695 27.2374 14.0128 27.2127 5.1582 27.0898C2.87975 26.5427 1.28405 25.1944 0.371094 23.0449C0.221451 22.5686 0.0853835 22.0985 -0.0371094 21.6347C-0.0371094 20.9915 -0.0371094 20.3483 -0.0371094 19.7051C0.708963 16.325 2.81183 14.4324 6.27148 14.0273C5.23108 10.4944 6.09696 7.52562 8.86914 5.12108C11.9763 3.05135 15.1183 3.00187 18.2949 4.97264C19.6166 5.89802 20.532 7.12263 21.041 8.64647C23.7691 7.63093 26.1318 8.17518 28.1289 10.2793C28.7146 11.0302 29.1228 11.8714 29.3535 12.8027C33.1205 12.3789 35.8295 13.8632 37.4805 17.2558C37.6828 17.8486 37.8435 18.4423 37.9629 19.0371Z" fill="#A2D3F6"/>
<path fill-rule="evenodd" clip-rule="evenodd" d="M9.5371 20.002C10.1888 19.977 10.832 20.0388 11.4668 20.1875C12.3408 20.4885 13.2067 20.8102 14.0644 21.1524C14.9798 21.3008 15.8952 21.3008 16.8105 21.1524C17.7352 20.7643 18.6754 20.4179 19.6308 20.1133C20.8853 19.9141 22.1223 19.9883 23.3418 20.336C24.0294 20.6229 24.7222 20.895 25.4199 21.1524C25.9918 21.2161 26.5608 21.2903 27.1269 21.375C27.6267 21.8014 27.6019 22.1973 27.0527 22.5625C26.1309 22.6645 25.2403 22.5409 24.3808 22.1914C23.0163 21.4239 21.5567 21.1517 20.0019 21.375C19.0323 21.7065 18.0674 22.0529 17.1074 22.4141C15.7239 22.719 14.3632 22.6448 13.0254 22.1914C11.9126 21.5917 10.7251 21.27 9.46288 21.2266C9.14463 20.9467 9.0828 20.6127 9.27733 20.2246C9.36231 20.1403 9.44893 20.0661 9.5371 20.002Z" fill="#61A2D7"/>
<path fill-rule="evenodd" clip-rule="evenodd" d="M9.5371 23.9354C10.0849 23.9216 10.6292 23.9587 11.1699 24.0468C12.158 24.3306 13.1228 24.6769 14.0644 25.0858C14.9798 25.2343 15.8952 25.2343 16.8105 25.0858C17.7532 24.6763 18.718 24.3299 19.7051 24.0468C20.8534 23.8671 21.9914 23.9166 23.1191 24.1952C23.8811 24.5068 24.648 24.8037 25.4199 25.0858C25.9918 25.1496 26.5608 25.2238 27.1269 25.3085C27.6267 25.7349 27.6019 26.1307 27.0527 26.496C26.1327 26.5876 25.2421 26.4639 24.3808 26.1249C23.0163 25.3573 21.5567 25.0851 20.0019 25.3085C19.0323 25.6399 18.0674 25.9863 17.1074 26.3475C15.7239 26.6524 14.3632 26.5782 13.0254 26.1249C11.9126 25.5251 10.7251 25.2035 9.46288 25.16C9.14463 24.8802 9.0828 24.5462 9.27733 24.1581C9.36231 24.0738 9.44893 23.9995 9.5371 23.9354Z" fill="#61A2D7"/>
<path opacity="0.939" fill-rule="evenodd" clip-rule="evenodd" d="M9.68555 27.7949C10.548 27.7995 11.3892 27.9356 12.209 28.2031C13.7743 29.128 15.4319 29.3506 17.1816 28.8711C17.9246 28.512 18.6915 28.2151 19.4824 27.9805C20.8624 27.6991 22.2231 27.7733 23.5645 28.2031C24.6434 28.8267 25.8062 29.1483 27.0527 29.168C27.5064 29.409 27.6177 29.7677 27.3867 30.2441C27.2159 30.3981 27.018 30.4971 26.793 30.541C26.1847 30.4946 25.5785 30.4081 24.9746 30.2812C24.1169 29.939 23.251 29.6174 22.377 29.3164C21.3339 29.1269 20.3071 29.1888 19.2969 29.502C17.3112 30.5599 15.2454 30.7701 13.0996 30.1328C12.5179 29.8564 11.9241 29.6091 11.3184 29.3906C10.6774 29.2691 10.0342 29.1701 9.38867 29.0938C9.02752 28.7435 9.00281 28.3724 9.31445 27.9805C9.44916 27.9243 9.57281 27.8625 9.68555 27.7949Z" fill="#60A2D7"/>
<path opacity="0.939" fill-rule="evenodd" clip-rule="evenodd" d="M9.68555 31.7285C10.548 31.7331 11.3892 31.8692 12.209 32.1367C13.7743 33.0616 15.4319 33.2842 17.1816 32.8047C17.9246 32.4456 18.6915 32.1487 19.4824 31.9141C20.863 31.6328 22.2237 31.707 23.5645 32.1367C24.6434 32.7603 25.8062 33.0819 27.0527 33.1016C27.5064 33.3426 27.6177 33.7012 27.3867 34.1777C27.2159 34.3317 27.018 34.4307 26.793 34.4746C26.1847 34.4282 25.5785 34.3417 24.9746 34.2148C24.1169 33.8726 23.251 33.551 22.377 33.25C21.3339 33.0605 20.3071 33.1223 19.2969 33.4355C17.3112 34.4935 15.2454 34.7037 13.0996 34.0664C12.5179 33.79 11.9241 33.5426 11.3184 33.3242C10.6774 33.2027 10.0342 33.1037 9.38867 33.0273C9.02752 32.6771 9.00281 32.306 9.31445 31.9141C9.44916 31.8579 9.57281 31.7961 9.68555 31.7285Z" fill="#60A2D7"/>
</g>
<defs>
<clipPath id="clip0_352_4063">
<rect width="38" height="38" fill="white"/>
</clipPath>
</defs>
</svg>
