<svg width="38" height="38" viewBox="0 0 38 38" fill="none" xmlns="http://www.w3.org/2000/svg">
<g clip-path="url(#clip0_354_4289)">
<path opacity="0.992" fill-rule="evenodd" clip-rule="evenodd" d="M37.9629 19.334C37.9629 19.9773 37.9629 20.6204 37.9629 21.2637C37.3919 24.3472 35.6106 26.3635 32.6191 27.3125C32.1073 27.44 31.5877 27.5143 31.0605 27.5352C22.4991 27.6081 13.9392 27.5834 5.38086 27.461C2.38132 26.7747 0.575327 24.9316 -0.0371094 21.9317C-0.0371094 21.2884 -0.0371094 20.6452 -0.0371094 20.002C0.691714 16.6635 2.75747 14.7833 6.16016 14.3614C5.22963 10.9452 6.05841 8.03836 8.64648 5.64065C11.8175 3.34168 15.0584 3.24272 18.3691 5.34378C19.6364 6.31375 20.5641 7.53835 21.1523 9.0176C23.9456 7.95323 26.3206 8.54698 28.2773 10.7989C28.7951 11.4881 29.1538 12.2551 29.3535 13.0996C32.1514 12.7498 34.4893 13.6158 36.3672 15.6973C37.195 16.7838 37.7268 17.996 37.9629 19.334Z" fill="#CFD9D8"/>
<path fill-rule="evenodd" clip-rule="evenodd" d="M7.53326 20.9666C9.4631 20.9542 11.3928 20.9666 13.3223 21.0037C13.7883 21.3711 13.813 21.7669 13.3965 22.1912C13.2976 22.2159 13.1986 22.2407 13.0997 22.2654C11.2937 22.3149 9.48766 22.3149 7.6817 22.2654C7.23734 22.1066 7.07653 21.7973 7.19928 21.3377C7.32599 21.2236 7.4373 21.0999 7.53326 20.9666Z" fill="#92AEBB"/>
<path fill-rule="evenodd" clip-rule="evenodd" d="M15.4004 20.9668C16.0498 20.9364 16.693 20.9735 17.3301 21.0782C17.7202 21.4436 17.7202 21.8147 17.3301 22.1914C16.7411 22.305 16.1474 22.3297 15.5489 22.2657C15.1221 22.1007 14.9613 21.7914 15.0664 21.3379C15.1931 21.2238 15.3045 21.1001 15.4004 20.9668Z" fill="#92AEBB"/>
<path fill-rule="evenodd" clip-rule="evenodd" d="M19.334 20.9666C21.6843 20.9542 24.0346 20.9666 26.3848 21.0037C26.858 21.2666 26.9446 21.6253 26.6445 22.0798C26.5222 22.1702 26.3862 22.232 26.2363 22.2654C23.985 22.3149 21.7337 22.3149 19.4824 22.2654C19.0381 22.1066 18.8772 21.7973 19 21.3377C19.1267 21.2236 19.238 21.0999 19.334 20.9666Z" fill="#92AEBB"/>
<path fill-rule="evenodd" clip-rule="evenodd" d="M10.2051 24.9002C12.976 24.8878 15.7469 24.9002 18.5176 24.9373C18.9889 25.2056 19.0756 25.5643 18.7774 26.0134C18.655 26.1038 18.519 26.1656 18.3691 26.199C15.6726 26.2485 12.9759 26.2485 10.2793 26.199C9.63509 25.7909 9.61037 25.3579 10.2051 24.9002Z" fill="#92AEBB"/>
<path fill-rule="evenodd" clip-rule="evenodd" d="M20.6699 24.9002C21.7093 24.8878 22.7484 24.9002 23.7871 24.9373C24.1326 25.1523 24.2439 25.4615 24.1211 25.865C23.9996 26.0364 23.8388 26.1478 23.6387 26.199C22.6738 26.2485 21.709 26.2485 20.7442 26.199C20.3293 26.0171 20.1933 25.7079 20.3359 25.2713C20.4373 25.1331 20.5487 25.0094 20.6699 24.9002Z" fill="#92AEBB"/>
<path fill-rule="evenodd" clip-rule="evenodd" d="M25.9394 24.9002C26.9293 24.8878 27.9189 24.9002 28.9082 24.9373C29.48 25.1744 29.579 25.5455 29.2051 26.0505C29.0873 26.1145 28.9635 26.164 28.834 26.199C27.8938 26.2485 26.9538 26.2485 26.0136 26.199C25.3482 25.8053 25.3235 25.3723 25.9394 24.9002Z" fill="#92AEBB"/>
<path opacity="0.973" fill-rule="evenodd" clip-rule="evenodd" d="M7.75591 28.7595C9.53731 28.7471 11.3186 28.7595 13.0997 28.7966C13.723 28.984 13.8838 29.3675 13.5821 29.947C13.5151 30.0362 13.4285 30.0981 13.3223 30.1326C11.3926 30.1821 9.46294 30.1821 7.53326 30.1326C7.1639 29.8784 7.05257 29.5444 7.19927 29.1306C7.34128 28.9243 7.5268 28.8006 7.75591 28.7595Z" fill="#92ADBA"/>
<path opacity="0.96" fill-rule="evenodd" clip-rule="evenodd" d="M15.6231 28.7597C16.1974 28.7333 16.7664 28.7704 17.3301 28.871C17.8239 29.3203 17.7991 29.7409 17.2559 30.1328C16.6374 30.1823 16.0189 30.1823 15.4004 30.1328C15.031 29.8786 14.9197 29.5446 15.0664 29.1308C15.2084 28.9245 15.3939 28.8007 15.6231 28.7597Z" fill="#92ADB9"/>
<path opacity="0.975" fill-rule="evenodd" clip-rule="evenodd" d="M19.5566 28.7595C21.7586 28.7471 23.9604 28.7595 26.1621 28.7966C26.7365 28.8931 26.9468 29.2271 26.793 29.7986C26.7019 29.9638 26.5658 30.0751 26.3847 30.1326C24.0345 30.1821 21.6843 30.1821 19.334 30.1326C18.9547 29.8855 18.8434 29.5515 19 29.1306C19.142 28.9243 19.3275 28.8006 19.5566 28.7595Z" fill="#92ADBA"/>
<path opacity="0.924" fill-rule="evenodd" clip-rule="evenodd" d="M10.3535 32.6931C13.0255 32.6807 15.6974 32.6931 18.3691 32.7302C18.8906 32.8696 19.0762 33.2036 18.9258 33.7322C18.8347 33.8974 18.6986 34.0087 18.5176 34.0662C15.7468 34.1157 12.9759 34.1157 10.2051 34.0662C9.75146 33.8252 9.64013 33.4665 9.8711 32.99C10.0205 32.8603 10.1813 32.7613 10.3535 32.6931Z" fill="#91AEB9"/>
<path opacity="0.915" fill-rule="evenodd" clip-rule="evenodd" d="M20.8926 32.6935C21.8866 32.6619 22.8762 32.6991 23.8613 32.8048C24.167 33.0088 24.2783 33.2932 24.1953 33.6583C24.1087 33.8439 23.9726 33.9799 23.7871 34.0665C22.748 34.116 21.709 34.116 20.6699 34.0665C20.2318 33.8034 20.1328 33.4446 20.373 32.9904C20.5233 32.8372 20.6965 32.7382 20.8926 32.6935Z" fill="#91AEB9"/>
<path opacity="0.915" fill-rule="evenodd" clip-rule="evenodd" d="M26.0879 32.6931C27.0036 32.6807 27.9189 32.6931 28.834 32.7302C29.448 32.9219 29.6088 33.3053 29.3164 33.8806C29.2494 33.9698 29.1629 34.0317 29.0566 34.0662C28.0176 34.1157 26.9785 34.1157 25.9395 34.0662C25.4858 33.8252 25.3745 33.4665 25.6055 32.99C25.7549 32.8603 25.9157 32.7613 26.0879 32.6931Z" fill="#91AEB9"/>
</g>
<defs>
<clipPath id="clip0_354_4289">
<rect width="38" height="38" fill="white"/>
</clipPath>
</defs>
</svg>
