<svg width="38" height="38" viewBox="0 0 38 38" fill="none" xmlns="http://www.w3.org/2000/svg">
<g clip-path="url(#clip0_354_4212)">
<path opacity="0.999" fill-rule="evenodd" clip-rule="evenodd" d="M31.7285 0.33374C32.1789 0.65236 32.2903 1.07293 32.0625 1.59546C30.9814 2.70848 29.9794 3.88362 29.0566 5.12085C20.6205 5.15796 12.1843 5.17033 3.74805 5.15796C3.72331 5.15796 3.69857 5.15796 3.67383 5.15796C4.1553 3.65078 4.83563 2.24062 5.71484 0.92749C5.85091 0.692464 6.03646 0.506917 6.27148 0.37085C14.7571 0.33374 23.2428 0.32137 31.7285 0.33374Z" fill="#A3D3F6"/>
<path opacity="0.986" fill-rule="evenodd" clip-rule="evenodd" d="M31.7285 0.334221C32.4959 0.321865 33.2628 0.334234 34.0293 0.371331C34.3486 0.51495 34.497 0.762345 34.4746 1.11352C34.4751 1.28421 34.4379 1.44501 34.3633 1.59594C33.3178 2.75225 32.3159 3.93975 31.3574 5.15844C22.147 5.25731 12.9439 5.25731 3.74805 5.15844C12.1843 5.17081 20.6205 5.15844 29.0566 5.12133C29.9794 3.8841 30.9814 2.70896 32.0625 1.59594C32.2903 1.07341 32.1789 0.652841 31.7285 0.334221Z" fill="#A3D3F6"/>
<path fill-rule="evenodd" clip-rule="evenodd" d="M15.4746 2.41187C19.5072 2.39949 23.5398 2.41187 27.5722 2.44898C28.0021 2.60412 28.1134 2.88863 27.9062 3.30249C27.8161 3.41744 27.7048 3.50403 27.5722 3.56226C23.5644 3.61174 19.5566 3.61174 15.5488 3.56226C15.1072 3.37844 14.9959 3.06919 15.2148 2.63452C15.2998 2.55018 15.3864 2.47596 15.4746 2.41187Z" fill="#CFD9D8"/>
<path opacity="0.991" fill-rule="evenodd" clip-rule="evenodd" d="M3.67383 5.15837C3.69857 5.15837 3.72331 5.15837 3.74805 5.15837C12.9439 5.25724 22.147 5.25724 31.3574 5.15837C33.1206 5.19398 34.8772 5.15688 36.627 5.04705C36.8581 4.70239 36.8086 4.40551 36.4785 4.15642C36.1816 4.13168 35.8848 4.10694 35.5879 4.0822C35.2373 3.90146 35.126 3.61696 35.2539 3.22869C35.3157 3.11736 35.4023 3.03077 35.5137 2.96892C36.6511 2.72162 37.4675 3.10508 37.9629 4.11931C37.9629 4.46567 37.9629 4.81202 37.9629 5.15837C37.7539 5.72602 37.358 6.10949 36.7754 6.30877C34.6479 6.34587 32.5204 6.35824 30.3926 6.34587C29.6257 6.34587 28.8587 6.34587 28.0918 6.34587C19.8782 6.34587 11.6647 6.34587 3.45117 6.34587C2.60432 6.37804 1.76317 6.34093 0.927734 6.23455C0.457493 5.99983 0.135877 5.64111 -0.0371094 5.15837C-0.0371094 4.81202 -0.0371094 4.46567 -0.0371094 4.11931C0.500232 3.05994 1.36611 2.67648 2.56055 2.96892C2.87621 3.22278 2.93806 3.53203 2.74609 3.89666C2.67911 3.98582 2.59252 4.04768 2.48633 4.0822C2.13997 4.10694 1.79362 4.13168 1.44727 4.15642C1.05328 4.48517 1.05328 4.80678 1.44727 5.12127C2.18904 5.15836 2.93123 5.17073 3.67383 5.15837Z" fill="#CFD9D8"/>
<path opacity="0.999" fill-rule="evenodd" clip-rule="evenodd" d="M3.4512 6.3457C11.6648 6.3457 19.8783 6.3457 28.0918 6.3457C27.8048 6.78295 27.5079 7.2159 27.2012 7.64453C27.3894 7.65834 27.5626 7.69545 27.7207 7.75586C26.8721 7.54166 26.4762 7.86325 26.5332 8.7207C25.5462 10.125 24.7298 11.6341 24.084 13.248C18.3197 13.248 12.5554 13.248 6.79104 13.248C5.60942 12.3757 4.68168 11.2871 4.00784 9.98242C3.51709 8.81904 3.33155 7.60683 3.4512 6.3457Z" fill="#A3D3F6"/>
<path opacity="0.986" fill-rule="evenodd" clip-rule="evenodd" d="M28.0918 6.3457C28.8587 6.3457 29.6257 6.3457 30.3926 6.3457C29.9904 6.97704 29.5698 7.59555 29.1309 8.20117C28.6944 7.94579 28.2244 7.79735 27.7207 7.75586C27.5625 7.69545 27.3894 7.65834 27.2012 7.64453C27.5079 7.2159 27.8048 6.78295 28.0918 6.3457Z" fill="#A3D3F6"/>
<path opacity="0.988" fill-rule="evenodd" clip-rule="evenodd" d="M27.7207 7.75563C28.2244 7.79712 28.6944 7.94555 29.1309 8.20094C30.2427 8.99048 30.6509 10.0543 30.3555 11.3923C30.2937 11.4542 30.2318 11.5161 30.1699 11.5779C29.1617 11.7588 28.271 11.5239 27.4981 10.8728C26.9573 10.2608 26.6357 9.54341 26.5332 8.72047C26.4762 7.86302 26.8721 7.54143 27.7207 7.75563Z" fill="#E2A975"/>
<path opacity="0.991" fill-rule="evenodd" clip-rule="evenodd" d="M26.5332 8.7207C26.6357 9.54364 26.9573 10.261 27.498 10.873C27.0866 11.6465 26.7155 12.4382 26.3848 13.248C25.6179 13.248 24.8509 13.248 24.084 13.248C24.7298 11.6341 25.5462 10.125 26.5332 8.7207Z" fill="#A3D3F6"/>
<path fill-rule="evenodd" clip-rule="evenodd" d="M8.64653 9.09156C12.7039 9.07917 16.7612 9.09156 20.8184 9.12867C21.289 9.43178 21.3137 9.77809 20.8926 10.1677C16.7859 10.2172 12.6791 10.2172 8.57231 10.1677C8.16433 9.77311 8.18905 9.41441 8.64653 9.09156Z" fill="#CFD9D8"/>
<path opacity="0.974" fill-rule="evenodd" clip-rule="evenodd" d="M6.79102 13.2481C12.5554 13.2481 18.3196 13.2481 24.084 13.2481C24.8509 13.2481 25.6179 13.2481 26.3848 13.2481C29.2299 13.2605 32.075 13.2481 34.9199 13.211C35.2861 13.0132 35.3727 12.7288 35.1797 12.3575C34.7814 12.2443 34.3732 12.1578 33.9551 12.0978C33.5593 11.7514 33.5593 11.4051 33.9551 11.0587C34.7938 10.8373 35.5235 11.0228 36.1445 11.6153C36.4938 12.1701 36.568 12.7639 36.3672 13.3966C36.1139 13.9222 35.7057 14.2562 35.1426 14.3985C32.0503 14.4356 28.9578 14.448 25.8652 14.4356C20.1257 14.3367 14.386 14.3367 8.64648 14.4356C6.19714 14.448 3.74792 14.4356 1.29883 14.3985C0.656793 14.2386 0.21148 13.8552 -0.0371094 13.2481C-0.0371094 12.9018 -0.0371094 12.5555 -0.0371094 12.2091C0.422715 11.1996 1.21438 10.7914 2.33789 10.9845C2.79457 11.0932 2.95538 11.3777 2.82031 11.838C2.72093 12.0305 2.56013 12.1418 2.33789 12.172C1.98295 12.1808 1.63659 12.2302 1.29883 12.3204C1.08073 12.6186 1.10547 12.8908 1.37305 13.1368C3.17236 13.2467 4.97836 13.2838 6.79102 13.2481Z" fill="#CFD9D8"/>
<path opacity="0.999" fill-rule="evenodd" clip-rule="evenodd" d="M8.64652 14.4355C13.6192 14.4355 18.5918 14.4355 23.5645 14.4355C23.0926 15.9308 22.8452 17.4646 22.8223 19.0371C18.196 19.0371 13.5697 19.0371 8.9434 19.0371C8.77099 18.559 8.65966 18.0642 8.60942 17.5527C8.53624 16.6059 8.57335 15.6658 8.72074 14.7324C8.66538 14.6407 8.64066 14.5417 8.64652 14.4355Z" fill="#A3D3F6"/>
<path opacity="0.989" fill-rule="evenodd" clip-rule="evenodd" d="M8.64648 14.4355C14.386 14.3366 20.1257 14.3366 25.8652 14.4355C25.361 15.927 25.1136 17.4608 25.123 19.0371C24.3561 19.0371 23.5892 19.0371 22.8223 19.0371C22.8452 17.4646 23.0926 15.9308 23.5645 14.4355C18.5918 14.4355 13.6191 14.4355 8.64648 14.4355Z" fill="#A3D3F6"/>
<path opacity="0.991" fill-rule="evenodd" clip-rule="evenodd" d="M8.94341 19.0369C13.5697 19.0369 18.196 19.0369 22.8223 19.0369C23.5892 19.0369 24.3562 19.0369 25.1231 19.0369C27.6219 19.0493 30.1206 19.0369 32.6192 18.9998C33.2232 18.6096 33.1984 18.2633 32.545 17.9607C32.2728 17.936 32.0007 17.9112 31.7286 17.8865C31.306 17.4515 31.3555 17.0804 31.877 16.7732C33.489 16.5799 34.2683 17.285 34.2149 18.8885C34.0662 19.4824 33.7075 19.8906 33.1387 20.1131C30.5441 20.2219 27.9465 20.259 25.3458 20.2244C20.0195 20.1256 14.7005 20.1256 9.38872 20.2244C8.22571 20.2368 7.06294 20.2244 5.90044 20.1873C5.23887 20.0857 4.78118 19.727 4.52739 19.1111C4.25541 17.6022 4.88627 16.8105 6.41997 16.7361C7.05156 16.6633 7.3608 16.9355 7.34771 17.5525C7.28948 17.6851 7.20289 17.7964 7.08794 17.8865C6.68596 17.8983 6.29012 17.9478 5.90044 18.035C5.50461 18.3318 5.50461 18.6287 5.90044 18.9256C6.90746 19.0342 7.92179 19.0714 8.94341 19.0369Z" fill="#CFD9D8"/>
<path opacity="0.997" fill-rule="evenodd" clip-rule="evenodd" d="M9.38867 20.2246C13.9407 20.2246 18.4929 20.2246 23.0449 20.2246C23.44 21.9175 24.3306 23.2905 25.7168 24.3438C26.459 24.8386 27.2012 25.3333 27.9434 25.8281C28.8857 26.523 29.5413 27.4261 29.9102 28.5371C30.0515 29.7035 29.7547 30.7426 29.0195 31.6543C27.7115 33.1061 26.19 34.2813 24.4551 35.1797C23.1552 35.8545 21.844 36.4853 20.5215 37.0723C20.4377 36.9143 20.4253 36.7412 20.4844 36.5527C21.3631 35.1665 22.0187 33.6821 22.4512 32.0996C24.1336 32.112 25.816 32.0996 27.498 32.0625C28.5572 31.7863 29.0396 31.106 28.9453 30.0215C28.5157 28.9219 27.7116 28.4889 26.5332 28.7227C26.1374 29.069 26.1374 29.4153 26.5332 29.7617C26.8301 29.7864 27.127 29.8112 27.4238 29.8359C27.7744 30.0167 27.8858 30.3012 27.7578 30.6895C27.696 30.7513 27.6341 30.8132 27.5723 30.875C25.9397 30.9121 24.3069 30.9245 22.6738 30.9121C22.7954 28.4572 21.7315 26.7502 19.4824 25.791C20.183 25.824 20.8758 25.7869 21.5605 25.6797C21.8119 25.4293 21.849 25.1449 21.6719 24.8262C21.6162 24.7797 21.5543 24.7426 21.4863 24.7148C19.2828 24.7001 17.081 24.663 14.8809 24.6035C13.1122 23.9972 11.5907 23.0077 10.3164 21.6348C9.96951 21.188 9.66024 20.7179 9.38867 20.2246Z" fill="#A3D3F6"/>
<path opacity="0.985" fill-rule="evenodd" clip-rule="evenodd" d="M9.38867 20.2245C14.7004 20.1257 20.0195 20.1257 25.3457 20.2245C25.7336 21.8784 26.5996 23.2267 27.9434 24.2694C28.8479 24.8082 29.7138 25.4019 30.541 26.0507C32.6297 27.8935 32.7905 29.885 31.0234 32.0253C30.0826 32.9667 29.056 33.7954 27.9434 34.5116C25.9289 35.7044 23.826 36.7186 21.6348 37.5546C21.3874 37.6041 21.1399 37.6041 20.8926 37.5546C20.6704 37.4685 20.5467 37.3078 20.5215 37.0721C21.844 36.4852 23.1552 35.8544 24.4551 35.1796C26.19 34.2811 27.7115 33.106 29.0195 31.6542C29.7547 30.7425 30.0515 29.7034 29.9102 28.537C29.5413 27.4259 28.8857 26.5229 27.9434 25.828C27.2012 25.3332 26.459 24.8384 25.7168 24.3436C24.3306 23.2904 23.44 21.9173 23.0449 20.2245C18.4929 20.2245 13.9407 20.2245 9.38867 20.2245Z" fill="#A3D3F6"/>
<path opacity="0.98" fill-rule="evenodd" clip-rule="evenodd" d="M2.33784 21.2637C4.62109 21.4504 5.67253 22.6874 5.49214 24.9746C5.25491 25.1921 4.9704 25.2911 4.63862 25.2715C3.16075 25.1826 2.18354 24.4404 1.70698 23.0449C1.55269 22.5169 1.56506 21.9973 1.74409 21.4863C1.93649 21.3812 2.13441 21.3069 2.33784 21.2637Z" fill="#E2A974"/>
<path opacity="0.97" fill-rule="evenodd" clip-rule="evenodd" d="M31.8028 21.9317C33.6109 21.7995 34.786 22.5912 35.3281 24.3067C35.3776 24.7272 35.3776 25.1478 35.3281 25.5684C35.3004 25.6364 35.2633 25.6983 35.2168 25.7539C33.1989 26.0865 31.9495 25.2578 31.4688 23.2676C31.4193 22.9707 31.4193 22.6738 31.4688 22.377C31.5132 22.1726 31.6246 22.0241 31.8028 21.9317Z" fill="#D19A6D"/>
<path opacity="0.995" fill-rule="evenodd" clip-rule="evenodd" d="M14.8808 24.6033C17.081 24.6628 19.2827 24.6999 21.4863 24.7146C21.5543 24.7424 21.6162 24.7795 21.6718 24.8259C21.8489 25.1446 21.8118 25.4291 21.5605 25.6795C20.8758 25.7867 20.183 25.8238 19.4824 25.7908C16.0435 25.8032 12.6047 25.7908 9.16599 25.7537C8.95328 25.6503 8.85435 25.4771 8.86911 25.2341C8.85679 24.9114 9.00523 24.7135 9.31443 24.6404C11.1697 24.6033 13.0252 24.5909 14.8808 24.6033Z" fill="#CFD9D8"/>
<path opacity="0.984" fill-rule="evenodd" clip-rule="evenodd" d="M22.6738 30.912C24.3069 30.9244 25.9397 30.912 27.5723 30.8749C27.6341 30.8131 27.696 30.7512 27.7578 30.6894C27.8858 30.3011 27.7744 30.0166 27.4238 29.8359C27.1269 29.8112 26.8301 29.7864 26.5332 29.7616C26.1374 29.4153 26.1374 29.069 26.5332 28.7226C27.7116 28.4889 28.5157 28.9218 28.9453 30.0214C29.0396 31.106 28.5572 31.7863 27.498 32.0624C25.8159 32.0995 24.1336 32.1119 22.4512 32.0995C20.1255 32.1119 17.8 32.0995 15.4746 32.0624C14.5722 31.7545 14.1393 31.1236 14.1758 30.1699C14.2894 29.4378 14.6976 28.9553 15.4004 28.7226C15.8704 28.6731 16.3405 28.6731 16.8105 28.7226C17.2432 29.1683 17.1937 29.5394 16.6621 29.8359C16.3405 29.8606 16.0188 29.8854 15.6973 29.9101C15.4158 30.0625 15.3293 30.2974 15.4375 30.6152C15.5123 30.7457 15.6236 30.8323 15.7715 30.8749C18.0721 30.912 20.3729 30.9244 22.6738 30.912Z" fill="#CFD9D8"/>
</g>
<defs>
<clipPath id="clip0_354_4212">
<rect width="38" height="38" fill="white"/>
</clipPath>
</defs>
</svg>
