<svg width="38" height="38" viewBox="0 0 38 38" fill="none" xmlns="http://www.w3.org/2000/svg">
<g clip-path="url(#clip0_354_4262)">
<path opacity="0.941" fill-rule="evenodd" clip-rule="evenodd" d="M37.9629 12.2831C37.9629 12.5058 37.9629 12.7284 37.9629 12.9511C37.8412 13.1333 37.668 13.2446 37.4434 13.2851C36.4466 13.2931 35.457 13.3796 34.4746 13.5448C33.2429 13.8528 32.0059 14.1372 30.7637 14.3983C29.0317 14.6441 27.3 14.6441 25.5684 14.3983C24.1057 14.0883 22.6461 13.7667 21.1895 13.4335C19.7051 13.2851 18.2207 13.2851 16.7363 13.4335C15.091 13.8387 13.4334 14.185 11.7637 14.4726C9.94672 14.6607 8.14076 14.5865 6.3457 14.2499C5.16882 13.9309 3.98132 13.6588 2.7832 13.4335C2.01806 13.3582 1.25114 13.3087 0.482422 13.2851C0.257778 13.2446 0.0846005 13.1333 -0.0371094 12.9511C-0.0371094 12.7284 -0.0371094 12.5058 -0.0371094 12.2831C0.074981 12.1839 0.198679 12.0973 0.333984 12.0233C1.65851 11.9406 2.96971 12.0395 4.26758 12.3202C6.85679 13.1936 9.50393 13.4411 12.209 13.0624C13.259 12.8617 14.2981 12.6143 15.3262 12.3202C17.3184 11.9677 19.3223 11.8935 21.3379 12.0976C22.6623 12.3359 23.9735 12.6327 25.2715 12.9882C27.0242 13.2986 28.7807 13.3234 30.541 13.0624C31.6726 12.8321 32.7982 12.5723 33.918 12.2831C35.1304 12.0228 36.355 11.9363 37.5918 12.0233C37.7271 12.0973 37.8508 12.1839 37.9629 12.2831Z" fill="#FCD022"/>
<path opacity="0.94" fill-rule="evenodd" clip-rule="evenodd" d="M37.9629 16.1427C37.9629 16.3406 37.9629 16.5385 37.9629 16.7364C37.8624 16.8994 37.714 17.0107 37.5176 17.0704C36.5212 17.0834 35.5316 17.17 34.5488 17.3302C33.3175 17.638 32.0805 17.9225 30.8379 18.1837C29.2328 18.3956 27.6247 18.4203 26.0137 18.2579C24.3535 17.9273 22.6959 17.5809 21.041 17.2188C19.6556 17.0704 18.2702 17.0704 16.8848 17.2188C15.2298 17.5809 13.5723 17.9273 11.9121 18.2579C10.0207 18.4549 8.14046 18.3807 6.27148 18.0352C4.36384 17.4261 2.40942 17.1045 0.408203 17.0704C0.211826 17.0107 0.063389 16.8994 -0.0371094 16.7364C-0.0371094 16.5385 -0.0371094 16.3406 -0.0371094 16.1427C0.0479736 15.9961 0.171672 15.8848 0.333984 15.8087C1.63264 15.7406 2.9191 15.8396 4.19336 16.1056C7.92842 17.3425 11.6641 17.3425 15.4004 16.1056C17.3186 15.757 19.2483 15.6828 21.1895 15.8829C22.6841 16.1576 24.1684 16.4792 25.6426 16.8477C27.3001 17.0951 28.9577 17.0951 30.6152 16.8477C31.8077 16.5991 32.9952 16.327 34.1777 16.0313C35.3065 15.8096 36.4445 15.7354 37.5918 15.8087C37.7541 15.8848 37.8778 15.9961 37.9629 16.1427Z" fill="#FCD022"/>
<path opacity="0.94" fill-rule="evenodd" clip-rule="evenodd" d="M37.9629 19.928C37.9629 20.1259 37.9629 20.3238 37.9629 20.5217C37.8778 20.6683 37.7541 20.7796 37.5918 20.8557C36.6722 20.878 35.7568 20.9523 34.8457 21.0784C33.5375 21.3868 32.2263 21.6837 30.9121 21.969C27.9825 22.4083 25.1127 22.1609 22.3027 21.2268C20.3051 20.8327 18.3012 20.7956 16.291 21.1155C14.8884 21.4599 13.4782 21.7692 12.0605 22.0432C10.0948 22.2439 8.14031 22.1697 6.19727 21.8206C4.28998 21.2115 2.33555 20.8898 0.333984 20.8557C0.171672 20.7796 0.0479736 20.6683 -0.0371094 20.5217C-0.0371094 20.3238 -0.0371094 20.1259 -0.0371094 19.928C0.063389 19.765 0.211826 19.6537 0.408203 19.594C1.50479 19.5403 2.59334 19.6145 3.67383 19.8166C4.9993 20.1604 6.33524 20.4572 7.68164 20.7073C9.0918 20.8557 10.502 20.8557 11.9121 20.7073C13.1095 20.4822 14.297 20.21 15.4746 19.8909C17.3189 19.5477 19.1743 19.4735 21.041 19.6682C22.7059 19.9793 24.3634 20.3256 26.0137 20.7073C27.4238 20.8557 28.834 20.8557 30.2441 20.7073C31.5905 20.4572 32.9265 20.1604 34.252 19.8166C35.3324 19.6145 36.421 19.5403 37.5176 19.594C37.714 19.6537 37.8624 19.765 37.9629 19.928Z" fill="#FCD022"/>
<path opacity="0.94" fill-rule="evenodd" clip-rule="evenodd" d="M37.9629 23.7127C37.9629 23.9353 37.9629 24.158 37.9629 24.3806C37.8508 24.4798 37.7271 24.5664 37.5918 24.6404C36.7003 24.7047 35.8097 24.779 34.9199 24.8631C33.4672 25.2154 32.0075 25.537 30.541 25.8279C28.9329 25.9763 27.3249 25.9763 25.7168 25.8279C24.3981 25.5663 23.0869 25.2694 21.7832 24.9373C19.9029 24.5938 18.0227 24.5938 16.1426 24.9373C14.8389 25.2694 13.5277 25.5663 12.209 25.8279C10.1688 26.0316 8.14016 25.9574 6.12305 25.6052C4.23971 25.0059 2.31002 24.6843 0.333984 24.6404C0.198679 24.5664 0.074981 24.4798 -0.0371094 24.3806C-0.0371094 24.158 -0.0371094 23.9353 -0.0371094 23.7127C0.106378 23.5571 0.279555 23.4458 0.482422 23.3787C1.7829 23.3479 3.06935 23.4716 4.3418 23.7498C6.85835 24.5754 9.43127 24.8228 12.0605 24.492C13.4954 24.1704 14.9304 23.8487 16.3652 23.5271C18.0725 23.282 19.7795 23.282 21.4863 23.5271C22.9487 23.8371 24.4084 24.1586 25.8652 24.492C28.4945 24.8228 31.0674 24.5754 33.584 23.7498C34.8565 23.4716 36.1429 23.3479 37.4434 23.3787C37.6462 23.4458 37.8194 23.5571 37.9629 23.7127Z" fill="#FCD022"/>
</g>
<defs>
<clipPath id="clip0_354_4262">
<rect width="38" height="38" fill="white"/>
</clipPath>
</defs>
</svg>
