<svg width="38" height="38" viewBox="0 0 38 38" fill="none" xmlns="http://www.w3.org/2000/svg">
<g clip-path="url(#clip0_354_4171)">
<path opacity="0.991" fill-rule="evenodd" clip-rule="evenodd" d="M30.6895 4.78707C30.546 4.60617 30.3852 4.433 30.207 4.26754C28.3666 5.87213 26.8823 7.75233 25.7539 9.90816C25.4467 10.2578 25.0632 10.3691 24.6035 10.2421C24.4645 10.1157 24.3408 9.97964 24.2324 9.83395C24.1531 9.61812 24.1407 9.39546 24.1953 9.16598C25.29 7.04369 26.7125 5.16349 28.4629 3.52535C28.2456 3.45231 28.0229 3.42758 27.7949 3.45113C28.0767 2.89986 28.3489 2.34322 28.6113 1.78121C28.3155 1.74419 28.0186 1.73182 27.7207 1.7441C28.533 1.59172 29.3247 1.69067 30.0957 2.04098C30.8408 1.44608 31.6325 0.926553 32.4707 0.482384C32.5647 0.438815 32.639 0.438815 32.6934 0.482384C32.0244 1.91922 31.3564 3.35412 30.6895 4.78707Z" fill="#86B852"/>
<path opacity="0.988" fill-rule="evenodd" clip-rule="evenodd" d="M27.7207 1.74434C28.0186 1.73205 28.3155 1.74442 28.6113 1.78145C28.3489 2.34345 28.0767 2.90009 27.7949 3.45137C26.4902 3.82731 25.4388 4.5695 24.6406 5.67793C23.2383 7.57162 22.5084 9.69925 22.4512 12.0607C22.714 12.084 22.9614 12.0592 23.1933 11.9865C23.4193 11.9859 23.642 11.9612 23.8613 11.9123C23.569 12.5218 23.2968 13.1403 23.0449 13.7678C22.2534 13.9388 21.573 13.7409 21.0039 13.174C20.8845 12.9601 20.7856 12.7375 20.707 12.5061C20.6486 9.04961 21.799 6.0685 24.1582 3.5627C24.9574 2.76697 25.8975 2.19795 26.9785 1.85566C27.2202 1.77826 27.4676 1.74115 27.7207 1.74434Z" fill="#86B852"/>
<path fill-rule="evenodd" clip-rule="evenodd" d="M27.7949 3.451C28.0229 3.42744 28.2456 3.45218 28.4629 3.52522C26.7125 5.16335 25.29 7.04356 24.1953 9.16584C24.1407 9.39533 24.1531 9.61798 24.2324 9.83381C23.7789 10.5177 23.4325 11.2352 23.1934 11.9862C22.9614 12.0588 22.7141 12.0836 22.4512 12.0604C22.5085 9.69888 23.2383 7.57125 24.6406 5.67756C25.4388 4.56914 26.4902 3.82695 27.7949 3.451Z" fill="#88B956"/>
<path fill-rule="evenodd" clip-rule="evenodd" d="M30.6895 4.78711C31.0312 5.3583 31.1426 5.97679 31.0234 6.64258C30.6706 7.95395 29.9408 9.00541 28.834 9.79688C27.3371 10.8693 25.6795 11.5744 23.8613 11.9121C23.642 11.961 23.4194 11.9857 23.1934 11.9863C23.4325 11.2354 23.7789 10.5179 24.2324 9.83398C24.3408 9.97968 24.4645 10.1157 24.6035 10.2422C25.0632 10.3692 25.4466 10.2578 25.7539 9.9082C26.8823 7.75237 28.3666 5.87217 30.207 4.26758C30.3852 4.43303 30.546 4.60621 30.6895 4.78711Z" fill="#86B852"/>
<path fill-rule="evenodd" clip-rule="evenodd" d="M33.2871 -0.0371094C33.5345 -0.0371094 33.7819 -0.0371094 34.0293 -0.0371094C34.5437 0.332119 34.655 0.802171 34.3633 1.37305C33.4301 1.92304 32.5272 2.51679 31.6543 3.1543C33.0671 4.93148 33.2032 6.81169 32.0625 8.79492C30.9844 10.4664 29.5371 11.7158 27.7207 12.543C26.239 13.2472 24.6804 13.6554 23.0449 13.7676C23.2968 13.1401 23.569 12.5216 23.8613 11.9121C25.6795 11.5744 27.3371 10.8693 28.834 9.79688C29.9408 9.00541 30.6706 7.95395 31.0234 6.64258C31.1426 5.97679 31.0312 5.3583 30.6895 4.78711C31.3564 3.35416 32.0244 1.91926 32.6934 0.482422C32.639 0.438853 32.5647 0.438853 32.4707 0.482422C32.7302 0.290712 33.0024 0.117535 33.2871 -0.0371094Z" fill="#86B852"/>
<path opacity="0.946" fill-rule="evenodd" clip-rule="evenodd" d="M33.5097 13.7674C33.2374 14.3615 32.9653 14.9552 32.6933 15.5487C31.6232 15.5164 30.6337 15.7762 29.7246 16.328C29.4745 16.5532 29.2518 16.8006 29.0566 17.0702C28.598 17.3333 28.1651 17.2962 27.7578 16.9588C27.5443 16.6266 27.5195 16.2803 27.6836 15.9198C28.1718 15.2234 28.8026 14.6915 29.5761 14.3241C30.8444 13.8443 32.1556 13.6587 33.5097 13.7674Z" fill="#CFD9D8"/>
<path opacity="0.963" fill-rule="evenodd" clip-rule="evenodd" d="M33.5098 13.7676C36.0118 14.1175 37.4962 15.5277 37.9629 17.998C37.9629 18.5671 37.9629 19.136 37.9629 19.7051C37.0615 22.845 35.0081 24.7871 31.8027 25.5312C30.5039 25.8281 29.1928 25.9394 27.8691 25.8652C28.1699 25.2844 28.442 24.6906 28.6855 24.084C30.3932 24.1111 32.0013 23.7277 33.5098 22.9336C34.8959 22.1408 35.7742 20.9657 36.1445 19.4082C36.3096 16.9387 35.1592 15.6523 32.6934 15.5488C32.9653 14.9554 33.2375 14.3616 33.5098 13.7676Z" fill="#CFD9D8"/>
<path opacity="0.999" fill-rule="evenodd" clip-rule="evenodd" d="M11.8379 19.7051C12.1105 19.0611 12.3827 18.4178 12.6543 17.7754C12.5801 17.7754 12.5059 17.7754 12.4316 17.7754C14.329 17.3566 16.2587 17.171 18.2207 17.2187C18.856 17.3862 19.091 17.7944 18.9258 18.4434C18.7578 18.8058 18.4732 18.9913 18.0723 19C15.9679 19.015 13.8898 19.25 11.8379 19.7051Z" fill="#CFD9D8"/>
<path fill-rule="evenodd" clip-rule="evenodd" d="M12.4316 17.7754C12.5059 17.7754 12.5801 17.7754 12.6543 17.7754C12.3827 18.4178 12.1105 19.0611 11.8379 19.7051C9.34162 20.3059 7.0161 21.2954 4.86133 22.6738C5.23596 21.8007 5.63179 20.9348 6.04883 20.0762C6.01492 20.0169 5.96544 19.9922 5.90039 20.002C7.9446 18.8917 10.1217 18.1495 12.4316 17.7754Z" fill="#CFD9D8"/>
<path opacity="0.999" fill-rule="evenodd" clip-rule="evenodd" d="M5.90039 20.0021C5.96544 19.9923 6.01492 20.0171 6.04883 20.0763C5.63179 20.9349 5.23596 21.8008 4.86133 22.6739C3.57697 23.5493 2.41422 24.576 1.37305 25.754C0.788285 26.0222 0.318233 25.886 -0.0371094 25.3458C-0.0371094 25.1232 -0.0371094 24.9005 -0.0371094 24.6778C0.687683 23.718 1.52883 22.8645 2.48633 22.1173C3.55808 21.3053 4.69609 20.6003 5.90039 20.0021Z" fill="#CFD9D8"/>
<path opacity="0.969" fill-rule="evenodd" clip-rule="evenodd" d="M14.8066 22.4511C15.9888 22.3674 17.1763 22.4293 18.3691 22.6367C20.1525 23.0254 21.9337 23.4089 23.7129 23.7871C23.7568 23.8354 23.8062 23.8849 23.8613 23.9355C23.6243 24.3992 23.4017 24.8693 23.1934 25.3457C23.1321 25.4114 23.0579 25.4361 22.9707 25.4199C21.3298 25.1334 19.697 24.7994 18.0723 24.4179C17.1862 24.2822 16.2955 24.1956 15.4004 24.1582C15.617 23.5889 15.8643 23.0323 16.1426 22.4883C15.6979 22.4512 15.2526 22.4388 14.8066 22.4511Z" fill="#CFD9D8"/>
<path opacity="0.992" fill-rule="evenodd" clip-rule="evenodd" d="M14.8066 22.4514C15.2526 22.4391 15.6979 22.4515 16.1426 22.4885C15.8643 23.0325 15.617 23.5892 15.4004 24.1584C11.5268 24.5869 8.06335 25.997 5.00977 28.3889C5.40355 27.3909 5.84886 26.4136 6.3457 25.4572C6.30159 25.4228 6.25211 25.4104 6.19727 25.4201C8.8304 23.7672 11.7001 22.7776 14.8066 22.4514Z" fill="#CFD9D8"/>
<path opacity="0.956" fill-rule="evenodd" clip-rule="evenodd" d="M23.7129 23.7871C25.3626 24.0092 27.0201 24.1082 28.6855 24.084C28.442 24.6906 28.1699 25.2844 27.8691 25.8652C26.2092 25.896 24.5764 25.7476 22.9707 25.4199C23.0579 25.4362 23.1321 25.4115 23.1934 25.3457C23.4017 24.8693 23.6243 24.3993 23.8613 23.9355C23.8062 23.8849 23.7568 23.8354 23.7129 23.7871Z" fill="#CFD9D8"/>
<path opacity="0.999" fill-rule="evenodd" clip-rule="evenodd" d="M6.19727 25.4197C6.25211 25.41 6.30159 25.4224 6.3457 25.4568C5.84886 26.4132 5.40355 27.3904 5.00977 28.3885C3.52761 29.5858 2.31537 31.0084 1.37305 32.656C0.773448 32.9454 0.303394 32.8094 -0.0371094 32.2478C-0.0371094 32.0252 -0.0371094 31.8025 -0.0371094 31.5799C1.4506 28.9294 3.52872 26.876 6.19727 25.4197Z" fill="#CFD9D8"/>
<path opacity="0.969" fill-rule="evenodd" clip-rule="evenodd" d="M21.9316 27.7952C21.9399 27.8409 21.9646 27.8781 22.0059 27.9065C21.7736 28.3833 21.551 28.8658 21.3379 29.3538C21.1714 29.426 20.9983 29.4508 20.8184 29.428C19.1091 29.3126 17.4021 29.3373 15.6973 29.5022C15.949 28.875 16.2212 28.2565 16.5137 27.6467C18.3347 27.5239 20.1407 27.5734 21.9316 27.7952Z" fill="#CFD9D8"/>
<path opacity="0.954" fill-rule="evenodd" clip-rule="evenodd" d="M21.9316 27.7949C23.2949 27.8993 24.6308 28.1467 25.9395 28.5371C25.6922 29.0811 25.4449 29.6253 25.1973 30.1699C23.7446 29.8248 22.285 29.5774 20.8184 29.4277C20.9983 29.4506 21.1714 29.4258 21.3379 29.3535C21.551 28.8655 21.7736 28.3831 22.0059 27.9062C21.9646 27.8778 21.9399 27.8407 21.9316 27.7949Z" fill="#CFD9D8"/>
<path opacity="0.982" fill-rule="evenodd" clip-rule="evenodd" d="M16.5137 27.6465C16.2212 28.2563 15.949 28.8747 15.6973 29.502C13.3142 29.7634 11.2732 30.7282 9.57422 32.3965C9.08749 33.0566 8.62979 33.7369 8.20117 34.4375C7.4221 34.6918 6.97676 34.4196 6.86523 33.6211C7.03746 32.9672 7.32196 32.361 7.71875 31.8027C9.54936 29.5691 11.912 28.2455 14.8066 27.832C15.3729 27.7396 15.9418 27.6777 16.5137 27.6465Z" fill="#CFD9D8"/>
<path opacity="0.95" fill-rule="evenodd" clip-rule="evenodd" d="M25.9395 28.5371C27.1543 28.8971 28.2675 29.4538 29.2793 30.207C29.6438 30.534 29.9654 30.8928 30.2441 31.2832C29.9403 31.9651 29.6186 32.633 29.2793 33.2871C28.9691 32.3458 28.3753 31.6407 27.498 31.1719C26.7512 30.7712 25.9843 30.4372 25.1973 30.1699C25.4449 29.6253 25.6922 29.0811 25.9395 28.5371Z" fill="#CFD9D8"/>
<path opacity="0.963" fill-rule="evenodd" clip-rule="evenodd" d="M30.2441 31.2832C30.9909 32.2423 31.2507 33.3308 31.0234 34.5488C30.6762 36.4671 29.5505 37.6051 27.6465 37.9629C27.4733 37.9629 27.3001 37.9629 27.127 37.9629C27.4528 37.3068 27.7496 36.6388 28.0176 35.959C28.7367 35.5863 29.1449 34.9925 29.2422 34.1777C29.2792 33.8819 29.2916 33.585 29.2793 33.2871C29.6186 32.633 29.9403 31.9651 30.2441 31.2832Z" fill="#CFD9D8"/>
<path opacity="0.955" fill-rule="evenodd" clip-rule="evenodd" d="M28.0176 35.9591C27.7497 36.6389 27.4528 37.3069 27.127 37.963C26.7559 37.963 26.3848 37.963 26.0137 37.963C24.6251 37.5964 23.45 36.879 22.4883 35.8106C22.2574 35.1908 22.4429 34.7578 23.0449 34.5118C23.2746 34.4634 23.4972 34.4882 23.7129 34.586C24.4666 35.2898 25.3325 35.8093 26.3106 36.1446C26.8978 36.2229 27.4669 36.1611 28.0176 35.9591Z" fill="#CFD9D8"/>
</g>
<defs>
<clipPath id="clip0_354_4171">
<rect width="38" height="38" fill="white"/>
</clipPath>
</defs>
</svg>
