<svg width="38" height="38" viewBox="0 0 38 38" fill="none" xmlns="http://www.w3.org/2000/svg">
<g clip-path="url(#clip0_354_4343)">
<path opacity="0.976" fill-rule="evenodd" clip-rule="evenodd" d="M10.3535 13.248C11.1204 13.248 11.8874 13.248 12.6543 13.248C12.6543 14.0149 12.6543 14.7819 12.6543 15.5488C11.8874 15.5488 11.1204 15.5488 10.3535 15.5488C10.3535 14.7819 10.3535 14.0149 10.3535 13.248Z" fill="#FFB555"/>
<path opacity="0.561" fill-rule="evenodd" clip-rule="evenodd" d="M25.2715 13.248C26.0384 13.248 26.8054 13.248 27.5723 13.248C27.5723 14.0149 27.5723 14.7819 27.5723 15.5488C26.8054 15.5488 26.0384 15.5488 25.2715 15.5488C25.2715 14.7819 25.2715 14.0149 25.2715 13.248Z" fill="#FF8F4C"/>
<path fill-rule="evenodd" clip-rule="evenodd" d="M25.3457 13.3223C26.0632 13.3223 26.7806 13.3223 27.498 13.3223C27.498 14.0397 27.498 14.7571 27.498 15.4746C26.7806 15.4746 26.0632 15.4746 25.3457 15.4746C25.3457 14.7571 25.3457 14.0397 25.3457 13.3223Z" fill="#FE7C47"/>
<path opacity="0.955" fill-rule="evenodd" clip-rule="evenodd" d="M6.41992 16.4395C7.18685 16.4395 7.9538 16.4395 8.7207 16.4395C8.7207 17.2064 8.7207 17.9733 8.7207 18.7402C7.9538 18.7402 7.18685 18.7402 6.41992 18.7402C6.41992 17.9733 6.41992 17.2064 6.41992 16.4395Z" fill="#FFB655"/>
<path opacity="0.561" fill-rule="evenodd" clip-rule="evenodd" d="M29.2051 16.4395C29.972 16.4395 30.739 16.4395 31.5059 16.4395C31.5059 17.2064 31.5059 17.9733 31.5059 18.7402C30.739 18.7402 29.972 18.7402 29.2051 18.7402C29.2051 17.9733 29.2051 17.2064 29.2051 16.4395Z" fill="#FF8F4C"/>
<path fill-rule="evenodd" clip-rule="evenodd" d="M29.2793 16.5137C29.9968 16.5137 30.7142 16.5137 31.4316 16.5137C31.4316 17.2311 31.4316 17.9485 31.4316 18.666C30.7142 18.666 29.9968 18.666 29.2793 18.666C29.2793 17.9485 29.2793 17.2311 29.2793 16.5137Z" fill="#FE7C47"/>
<path opacity="0.998" fill-rule="evenodd" clip-rule="evenodd" d="M15.623 16.662C16.7363 16.662 17.8496 16.662 18.9629 16.662C18.9629 21.1398 18.9629 25.6178 18.9629 30.0956C17.4514 30.0069 16.4 29.2647 15.8086 27.869C15.6811 27.3574 15.6069 26.8378 15.5859 26.3104C15.3086 25.4513 14.7272 24.9565 13.8418 24.8261C12.1595 24.7766 10.4772 24.7271 8.79492 24.6776C10.4819 22.0221 12.1889 19.3749 13.916 16.7362C14.4829 16.6622 15.0519 16.6374 15.623 16.662Z" fill="#FE7B47"/>
<path fill-rule="evenodd" clip-rule="evenodd" d="M18.9629 16.662C20.0762 16.662 21.1895 16.662 22.3027 16.662C22.8739 16.6374 23.4429 16.6622 24.0098 16.7362C25.4152 18.8802 26.8007 21.0325 28.166 23.1933C26.7062 23.1809 25.2465 23.1933 23.7871 23.2304C22.9922 23.4809 22.5097 24.0129 22.3398 24.8261C22.3151 25.692 22.2903 26.5578 22.2656 27.4237C21.8214 28.994 20.7947 29.8847 19.1855 30.0956C19.1113 30.0956 19.0371 30.0956 18.9629 30.0956C18.9629 25.6178 18.9629 21.1398 18.9629 16.662Z" fill="#FE7C48"/>
<path fill-rule="evenodd" clip-rule="evenodd" d="M28.166 23.1931C30.9296 27.3587 33.6756 31.5397 36.4043 35.7361C30.5905 35.7361 24.7767 35.7361 18.9629 35.7361C18.9629 33.8806 18.9629 32.0252 18.9629 30.1697C19.0587 30.1873 19.1329 30.1626 19.1855 30.0955C20.7947 29.8845 21.8214 28.9939 22.2656 27.4236C22.2903 26.5577 22.3151 25.6918 22.3398 24.8259C22.5097 24.0127 22.9922 23.4808 23.7871 23.2302C25.2465 23.1931 26.7062 23.1807 28.166 23.1931Z" fill="#99442C"/>
<path fill-rule="evenodd" clip-rule="evenodd" d="M8.79492 24.6777C10.4772 24.7272 12.1595 24.7767 13.8418 24.8262C12.1219 24.8507 10.4149 24.826 8.7207 24.752C8.7207 24.7024 8.74542 24.6777 8.79492 24.6777Z" fill="#CE613A"/>
<path opacity="0.998" fill-rule="evenodd" clip-rule="evenodd" d="M8.7207 24.752C10.4149 24.826 12.1219 24.8507 13.8418 24.8262C14.7272 24.9566 15.3086 25.4514 15.5859 26.3105C15.6069 26.8379 15.6811 27.3575 15.8086 27.8691C16.4 29.2648 17.4514 30.007 18.9629 30.0957C19.0371 30.0957 19.1113 30.0957 19.1855 30.0957C19.1329 30.1628 19.0587 30.1875 18.9629 30.1699C18.9629 32.0254 18.9629 33.8809 18.9629 35.7363C13.1614 35.761 7.37227 35.7363 1.5957 35.6621C3.95323 32.01 6.32823 28.3733 8.7207 24.752Z" fill="#98432B"/>
<path fill-rule="evenodd" clip-rule="evenodd" d="M1.5957 35.6621C7.37227 35.7363 13.1614 35.761 18.9629 35.7363C18.9629 36.4785 18.9629 37.2207 18.9629 37.9629C12.6296 37.9629 6.29622 37.9629 -0.0371094 37.9629C-0.0371094 37.2207 -0.0371094 36.4785 -0.0371094 35.7363C0.513622 35.7584 1.05789 35.7337 1.5957 35.6621Z" fill="#88B956"/>
<path fill-rule="evenodd" clip-rule="evenodd" d="M18.9629 35.7363C24.7767 35.7363 30.5905 35.7363 36.4043 35.7363C36.9238 35.7363 37.4434 35.7363 37.9629 35.7363C37.9629 36.4785 37.9629 37.2207 37.9629 37.9629C31.6296 37.9629 25.2962 37.9629 18.9629 37.9629C18.9629 37.2207 18.9629 36.4785 18.9629 35.7363Z" fill="#88B956"/>
</g>
<defs>
<clipPath id="clip0_354_4343">
<rect width="38" height="38" fill="white"/>
</clipPath>
</defs>
</svg>
