<svg width="38" height="38" viewBox="0 0 38 38" fill="none" xmlns="http://www.w3.org/2000/svg">
<g clip-path="url(#clip0_354_4271)">
<path opacity="0.98" fill-rule="evenodd" clip-rule="evenodd" d="M0.853516 -0.0371094C1.57097 -0.0371094 2.28841 -0.0371094 3.00586 -0.0371094C3.42503 0.122449 3.70954 0.419324 3.85938 0.853516C3.90886 1.57097 3.90886 2.28841 3.85938 3.00586C3.7712 3.28124 3.61039 3.5039 3.37695 3.67383C3.30287 4.33997 3.27813 5.00794 3.30273 5.67773C3.278 5.75195 3.22852 5.80143 3.1543 5.82617C2.28841 5.82617 1.42253 5.82617 0.556641 5.82617C0.581263 5.10702 0.556523 4.38957 0.482422 3.67383C0.220166 3.51168 0.0469894 3.28903 -0.0371094 3.00586C-0.0371094 2.28841 -0.0371094 1.57097 -0.0371094 0.853516C0.136067 0.432942 0.432942 0.136067 0.853516 -0.0371094Z" fill="#92ADB9"/>
<path opacity="0.986" fill-rule="evenodd" clip-rule="evenodd" d="M37.9629 3.22842C37.9629 7.18675 37.9629 11.1451 37.9629 15.1034C35.8877 15.2038 34.0569 14.5977 32.4707 13.2851C30.567 12.2099 28.6373 12.1604 26.6816 13.1366C25.6984 13.9004 24.6098 14.4694 23.416 14.8437C21.4952 15.297 19.6645 15.0496 17.9238 14.1015C16.6317 12.9777 15.1226 12.4088 13.3965 12.3944C10.0394 10.7035 6.67485 9.03359 3.30273 7.38467C3.26913 7.31354 3.21965 7.25169 3.1543 7.19912C2.31352 7.16202 1.47237 7.14966 0.630859 7.16201C0.630859 6.74144 0.630859 6.32087 0.630859 5.90029C1.48529 5.92465 2.32643 5.89991 3.1543 5.82608C3.22852 5.80134 3.278 5.75186 3.30273 5.67764C6.72433 4.00396 10.1384 2.30929 13.5449 0.593654C14.9235 0.542447 16.2099 0.864062 17.4043 1.5585C20.1318 3.75132 22.8779 3.77606 25.6426 1.63272C28.7417 0.027493 31.6611 0.299629 34.4004 2.44912C35.512 3.04505 36.6995 3.30482 37.9629 3.22842ZM12.9512 2.41201C13.0499 5.12116 13.0499 7.84253 12.9512 10.5761C10.2546 9.22774 7.55792 7.87949 4.86133 6.53115C7.56245 5.15589 10.2591 3.78284 12.9512 2.41201Z" fill="#FE5B42"/>
<path fill-rule="evenodd" clip-rule="evenodd" d="M0.556641 5.82617C1.42253 5.82617 2.28841 5.82617 3.1543 5.82617C2.32643 5.9 1.48529 5.92474 0.630859 5.90039C0.630859 6.32097 0.630859 6.74153 0.630859 7.16211C0.60612 7.16211 0.58138 7.16211 0.556641 7.16211C0.556641 6.7168 0.556641 6.27148 0.556641 5.82617Z" fill="#CF7F76"/>
<path opacity="0.954" fill-rule="evenodd" clip-rule="evenodd" d="M0.556641 7.16235C0.58138 7.16235 0.60612 7.16235 0.630859 7.16235C1.47237 7.14999 2.31352 7.16235 3.1543 7.19946C3.21965 7.25203 3.26913 7.31387 3.30273 7.385C3.30273 17.5777 3.30273 27.7704 3.30273 37.9631C2.38737 37.9631 1.472 37.9631 0.556641 37.9631C0.556641 27.6962 0.556641 17.4292 0.556641 7.16235Z" fill="#92ADB9"/>
</g>
<defs>
<clipPath id="clip0_354_4271">
<rect width="38" height="38" fill="white"/>
</clipPath>
</defs>
</svg>
