<svg width="38" height="38" viewBox="0 0 38 38" fill="none" xmlns="http://www.w3.org/2000/svg">
<path opacity="0.991" fill-rule="evenodd" clip-rule="evenodd" d="M37.9629 3.74815C37.9629 4.26768 37.9629 4.78721 37.9629 5.30674C37.3011 7.5359 35.7919 8.61207 33.4355 8.53525C34.8575 9.06822 35.4884 10.0949 35.3281 11.6153C35.0344 12.8569 34.2551 13.562 32.9902 13.7306C32.4954 13.7553 32.0007 13.7801 31.5059 13.8048C32.7036 14.212 33.3469 15.0532 33.4355 16.3282C33.3169 17.6586 32.6242 18.5245 31.3574 18.9259C32.248 18.9506 33.1387 18.9754 34.0293 19.0001C35.7079 19.6483 36.314 20.8481 35.8477 22.5997C35.5165 23.3531 34.9599 23.8602 34.1777 24.1212C34.8704 24.1459 35.5632 24.1707 36.2559 24.1954C36.9105 24.3761 37.2816 24.8091 37.3691 25.4942C37.3421 26.1515 37.0204 26.5844 36.4043 26.7931C35.761 26.8178 35.1179 26.8426 34.4746 26.8673C35.1975 27.1872 35.482 27.7438 35.3281 28.5372C35.1517 29.0601 34.793 29.3693 34.252 29.4649C33.386 29.4897 32.5202 29.5144 31.6543 29.5392C32.4185 30.0191 32.6041 30.6747 32.2109 31.506C32.0133 31.7777 31.7535 31.9632 31.4316 32.0626C29.972 32.0873 28.5124 32.1121 27.0527 32.1368C27.8453 32.6473 28.0309 33.3277 27.6094 34.1778C27.4704 34.3418 27.3095 34.4778 27.127 34.586C25.2267 34.683 23.3217 34.7325 21.4121 34.7345C22.2654 35.2158 22.4757 35.8961 22.043 36.7755C21.7897 37.1062 21.4557 37.2918 21.041 37.3321C20.1257 37.3445 19.2103 37.3568 18.2949 37.3692C17.2526 37.3783 16.2135 37.3412 15.1777 37.2579C14.3155 36.7426 14.1299 36.0375 14.6211 35.1427C14.7649 34.9493 14.9505 34.8132 15.1777 34.7345C16.1144 34.6431 17.0544 34.5936 17.998 34.586C17.5338 34.3137 17.2864 33.9055 17.2559 33.3614C17.3446 32.7167 17.6909 32.2837 18.2949 32.0626C18.8887 32.0379 19.4824 32.0131 20.0762 31.9884C19.2578 31.5371 19.0475 30.8814 19.4453 30.0216C19.609 29.8331 19.7945 29.6722 20.002 29.5392C18.4558 29.4515 17.9734 28.6969 18.5547 27.2755C18.7105 27.0553 18.9209 26.9192 19.1855 26.8673C17.6517 26.8426 16.1179 26.8178 14.584 26.7931C13.6715 26.3062 13.4611 25.6011 13.9531 24.6778C14.097 24.4844 14.2825 24.3484 14.5098 24.2696C13.2233 24.2449 11.9368 24.2201 10.6504 24.1954C8.96459 23.7321 8.25951 22.6311 8.53516 20.8927C8.8258 19.8846 9.48137 19.2538 10.502 19.0001C9.61133 18.9754 8.7207 18.9506 7.83008 18.9259C6.15147 18.2777 5.54535 17.0778 6.01172 15.3263C6.33256 14.5601 6.8892 14.053 7.68164 13.8048C6.61488 13.7967 5.55108 13.7472 4.49023 13.6563C2.92453 13.0614 2.31841 11.9357 2.67188 10.2794C2.977 9.38974 3.58312 8.80831 4.49023 8.53525C2.13384 8.61207 0.624724 7.5359 -0.0371094 5.30674C-0.0371094 4.78721 -0.0371094 4.26768 -0.0371094 3.74815C0.419458 2.14123 1.45852 1.11454 3.08008 0.668067C8.37239 0.582313 13.6667 0.545203 18.9629 0.556739C24.2591 0.545203 29.5534 0.582313 34.8457 0.668067C36.4672 1.11454 37.5063 2.14123 37.9629 3.74815Z" fill="#91AEB9"/>
</svg>
