<svg width="38" height="38" viewBox="0 0 38 38" fill="none" xmlns="http://www.w3.org/2000/svg">
<g clip-path="url(#clip0_354_4412)">
<path opacity="0.935" fill-rule="evenodd" clip-rule="evenodd" d="M18.666 -0.0371094C18.864 -0.0371094 19.0618 -0.0371094 19.2598 -0.0371094C19.4228 0.063389 19.5341 0.211826 19.5938 0.408203C19.6433 2.23893 19.6433 4.06966 19.5938 5.90039C19.1732 6.49414 18.7526 6.49414 18.332 5.90039C18.2825 4.06966 18.2825 2.23893 18.332 0.408203C18.3917 0.211826 18.503 0.063389 18.666 -0.0371094Z" fill="#FCD01F"/>
<path opacity="0.949" fill-rule="evenodd" clip-rule="evenodd" d="M5.38091 5.00979C5.61464 4.98837 5.8373 5.02548 6.04888 5.12111C7.37245 6.44468 8.69604 7.76827 10.0196 9.09182C10.2437 9.65788 10.0582 10.0042 9.46295 10.1309C9.32943 10.1252 9.2057 10.0881 9.09185 10.0196C7.76831 8.69601 6.44471 7.37241 5.12115 6.04885C4.91812 5.62333 5.00471 5.27697 5.38091 5.00979Z" fill="#FCD01F"/>
<path opacity="0.949" fill-rule="evenodd" clip-rule="evenodd" d="M32.0254 5.00965C32.7728 4.99621 33.0325 5.34256 32.8047 6.04872C31.4811 7.37228 30.1575 8.69588 28.834 10.0194C28.3916 10.2323 28.0576 10.121 27.832 9.68544C27.776 9.4774 27.8007 9.27946 27.9062 9.09169C29.2715 7.71404 30.6445 6.35334 32.0254 5.00965Z" fill="#FCD01F"/>
<path opacity="0.992" fill-rule="evenodd" clip-rule="evenodd" d="M18.8887 8.12695C23.8702 8.37113 27.2966 10.7956 29.168 15.4004C30.5358 20.0604 29.4349 24.0311 25.8652 27.3125C22.0974 30.0994 18.0896 30.4952 13.8418 28.5C10.2309 26.3575 8.32593 23.1784 8.12695 18.9629C8.33254 14.6779 10.287 11.4741 13.9902 9.35156C15.5452 8.59171 17.178 8.18351 18.8887 8.12695Z" fill="#FCD01F"/>
<path opacity="0.935" fill-rule="evenodd" clip-rule="evenodd" d="M-0.0371094 19.2598C-0.0371094 19.0618 -0.0371094 18.864 -0.0371094 18.666C0.063389 18.503 0.211826 18.3917 0.408203 18.332C2.23893 18.2825 4.06966 18.2825 5.90039 18.332C6.49414 18.7526 6.49414 19.1732 5.90039 19.5938C4.06966 19.6433 2.23893 19.6433 0.408203 19.5938C0.211826 19.5341 0.063389 19.4228 -0.0371094 19.2598Z" fill="#FCD01F"/>
<path opacity="0.935" fill-rule="evenodd" clip-rule="evenodd" d="M37.9629 18.666C37.9629 18.864 37.9629 19.0618 37.9629 19.2598C37.8624 19.4228 37.714 19.5341 37.5176 19.5938C35.6868 19.6433 33.8561 19.6433 32.0254 19.5938C31.4316 19.1732 31.4316 18.7526 32.0254 18.332C33.8561 18.2825 35.6868 18.2825 37.5176 18.332C37.714 18.3917 37.8624 18.503 37.9629 18.666Z" fill="#FCD01F"/>
<path opacity="0.949" fill-rule="evenodd" clip-rule="evenodd" d="M9.24017 27.7949C9.97308 27.7971 10.2328 28.1435 10.0195 28.834C8.67114 30.1823 7.32286 31.5306 5.97455 32.8789C5.1528 32.9974 4.8683 32.6634 5.12103 31.877C6.48629 30.4993 7.85933 29.1386 9.24017 27.7949Z" fill="#FCD01F"/>
<path opacity="0.949" fill-rule="evenodd" clip-rule="evenodd" d="M28.3145 27.7947C28.4992 27.7797 28.6724 27.8169 28.834 27.9061C30.1575 29.2296 31.4812 30.5532 32.8047 31.8768C33.0574 32.6633 32.7729 32.9973 31.9512 32.8787C30.6029 31.5304 29.2546 30.1821 27.9063 28.8338C27.7165 28.3507 27.8525 28.0043 28.3145 27.7947Z" fill="#FCD01F"/>
<path opacity="0.935" fill-rule="evenodd" clip-rule="evenodd" d="M19.2598 37.9629C19.0618 37.9629 18.864 37.9629 18.666 37.9629C18.503 37.8624 18.3917 37.714 18.332 37.5176C18.2825 35.6868 18.2825 33.8561 18.332 32.0254C18.7526 31.4316 19.1732 31.4316 19.5938 32.0254C19.6433 33.8561 19.6433 35.6868 19.5938 37.5176C19.5341 37.714 19.4228 37.8624 19.2598 37.9629Z" fill="#FCD01F"/>
</g>
<defs>
<clipPath id="clip0_354_4412">
<rect width="38" height="38" fill="white"/>
</clipPath>
</defs>
</svg>
