<svg width="38" height="38" viewBox="0 0 38 38" fill="none" xmlns="http://www.w3.org/2000/svg">
<g clip-path="url(#clip0_354_4442)">
<path opacity="0.921" fill-rule="evenodd" clip-rule="evenodd" d="M22.1543 -0.0371094C22.3769 -0.0371094 22.5996 -0.0371094 22.8222 -0.0371094C22.9778 0.106378 23.0891 0.279555 23.1562 0.482422C23.2057 1.42253 23.2057 2.36263 23.1562 3.30273C22.9756 3.80134 22.6416 3.96215 22.1543 3.78516C21.9488 3.65438 21.8375 3.46884 21.8203 3.22852C21.7517 2.23476 21.7764 1.24517 21.8945 0.259766C21.9966 0.170327 22.0832 0.0713687 22.1543 -0.0371094Z" fill="#FDCF20"/>
<path opacity="0.927" fill-rule="evenodd" clip-rule="evenodd" d="M10.6504 3.15432C10.8841 3.1329 11.1067 3.17001 11.3183 3.26564C12.2214 4.16864 13.1243 5.07163 14.0273 5.97463C14.3135 6.58717 14.128 6.95827 13.4707 7.08791C13.3372 7.0822 13.2134 7.04509 13.0996 6.97658C12.1719 6.04885 11.2441 5.12111 10.3164 4.19338C10.1096 3.74168 10.2209 3.39533 10.6504 3.15432Z" fill="#FCD01F"/>
<path opacity="0.901" fill-rule="evenodd" clip-rule="evenodd" d="M33.8067 3.15416C34.3546 3.06827 34.6763 3.29093 34.7715 3.82213C34.7458 4.04684 34.6592 4.24476 34.5118 4.41588C33.7078 5.21992 32.9037 6.02396 32.0997 6.82799C31.6165 7.21953 31.2083 7.15768 30.875 6.64244C30.8164 6.40984 30.8411 6.18719 30.9493 5.97448C31.8939 5.01737 32.8464 4.07726 33.8067 3.15416Z" fill="#FCD01F"/>
<path opacity="0.992" fill-rule="evenodd" clip-rule="evenodd" d="M28.6113 22.9706C27.2732 20.2846 25.0961 19.0847 22.0801 19.371C21.6327 19.4624 21.1998 19.5985 20.7812 19.7792C19.2322 16.3657 16.5728 14.6834 12.8027 14.7323C13.1603 11.3236 14.7931 8.73835 17.7012 6.97647C20.1608 5.66225 22.7336 5.39011 25.4199 6.16006C29.2873 7.55404 31.5262 10.2877 32.1367 14.3612C32.4113 17.8424 31.2361 20.7121 28.6113 22.9706Z" fill="#FCD020"/>
<path opacity="0.996" fill-rule="evenodd" clip-rule="evenodd" d="M12.8027 14.7325C16.5728 14.6836 19.2322 16.3658 20.7812 19.7794C21.1998 19.5986 21.6327 19.4626 22.0801 19.3712C25.0961 19.0849 27.2732 20.2848 28.6113 22.9708C28.6701 23.2462 28.7443 23.5183 28.834 23.7872C31.9986 23.4219 34.4849 24.5351 36.293 27.127C37.7764 29.8342 37.6774 32.4813 35.9961 35.0684C34.7875 36.6687 33.1918 37.6336 31.209 37.963C22.6243 37.963 14.0397 37.963 5.45508 37.963C2.41211 37.3445 0.58138 35.5137 -0.0371094 32.4708C-0.0371094 31.8275 -0.0371094 31.1843 -0.0371094 30.5411C0.714643 27.2667 2.76803 25.4112 6.12305 24.9747C5.18183 21.8001 5.87453 19.0416 8.20117 16.6993C9.51677 15.547 11.0507 14.8914 12.8027 14.7325Z" fill="#A3D3F6"/>
<path opacity="0.955" fill-rule="evenodd" clip-rule="evenodd" d="M37.9629 15.1035C37.9629 15.3015 37.9629 15.4993 37.9629 15.6973C37.8779 15.8439 37.7541 15.9552 37.5918 16.0313C36.528 16.0808 35.4642 16.0808 34.4004 16.0313C33.8947 15.5448 33.9442 15.1242 34.5489 14.7695C35.5137 14.72 36.4785 14.72 37.4434 14.7695C37.6462 14.8366 37.8195 14.948 37.9629 15.1035Z" fill="#FDD020"/>
</g>
<defs>
<clipPath id="clip0_354_4442">
<rect width="38" height="38" fill="white"/>
</clipPath>
</defs>
</svg>
