<svg width="38" height="38" viewBox="0 0 38 38" fill="none" xmlns="http://www.w3.org/2000/svg">
<g clip-path="url(#clip0_354_4455)">
<path opacity="0.987" fill-rule="evenodd" clip-rule="evenodd" d="M26.1621 -0.0371094C27.1022 -0.0371094 28.0423 -0.0371094 28.9824 -0.0371094C29.5981 0.0660081 30.2165 0.202076 30.8379 0.371094C26.9785 2.16312 25.1354 5.19372 25.3086 9.46289C25.8784 13.1248 27.9194 15.5369 31.4316 16.6992C33.747 17.3231 35.924 17.0139 37.9629 15.7715C37.9629 15.8457 37.9629 15.9199 37.9629 15.9941C36.3964 20.009 33.5019 22.4829 29.2793 23.416C28.5201 20.9377 26.8626 19.4657 24.3066 19C23.2074 18.8637 22.1559 19.0245 21.1523 19.4824C20.1195 17.1511 18.4001 15.543 15.9941 14.6582C15.9941 14.6087 15.9694 14.584 15.9199 14.584C15.0012 9.88148 16.2877 5.91078 19.7793 2.67188C21.6483 1.15427 23.776 0.251276 26.1621 -0.0371094Z" fill="#FBE566"/>
<path opacity="0.945" fill-rule="evenodd" clip-rule="evenodd" d="M33.2871 3.89659C33.3521 3.88687 33.4016 3.91161 33.4355 3.9708C33.7429 4.64517 34.0645 5.31314 34.4004 5.97471C35.1622 6.13482 35.9291 6.27089 36.7012 6.38291C36.1963 6.96204 35.6644 7.51868 35.1055 8.05284C35.1559 8.83792 35.2672 9.61722 35.4395 10.3907C35.4147 10.4278 35.3899 10.4649 35.3652 10.5021C34.7092 10.1121 34.0412 9.74102 33.3613 9.38877C32.6814 9.74102 32.0134 10.1121 31.3574 10.5021C31.3327 10.4773 31.3079 10.4526 31.2832 10.4278C31.4513 9.64208 31.5626 8.85039 31.6172 8.05284C31.0582 7.51868 30.5263 6.96204 30.0215 6.38291C30.7935 6.27089 31.5604 6.13482 32.3223 5.97471C32.6853 5.29821 33.0069 4.6055 33.2871 3.89659Z" fill="#FEDE3C"/>
<path opacity="0.996" fill-rule="evenodd" clip-rule="evenodd" d="M15.9199 14.5838C15.9694 14.5838 15.9941 14.6085 15.9941 14.658C18.4001 15.5428 20.1195 17.1509 21.1523 19.4822C22.1559 19.0243 23.2074 18.8635 24.3066 18.9998C26.8626 19.4655 28.5201 20.9375 29.2793 23.4158C29.2781 23.5631 29.3523 23.6373 29.502 23.6385C32.7496 23.2277 35.2607 24.3905 37.0352 27.1268C37.5171 27.9936 37.8263 28.909 37.9629 29.8729C37.9629 30.4666 37.9629 31.0604 37.9629 31.6541C37.2781 35.1344 35.1999 37.2374 31.7285 37.9627C22.9954 37.9627 14.2624 37.9627 5.5293 37.9627C2.42828 37.3109 0.57281 35.4307 -0.0371094 32.3221C-0.0371094 31.7283 -0.0371094 31.1346 -0.0371094 30.5408C0.678275 27.117 2.78114 25.1997 6.27148 24.7889C5.27758 21.6025 5.94555 18.8193 8.27539 16.4393C10.4907 14.4917 13.0389 13.8731 15.9199 14.5838Z" fill="#A3D4F6"/>
</g>
<defs>
<clipPath id="clip0_354_4455">
<rect width="38" height="38" fill="white"/>
</clipPath>
</defs>
</svg>
