<svg width="38" height="24" viewBox="0 0 38 24" fill="none" xmlns="http://www.w3.org/2000/svg">
<path opacity="0.993" fill-rule="evenodd" clip-rule="evenodd" d="M37.9629 15.5995C37.9629 16.2675 37.9629 16.9355 37.9629 17.6034C37.2251 21.1737 35.048 23.2395 31.4316 23.8007C22.7214 23.8739 14.0131 23.8492 5.30664 23.7265C2.35061 23.0095 0.569361 21.1665 -0.0371094 18.1972C-0.0371094 17.5539 -0.0371094 16.9107 -0.0371094 16.2675C0.715493 12.8953 2.81836 11.0274 6.27148 10.664C5.19848 7.0801 6.08911 4.08664 8.94336 1.68351C11.2293 0.0934712 13.7033 -0.277622 16.3652 0.57023C18.6243 1.46865 20.22 3.03964 21.1523 5.28312C23.9434 4.23678 26.3184 4.83053 28.2773 7.06437C28.7951 7.75364 29.1538 8.52062 29.3535 9.36515C32.1433 9.03718 34.4812 9.90309 36.3672 11.9628C37.224 13.0382 37.756 14.2504 37.9629 15.5995Z" fill="#A3D4F6"/>
</svg>
