<svg width="38" height="38" viewBox="0 0 38 38" fill="none" xmlns="http://www.w3.org/2000/svg">
<g clip-path="url(#clip0_354_4481)">
<path opacity="0.989" fill-rule="evenodd" clip-rule="evenodd" d="M37.9629 19.3342C37.9629 20.0021 37.9629 20.6701 37.9629 21.3381C37.8216 22.1085 37.5741 22.8507 37.2207 23.5646C35.4186 20.5734 32.7714 19.3117 29.2793 19.7795C28.8397 17.7687 27.677 16.3461 25.791 15.5119C24.2505 14.9569 22.7166 14.9692 21.1895 15.549C21.1399 15.5243 21.0905 15.4995 21.041 15.4748C19.6243 12.3038 17.1751 10.6215 13.6934 10.4279C10.401 10.568 8.01362 12.1018 6.53125 15.0295C5.69583 16.9751 5.60924 18.9543 6.27148 20.967C3.89853 21.1665 2.0678 22.255 0.779297 24.2326C0.37232 23.5061 0.100184 22.7391 -0.0371094 21.9318C-0.0371094 21.2886 -0.0371094 20.6454 -0.0371094 20.0021C0.691714 16.6636 2.75747 14.7834 6.16016 14.3615C5.22963 10.9454 6.05841 8.03852 8.64648 5.64081C11.8176 3.34358 15.0585 3.24463 18.3691 5.34394C19.6364 6.31391 20.5641 7.53851 21.1523 9.01776C23.4484 8.08662 25.5636 8.39581 27.498 9.9455C28.4119 10.8204 29.0304 11.8718 29.3535 13.0998C32.4648 12.73 34.9511 13.7939 36.8125 16.2912C37.4086 17.2341 37.792 18.2484 37.9629 19.3342Z" fill="#60A2D7"/>
<path opacity="0.997" fill-rule="evenodd" clip-rule="evenodd" d="M37.2207 23.5645C37.5599 24.3097 37.8073 25.0767 37.9629 25.8652C37.9629 26.5332 37.9629 27.2012 37.9629 27.8691C37.2436 31.3714 35.116 33.4373 31.5801 34.0664C22.7956 34.1397 14.0131 34.1149 5.23242 33.9922C2.31761 33.2423 0.561101 31.3992 -0.0371094 28.4629C-0.0371094 27.8196 -0.0371094 27.1765 -0.0371094 26.5332C0.12976 25.7361 0.401896 24.9692 0.779297 24.2324C2.0678 22.2549 3.89853 21.1663 6.27148 20.9668C5.60924 18.9541 5.69583 16.9749 6.53125 15.0293C8.01362 12.1017 10.401 10.5678 13.6934 10.4277C17.1751 10.6213 19.6243 12.3036 21.041 15.4746C21.0905 15.4993 21.1399 15.5241 21.1895 15.5488C22.7166 14.969 24.2505 14.9567 25.791 15.5117C27.677 16.3459 28.8397 17.7685 29.2793 19.7793C32.7714 19.3115 35.4186 20.5732 37.2207 23.5645Z" fill="#A2D3F6"/>
</g>
<defs>
<clipPath id="clip0_354_4481">
<rect width="38" height="38" fill="white"/>
</clipPath>
</defs>
</svg>
